# MagicaVoxel @ Ephtracy

# group
o 

# material
mtllib king.blue.mtl
usemtl palette

# normals
vn -1 0 0
vn 1 0 0
vn 0 0 1
vn 0 0 -1
vn 0 -1 0
vn 0 1 0

# texcoords
vt 0.306641 0.5
vt 0.810547 0.5
vt 0.861328 0.5
vt 0.986328 0.5
vt 0.990234 0.5

# verts
v 2.9 2 -2.9
v 2.9 2 -3.8
v 2.9 2 -4.2
v 2.9 2 -5.1
v 2.9 2.2 -3.4
v 2.9 2.2 -3.6
v 2.9 2.2 -4.4
v 2.9 2.2 -4.6
v 2.9 2.6 -3.2
v 2.9 2.6 -3.4
v 2.9 2.6 -3.6
v 2.9 2.6 -4.4
v 2.9 2.6 -4.6
v 2.9 2.6 -4.8
v 2.9 2.8 -2.9
v 2.9 2.8 -3.2
v 2.9 2.8 -3.4
v 2.9 2.8 -3.8
v 2.9 2.8 -4.2
v 2.9 2.8 -4.6
v 2.9 2.8 -4.8
v 2.9 2.8 -5.1
v 3 2.8 -3
v 3 2.8 -3.2
v 3 2.8 -4.8
v 3 2.8 -5
v 3 3 -3
v 3 3 -3.2
v 3 3 -4.8
v 3 3 -5
v 3.1 2 -3.8
v 3.1 2 -4.2
v 3.1 2.8 -3.2
v 3.1 2.8 -3.8
v 3.1 2.8 -4.2
v 3.1 2.8 -4.8
v 3.1 3 -3.2
v 3.1 3 -4.8
v 3.3 3 -3.3
v 3.3 3 -4.7
v 3.3 3.2 -3.3
v 3.3 3.2 -4.7
v 3.5 3.2 -3.6
v 3.5 3.2 -4.4
v 3.5 4 -3.6
v 3.5 4 -4.4
v 3.5 5.9 -3.5
v 3.5 5.9 -4.5
v 3.5 6.1 -3.5
v 3.5 6.1 -4.5
v 3.6 3.2 -3.5
v 3.6 3.2 -3.6
v 3.6 3.2 -4.4
v 3.6 3.2 -4.5
v 3.6 4 -3.5
v 3.6 4 -3.6
v 3.6 4 -4.4
v 3.6 4 -4.5
v 3.6 4.1 -3.6
v 3.6 4.1 -3.7
v 3.6 4.1 -4.3
v 3.6 4.1 -4.4
v 3.6 5 -3.6
v 3.6 5 -3.7
v 3.6 5 -4.3
v 3.6 5 -4.4
v 3.6 5.1 -3.6
v 3.6 5.1 -4.4
v 3.6 6.6 -3.6
v 3.6 6.6 -4.4
v 3.6 6.8 -3.6
v 3.6 6.8 -4.4
v 3.7 5.1 -3.7
v 3.7 5.1 -4.3
v 3.7 5.9 -3.7
v 3.7 5.9 -4.3
v 3.7 6.1 -3.7
v 3.7 6.1 -4.3
v 3.7 6.6 -3.7
v 3.7 6.6 -4.3
v 3.7 6.8 -3.7
v 3.7 6.8 -3.9
v 3.7 6.8 -4.1
v 3.7 6.8 -4.3
v 3.7 7 -3.7
v 3.7 7 -3.9
v 3.7 7 -4.1
v 3.7 7 -4.3
v 4.1 6.8 -3.7
v 4.1 6.8 -3.9
v 4.1 6.8 -4.1
v 4.1 6.8 -4.3
v 4.1 7 -3.7
v 4.1 7 -3.9
v 4.1 7 -4.1
v 4.1 7 -4.3
v 4.2 2 -2.9
v 4.2 2 -3
v 4.2 2 -5
v 4.2 2 -5.1
v 4.2 2.8 -2.9
v 4.2 2.8 -3
v 4.2 2.8 -5
v 4.2 2.8 -5.1
v 3.8 2 -2.9
v 3.8 2 -3
v 3.8 2 -5
v 3.8 2 -5.1
v 3.8 2.8 -2.9
v 3.8 2.8 -3
v 3.8 2.8 -5
v 3.8 2.8 -5.1
v 3.9 6.8 -3.7
v 3.9 6.8 -3.9
v 3.9 6.8 -4.1
v 3.9 6.8 -4.3
v 3.9 7 -3.7
v 3.9 7 -3.9
v 3.9 7 -4.1
v 3.9 7 -4.3
v 4.3 5.1 -3.7
v 4.3 5.1 -4.3
v 4.3 5.9 -3.7
v 4.3 5.9 -4.3
v 4.3 6.1 -3.7
v 4.3 6.1 -4.3
v 4.3 6.6 -3.7
v 4.3 6.6 -4.3
v 4.3 6.8 -3.7
v 4.3 6.8 -3.9
v 4.3 6.8 -4.1
v 4.3 6.8 -4.3
v 4.3 7 -3.7
v 4.3 7 -3.9
v 4.3 7 -4.1
v 4.3 7 -4.3
v 4.4 3.2 -3.5
v 4.4 3.2 -3.6
v 4.4 3.2 -4.4
v 4.4 3.2 -4.5
v 4.4 4 -3.5
v 4.4 4 -3.6
v 4.4 4 -4.4
v 4.4 4 -4.5
v 4.4 4.1 -3.6
v 4.4 4.1 -3.7
v 4.4 4.1 -4.3
v 4.4 4.1 -4.4
v 4.4 5 -3.6
v 4.4 5 -3.7
v 4.4 5 -4.3
v 4.4 5 -4.4
v 4.4 5.1 -3.6
v 4.4 5.1 -4.4
v 4.4 6.6 -3.6
v 4.4 6.6 -4.4
v 4.4 6.8 -3.6
v 4.4 6.8 -4.4
v 4.5 3.2 -3.6
v 4.5 3.2 -4.4
v 4.5 4 -3.6
v 4.5 4 -4.4
v 4.5 5.9 -3.5
v 4.5 5.9 -4.5
v 4.5 6.1 -3.5
v 4.5 6.1 -4.5
v 4.7 3 -3.3
v 4.7 3 -4.7
v 4.7 3.2 -3.3
v 4.7 3.2 -4.7
v 4.9 2 -3.8
v 4.9 2 -4.2
v 4.9 2.8 -3.2
v 4.9 2.8 -3.8
v 4.9 2.8 -4.2
v 4.9 2.8 -4.8
v 4.9 3 -3.2
v 4.9 3 -4.8
v 5 2.8 -3
v 5 2.8 -3.2
v 5 2.8 -4.8
v 5 2.8 -5
v 5 3 -3
v 5 3 -3.2
v 5 3 -4.8
v 5 3 -5
v 5.1 2 -2.9
v 5.1 2 -3.8
v 5.1 2 -4.2
v 5.1 2 -5.1
v 5.1 2.2 -3.4
v 5.1 2.2 -3.6
v 5.1 2.2 -4.4
v 5.1 2.2 -4.6
v 5.1 2.6 -3.2
v 5.1 2.6 -3.4
v 5.1 2.6 -3.6
v 5.1 2.6 -4.4
v 5.1 2.6 -4.6
v 5.1 2.6 -4.8
v 5.1 2.8 -2.9
v 5.1 2.8 -3.2
v 5.1 2.8 -3.4
v 5.1 2.8 -3.8
v 5.1 2.8 -4.2
v 5.1 2.8 -4.6
v 5.1 2.8 -4.8
v 5.1 2.8 -5.1
v 2.9 2 -2.9
v 2.9 2.8 -2.9
v 3.2 2.6 -2.9
v 3.2 2.8 -2.9
v 3.4 2.2 -2.9
v 3.4 2.6 -2.9
v 3.4 2.8 -2.9
v 3.6 2.2 -2.9
v 3.6 2.6 -2.9
v 3.8 2 -2.9
v 3.8 2.8 -2.9
v 4.2 2 -2.9
v 4.2 2.8 -2.9
v 4.4 2.2 -2.9
v 4.4 2.6 -2.9
v 4.6 2.2 -2.9
v 4.6 2.6 -2.9
v 4.6 2.8 -2.9
v 4.8 2.6 -2.9
v 4.8 2.8 -2.9
v 5.1 2 -2.9
v 5.1 2.8 -2.9
v 3 2.8 -3
v 3 3 -3
v 3.2 2.8 -3
v 3.2 3 -3
v 3.4 2.8 -3
v 3.8 2 -3
v 3.8 2.8 -3
v 4.2 2 -3
v 4.2 2.8 -3
v 4.6 2.8 -3
v 4.8 2.8 -3
v 4.8 3 -3
v 5 2.8 -3
v 5 3 -3
v 3.3 3 -3.3
v 3.3 3.2 -3.3
v 4.7 3 -3.3
v 4.7 3.2 -3.3
v 3.5 5.9 -3.5
v 3.5 6.1 -3.5
v 3.6 3.2 -3.5
v 3.6 4 -3.5
v 4.4 3.2 -3.5
v 4.4 4 -3.5
v 4.5 5.9 -3.5
v 4.5 6.1 -3.5
v 3.5 3.2 -3.6
v 3.5 4 -3.6
v 3.6 3.2 -3.6
v 3.6 4 -3.6
v 3.6 4.1 -3.6
v 3.6 5 -3.6
v 3.6 5.1 -3.6
v 3.6 6.6 -3.6
v 3.6 6.8 -3.6
v 3.8 4.1 -3.6
v 3.8 4.2 -3.6
v 3.8 4.8 -3.6
v 3.9 4.2 -3.6
v 3.9 4.3 -3.6
v 4.1 4.2 -3.6
v 4.1 4.3 -3.6
v 4.2 4.1 -3.6
v 4.2 4.2 -3.6
v 4.2 4.8 -3.6
v 4.4 3.2 -3.6
v 4.4 4 -3.6
v 4.4 4.1 -3.6
v 4.4 5 -3.6
v 4.4 5.1 -3.6
v 4.4 6.6 -3.6
v 4.4 6.8 -3.6
v 4.5 3.2 -3.6
v 4.5 4 -3.6
v 3.7 5.1 -3.7
v 3.7 5.9 -3.7
v 3.7 6.1 -3.7
v 3.7 6.6 -3.7
v 3.7 6.8 -3.7
v 3.7 7 -3.7
v 3.9 6.8 -3.7
v 3.9 7 -3.7
v 4.1 6.8 -3.7
v 4.1 7 -3.7
v 4.3 5.1 -3.7
v 4.3 5.9 -3.7
v 4.3 6.1 -3.7
v 4.3 6.6 -3.7
v 4.3 6.8 -3.7
v 4.3 7 -3.7
v 3.7 6.8 -4.1
v 3.7 7 -4.1
v 3.9 6.8 -4.1
v 3.9 7 -4.1
v 4.1 6.8 -4.1
v 4.1 7 -4.1
v 4.3 6.8 -4.1
v 4.3 7 -4.1
v 2.9 2 -4.2
v 2.9 2.8 -4.2
v 3.1 2 -4.2
v 3.1 2.8 -4.2
v 4.9 2 -4.2
v 4.9 2.8 -4.2
v 5.1 2 -4.2
v 5.1 2.8 -4.2
v 3 2.8 -4.8
v 3 3 -4.8
v 3.1 2.8 -4.8
v 3.1 3 -4.8
v 4.9 2.8 -4.8
v 4.9 3 -4.8
v 5 2.8 -4.8
v 5 3 -4.8
v 3 2.8 -3.2
v 3 3 -3.2
v 3.1 2.8 -3.2
v 3.1 3 -3.2
v 4.9 2.8 -3.2
v 4.9 3 -3.2
v 5 2.8 -3.2
v 5 3 -3.2
v 2.9 2 -3.8
v 2.9 2.8 -3.8
v 3.1 2 -3.8
v 3.1 2.8 -3.8
v 4.9 2 -3.8
v 4.9 2.8 -3.8
v 5.1 2 -3.8
v 5.1 2.8 -3.8
v 3.7 6.8 -3.9
v 3.7 7 -3.9
v 3.9 6.8 -3.9
v 3.9 7 -3.9
v 4.1 6.8 -3.9
v 4.1 7 -3.9
v 4.3 6.8 -3.9
v 4.3 7 -3.9
v 3.7 5.1 -4.3
v 3.7 5.9 -4.3
v 3.7 6.1 -4.3
v 3.7 6.6 -4.3
v 3.7 6.8 -4.3
v 3.7 7 -4.3
v 3.9 6.8 -4.3
v 3.9 7 -4.3
v 4.1 6.8 -4.3
v 4.1 7 -4.3
v 4.3 5.1 -4.3
v 4.3 5.9 -4.3
v 4.3 6.1 -4.3
v 4.3 6.6 -4.3
v 4.3 6.8 -4.3
v 4.3 7 -4.3
v 3.5 3.2 -4.4
v 3.5 4 -4.4
v 3.6 3.2 -4.4
v 3.6 4 -4.4
v 3.6 4.1 -4.4
v 3.6 5 -4.4
v 3.6 5.1 -4.4
v 3.6 6.6 -4.4
v 3.6 6.8 -4.4
v 3.8 4.1 -4.4
v 3.8 4.2 -4.4
v 3.8 4.8 -4.4
v 3.9 4.2 -4.4
v 3.9 4.3 -4.4
v 4.1 4.2 -4.4
v 4.1 4.3 -4.4
v 4.2 4.1 -4.4
v 4.2 4.2 -4.4
v 4.2 4.8 -4.4
v 4.4 3.2 -4.4
v 4.4 4 -4.4
v 4.4 4.1 -4.4
v 4.4 5 -4.4
v 4.4 5.1 -4.4
v 4.4 6.6 -4.4
v 4.4 6.8 -4.4
v 4.5 3.2 -4.4
v 4.5 4 -4.4
v 3.5 5.9 -4.5
v 3.5 6.1 -4.5
v 3.6 3.2 -4.5
v 3.6 4 -4.5
v 4.4 3.2 -4.5
v 4.4 4 -4.5
v 4.5 5.9 -4.5
v 4.5 6.1 -4.5
v 3.3 3 -4.7
v 3.3 3.2 -4.7
v 4.7 3 -4.7
v 4.7 3.2 -4.7
v 3 2.8 -5
v 3 3 -5
v 3.2 2.8 -5
v 3.2 3 -5
v 3.4 2.8 -5
v 3.8 2 -5
v 3.8 2.8 -5
v 4.2 2 -5
v 4.2 2.8 -5
v 4.6 2.8 -5
v 4.8 2.8 -5
v 4.8 3 -5
v 5 2.8 -5
v 5 3 -5
v 2.9 2 -5.1
v 2.9 2.8 -5.1
v 3.2 2.6 -5.1
v 3.2 2.8 -5.1
v 3.4 2.2 -5.1
v 3.4 2.6 -5.1
v 3.4 2.8 -5.1
v 3.6 2.2 -5.1
v 3.6 2.6 -5.1
v 3.8 2 -5.1
v 3.8 2.8 -5.1
v 4.2 2 -5.1
v 4.2 2.8 -5.1
v 4.4 2.2 -5.1
v 4.4 2.6 -5.1
v 4.6 2.2 -5.1
v 4.6 2.6 -5.1
v 4.6 2.8 -5.1
v 4.8 2.6 -5.1
v 4.8 2.8 -5.1
v 5.1 2 -5.1
v 5.1 2.8 -5.1
v 2.9 2 -2.9
v 3.8 2 -2.9
v 4.2 2 -2.9
v 5.1 2 -2.9
v 3.8 2 -3
v 4.2 2 -3
v 2.9 2 -3.8
v 3.1 2 -3.8
v 4.9 2 -3.8
v 5.1 2 -3.8
v 2.9 2 -4.2
v 3.1 2 -4.2
v 4.9 2 -4.2
v 5.1 2 -4.2
v 3.8 2 -5
v 4.2 2 -5
v 2.9 2 -5.1
v 3.8 2 -5.1
v 4.2 2 -5.1
v 5.1 2 -5.1
v 3.5 5.9 -3.5
v 4.5 5.9 -3.5
v 3.7 5.9 -3.7
v 4.3 5.9 -3.7
v 3.7 5.9 -4.3
v 4.3 5.9 -4.3
v 3.5 5.9 -4.5
v 4.5 5.9 -4.5
v 3.6 6.6 -3.6
v 4.4 6.6 -3.6
v 3.7 6.6 -3.7
v 4.3 6.6 -3.7
v 3.7 6.6 -4.3
v 4.3 6.6 -4.3
v 3.6 6.6 -4.4
v 4.4 6.6 -4.4
v 2.9 2.8 -2.9
v 3.2 2.8 -2.9
v 3.4 2.8 -2.9
v 3.8 2.8 -2.9
v 4.2 2.8 -2.9
v 4.6 2.8 -2.9
v 4.8 2.8 -2.9
v 5.1 2.8 -2.9
v 3 2.8 -3
v 3.2 2.8 -3
v 3.4 2.8 -3
v 3.8 2.8 -3
v 4.2 2.8 -3
v 4.6 2.8 -3
v 4.8 2.8 -3
v 5 2.8 -3
v 2.9 2.8 -3.2
v 3 2.8 -3.2
v 3.1 2.8 -3.2
v 4.9 2.8 -3.2
v 5 2.8 -3.2
v 5.1 2.8 -3.2
v 2.9 2.8 -3.4
v 3 2.8 -3.4
v 5 2.8 -3.4
v 5.1 2.8 -3.4
v 2.9 2.8 -3.8
v 3.1 2.8 -3.8
v 4.9 2.8 -3.8
v 5.1 2.8 -3.8
v 2.9 2.8 -4.2
v 3.1 2.8 -4.2
v 4.9 2.8 -4.2
v 5.1 2.8 -4.2
v 2.9 2.8 -4.6
v 3 2.8 -4.6
v 5 2.8 -4.6
v 5.1 2.8 -4.6
v 2.9 2.8 -4.8
v 3 2.8 -4.8
v 3.1 2.8 -4.8
v 4.9 2.8 -4.8
v 5 2.8 -4.8
v 5.1 2.8 -4.8
v 3 2.8 -5
v 3.2 2.8 -5
v 3.4 2.8 -5
v 3.8 2.8 -5
v 4.2 2.8 -5
v 4.6 2.8 -5
v 4.8 2.8 -5
v 5 2.8 -5
v 2.9 2.8 -5.1
v 3.2 2.8 -5.1
v 3.4 2.8 -5.1
v 3.8 2.8 -5.1
v 4.2 2.8 -5.1
v 4.6 2.8 -5.1
v 4.8 2.8 -5.1
v 5.1 2.8 -5.1
v 3 3 -3
v 3.2 3 -3
v 4.8 3 -3
v 5 3 -3
v 3 3 -3.2
v 3.1 3 -3.2
v 3.2 3 -3.2
v 4.8 3 -3.2
v 4.9 3 -3.2
v 5 3 -3.2
v 3.3 3 -3.3
v 4.7 3 -3.3
v 3.3 3 -4.7
v 4.7 3 -4.7
v 3 3 -4.8
v 3.1 3 -4.8
v 3.2 3 -4.8
v 4.8 3 -4.8
v 4.9 3 -4.8
v 5 3 -4.8
v 3 3 -5
v 3.2 3 -5
v 4.8 3 -5
v 5 3 -5
v 3.3 3.2 -3.3
v 4.7 3.2 -3.3
v 3.6 3.2 -3.5
v 4.4 3.2 -3.5
v 3.5 3.2 -3.6
v 3.6 3.2 -3.6
v 4.4 3.2 -3.6
v 4.5 3.2 -3.6
v 3.5 3.2 -4.4
v 3.6 3.2 -4.4
v 4.4 3.2 -4.4
v 4.5 3.2 -4.4
v 3.6 3.2 -4.5
v 4.4 3.2 -4.5
v 3.3 3.2 -4.7
v 4.7 3.2 -4.7
v 3.6 4 -3.5
v 4.4 4 -3.5
v 3.5 4 -3.6
v 3.6 4 -3.6
v 4.4 4 -3.6
v 4.5 4 -3.6
v 3.5 4 -4.4
v 3.6 4 -4.4
v 4.4 4 -4.4
v 4.5 4 -4.4
v 3.6 4 -4.5
v 4.4 4 -4.5
v 3.6 5.1 -3.6
v 4.4 5.1 -3.6
v 3.7 5.1 -3.7
v 4.3 5.1 -3.7
v 3.7 5.1 -4.3
v 4.3 5.1 -4.3
v 3.6 5.1 -4.4
v 4.4 5.1 -4.4
v 3.5 6.1 -3.5
v 4.5 6.1 -3.5
v 3.7 6.1 -3.7
v 4.3 6.1 -3.7
v 3.7 6.1 -4.3
v 4.3 6.1 -4.3
v 3.5 6.1 -4.5
v 4.5 6.1 -4.5
v 3.6 6.8 -3.6
v 4.4 6.8 -3.6
v 3.7 6.8 -3.7
v 3.9 6.8 -3.7
v 4.1 6.8 -3.7
v 4.3 6.8 -3.7
v 3.7 6.8 -3.9
v 3.9 6.8 -3.9
v 4.1 6.8 -3.9
v 4.3 6.8 -3.9
v 3.7 6.8 -4.1
v 3.9 6.8 -4.1
v 4.1 6.8 -4.1
v 4.3 6.8 -4.1
v 3.7 6.8 -4.3
v 3.9 6.8 -4.3
v 4.1 6.8 -4.3
v 4.3 6.8 -4.3
v 3.6 6.8 -4.4
v 4.4 6.8 -4.4
v 3.7 7 -3.7
v 3.9 7 -3.7
v 4.1 7 -3.7
v 4.3 7 -3.7
v 3.7 7 -3.9
v 3.9 7 -3.9
v 4.1 7 -3.9
v 4.3 7 -3.9
v 3.7 7 -4.1
v 3.9 7 -4.1
v 4.1 7 -4.1
v 4.3 7 -4.1
v 3.7 7 -4.3
v 3.9 7 -4.3
v 4.1 7 -4.3
v 4.3 7 -4.3

# faces
f 5/4/1 2/4/1 1/4/1
f 6/4/1 2/4/1 5/4/1
f 7/4/1 4/4/1 3/4/1
f 8/4/1 4/4/1 7/4/1
f 9/4/1 5/4/1 1/4/1
f 10/2/1 6/2/1 5/2/1
f 10/4/1 5/4/1 9/4/1
f 11/4/1 2/4/1 6/4/1
f 11/2/1 6/2/1 10/2/1
f 12/4/1 7/4/1 3/4/1
f 12/2/1 8/2/1 7/2/1
f 13/4/1 4/4/1 8/4/1
f 13/2/1 8/2/1 12/2/1
f 14/4/1 4/4/1 13/4/1
f 15/4/1 9/4/1 1/4/1
f 16/2/1 10/2/1 9/2/1
f 16/4/1 9/4/1 15/4/1
f 17/4/1 11/4/1 10/4/1
f 17/2/1 10/2/1 16/2/1
f 18/4/1 2/4/1 11/4/1
f 18/4/1 11/4/1 17/4/1
f 19/4/1 12/4/1 3/4/1
f 19/4/1 13/4/1 12/4/1
f 20/2/1 14/2/1 13/2/1
f 20/4/1 13/4/1 19/4/1
f 21/4/1 4/4/1 14/4/1
f 21/2/1 14/2/1 20/2/1
f 22/4/1 4/4/1 21/4/1
f 27/2/1 24/2/1 23/2/1
f 28/2/1 24/2/1 27/2/1
f 29/2/1 26/2/1 25/2/1
f 30/2/1 26/2/1 29/2/1
f 34/4/1 32/4/1 31/4/1
f 35/4/1 32/4/1 34/4/1
f 37/4/1 34/4/1 33/4/1
f 37/4/1 36/4/1 35/4/1
f 37/4/1 35/4/1 34/4/1
f 38/4/1 36/4/1 37/4/1
f 41/4/1 40/4/1 39/4/1
f 42/4/1 40/4/1 41/4/1
f 45/4/1 44/4/1 43/4/1
f 46/4/1 44/4/1 45/4/1
f 49/4/1 48/4/1 47/4/1
f 50/4/1 48/4/1 49/4/1
f 55/4/1 52/4/1 51/4/1
f 56/4/1 52/4/1 55/4/1
f 57/4/1 54/4/1 53/4/1
f 58/4/1 54/4/1 57/4/1
f 59/4/1 57/4/1 56/4/1
f 60/4/1 57/4/1 59/4/1
f 61/4/1 57/4/1 60/4/1
f 62/4/1 57/4/1 61/4/1
f 63/5/1 60/5/1 59/5/1
f 64/4/1 61/4/1 60/4/1
f 64/5/1 60/5/1 63/5/1
f 65/5/1 62/5/1 61/5/1
f 65/4/1 61/4/1 64/4/1
f 66/5/1 62/5/1 65/5/1
f 67/4/1 64/4/1 63/4/1
f 67/4/1 65/4/1 64/4/1
f 67/4/1 66/4/1 65/4/1
f 68/4/1 66/4/1 67/4/1
f 71/4/1 70/4/1 69/4/1
f 72/4/1 70/4/1 71/4/1
f 75/4/1 74/4/1 73/4/1
f 76/4/1 74/4/1 75/4/1
f 79/4/1 78/4/1 77/4/1
f 80/4/1 78/4/1 79/4/1
f 85/4/1 82/4/1 81/4/1
f 86/4/1 82/4/1 85/4/1
f 87/4/1 84/4/1 83/4/1
f 88/4/1 84/4/1 87/4/1
f 93/4/1 90/4/1 89/4/1
f 94/4/1 90/4/1 93/4/1
f 95/4/1 92/4/1 91/4/1
f 96/4/1 92/4/1 95/4/1
f 101/4/1 98/4/1 97/4/1
f 102/4/1 98/4/1 101/4/1
f 103/4/1 100/4/1 99/4/1
f 104/4/1 100/4/1 103/4/1
f 105/4/2 106/4/2 109/4/2
f 109/4/2 106/4/2 110/4/2
f 107/4/2 108/4/2 111/4/2
f 111/4/2 108/4/2 112/4/2
f 113/4/2 114/4/2 117/4/2
f 117/4/2 114/4/2 118/4/2
f 115/4/2 116/4/2 119/4/2
f 119/4/2 116/4/2 120/4/2
f 121/4/2 122/4/2 123/4/2
f 123/4/2 122/4/2 124/4/2
f 125/4/2 126/4/2 127/4/2
f 127/4/2 126/4/2 128/4/2
f 129/4/2 130/4/2 133/4/2
f 133/4/2 130/4/2 134/4/2
f 131/4/2 132/4/2 135/4/2
f 135/4/2 132/4/2 136/4/2
f 137/4/2 138/4/2 141/4/2
f 141/4/2 138/4/2 142/4/2
f 139/4/2 140/4/2 143/4/2
f 143/4/2 140/4/2 144/4/2
f 142/4/2 143/4/2 145/4/2
f 145/4/2 143/4/2 146/4/2
f 146/4/2 143/4/2 147/4/2
f 147/4/2 143/4/2 148/4/2
f 145/5/2 146/5/2 149/5/2
f 146/4/2 147/4/2 150/4/2
f 149/5/2 146/5/2 150/5/2
f 147/5/2 148/5/2 151/5/2
f 150/4/2 147/4/2 151/4/2
f 151/5/2 148/5/2 152/5/2
f 149/4/2 150/4/2 153/4/2
f 150/4/2 151/4/2 153/4/2
f 151/4/2 152/4/2 153/4/2
f 153/4/2 152/4/2 154/4/2
f 155/4/2 156/4/2 157/4/2
f 157/4/2 156/4/2 158/4/2
f 159/4/2 160/4/2 161/4/2
f 161/4/2 160/4/2 162/4/2
f 163/4/2 164/4/2 165/4/2
f 165/4/2 164/4/2 166/4/2
f 167/4/2 168/4/2 169/4/2
f 169/4/2 168/4/2 170/4/2
f 171/4/2 172/4/2 174/4/2
f 174/4/2 172/4/2 175/4/2
f 173/4/2 174/4/2 177/4/2
f 175/4/2 176/4/2 177/4/2
f 174/4/2 175/4/2 177/4/2
f 177/4/2 176/4/2 178/4/2
f 179/2/2 180/2/2 183/2/2
f 183/2/2 180/2/2 184/2/2
f 181/2/2 182/2/2 185/2/2
f 185/2/2 182/2/2 186/2/2
f 187/4/2 188/4/2 191/4/2
f 191/4/2 188/4/2 192/4/2
f 189/4/2 190/4/2 193/4/2
f 193/4/2 190/4/2 194/4/2
f 187/4/2 191/4/2 195/4/2
f 191/2/2 192/2/2 196/2/2
f 195/4/2 191/4/2 196/4/2
f 192/4/2 188/4/2 197/4/2
f 196/2/2 192/2/2 197/2/2
f 189/4/2 193/4/2 198/4/2
f 193/2/2 194/2/2 198/2/2
f 194/4/2 190/4/2 199/4/2
f 198/2/2 194/2/2 199/2/2
f 199/4/2 190/4/2 200/4/2
f 187/4/2 195/4/2 201/4/2
f 195/2/2 196/2/2 202/2/2
f 201/4/2 195/4/2 202/4/2
f 196/4/2 197/4/2 203/4/2
f 202/2/2 196/2/2 203/2/2
f 197/4/2 188/4/2 204/4/2
f 203/4/2 197/4/2 204/4/2
f 189/4/2 198/4/2 205/4/2
f 198/4/2 199/4/2 205/4/2
f 199/2/2 200/2/2 206/2/2
f 205/4/2 199/4/2 206/4/2
f 200/4/2 190/4/2 207/4/2
f 206/2/2 200/2/2 207/2/2
f 207/4/2 190/4/2 208/4/2
f 211/4/3 210/4/3 209/4/3
f 212/4/3 210/4/3 211/4/3
f 213/4/3 211/4/3 209/4/3
f 214/2/3 212/2/3 211/2/3
f 214/4/3 211/4/3 213/4/3
f 215/2/3 212/2/3 214/2/3
f 216/4/3 213/4/3 209/4/3
f 216/2/3 214/2/3 213/2/3
f 217/4/3 215/4/3 214/4/3
f 217/2/3 214/2/3 216/2/3
f 218/4/3 216/4/3 209/4/3
f 218/4/3 217/4/3 216/4/3
f 219/4/3 215/4/3 217/4/3
f 219/4/3 217/4/3 218/4/3
f 222/4/3 221/4/3 220/4/3
f 223/4/3 221/4/3 222/4/3
f 224/4/3 222/4/3 220/4/3
f 224/2/3 223/2/3 222/2/3
f 225/4/3 221/4/3 223/4/3
f 225/2/3 223/2/3 224/2/3
f 226/4/3 221/4/3 225/4/3
f 227/4/3 225/4/3 224/4/3
f 227/2/3 226/2/3 225/2/3
f 228/2/3 226/2/3 227/2/3
f 229/4/3 224/4/3 220/4/3
f 229/4/3 227/4/3 224/4/3
f 229/4/3 228/4/3 227/4/3
f 230/4/3 228/4/3 229/4/3
f 233/2/3 232/2/3 231/2/3
f 234/2/3 232/2/3 233/2/3
f 235/4/3 234/4/3 233/4/3
f 237/4/3 234/4/3 235/4/3
f 238/4/3 237/4/3 236/4/3
f 239/4/3 234/4/3 237/4/3
f 239/4/3 237/4/3 238/4/3
f 240/4/3 234/4/3 239/4/3
f 241/4/3 234/4/3 240/4/3
f 242/4/3 234/4/3 241/4/3
f 243/2/3 242/2/3 241/2/3
f 244/2/3 242/2/3 243/2/3
f 247/4/3 246/4/3 245/4/3
f 248/4/3 246/4/3 247/4/3
f 253/4/3 252/4/3 251/4/3
f 254/4/3 252/4/3 253/4/3
f 255/4/3 250/4/3 249/4/3
f 256/4/3 250/4/3 255/4/3
f 259/4/3 258/4/3 257/4/3
f 260/4/3 258/4/3 259/4/3
f 266/4/3 261/4/3 260/4/3
f 266/5/3 262/5/3 261/5/3
f 267/5/3 262/5/3 266/5/3
f 268/5/3 262/5/3 267/5/3
f 269/4/3 267/4/3 266/4/3
f 269/2/3 268/2/3 267/2/3
f 270/2/3 268/2/3 269/2/3
f 271/4/3 269/4/3 266/4/3
f 271/4/3 270/4/3 269/4/3
f 272/2/3 268/2/3 270/2/3
f 272/4/3 270/4/3 271/4/3
f 273/4/3 266/4/3 260/4/3
f 273/4/3 271/4/3 266/4/3
f 274/2/3 272/2/3 271/2/3
f 274/4/3 271/4/3 273/4/3
f 275/2/3 268/2/3 272/2/3
f 275/2/3 272/2/3 274/2/3
f 275/5/3 262/5/3 268/5/3
f 277/4/3 273/4/3 260/4/3
f 278/5/3 274/5/3 273/5/3
f 278/5/3 275/5/3 274/5/3
f 278/4/3 273/4/3 277/4/3
f 279/4/3 263/4/3 262/4/3
f 279/5/3 275/5/3 278/5/3
f 279/5/3 262/5/3 275/5/3
f 280/4/3 263/4/3 279/4/3
f 281/4/3 265/4/3 264/4/3
f 282/4/3 265/4/3 281/4/3
f 283/4/3 277/4/3 276/4/3
f 284/4/3 277/4/3 283/4/3
f 291/4/3 290/4/3 289/4/3
f 292/4/3 290/4/3 291/4/3
f 295/4/3 286/4/3 285/4/3
f 296/4/3 286/4/3 295/4/3
f 297/4/3 288/4/3 287/4/3
f 298/4/3 288/4/3 297/4/3
f 299/4/3 294/4/3 293/4/3
f 300/4/3 294/4/3 299/4/3
f 303/4/3 302/4/3 301/4/3
f 304/4/3 302/4/3 303/4/3
f 307/4/3 306/4/3 305/4/3
f 308/4/3 306/4/3 307/4/3
f 311/4/3 310/4/3 309/4/3
f 312/4/3 310/4/3 311/4/3
f 315/4/3 314/4/3 313/4/3
f 316/4/3 314/4/3 315/4/3
f 319/2/3 318/2/3 317/2/3
f 320/2/3 318/2/3 319/2/3
f 323/2/3 322/2/3 321/2/3
f 324/2/3 322/2/3 323/2/3
f 325/2/4 326/2/4 327/2/4
f 327/2/4 326/2/4 328/2/4
f 329/2/4 330/2/4 331/2/4
f 331/2/4 330/2/4 332/2/4
f 333/4/4 334/4/4 335/4/4
f 335/4/4 334/4/4 336/4/4
f 337/4/4 338/4/4 339/4/4
f 339/4/4 338/4/4 340/4/4
f 341/4/4 342/4/4 343/4/4
f 343/4/4 342/4/4 344/4/4
f 345/4/4 346/4/4 347/4/4
f 347/4/4 346/4/4 348/4/4
f 353/4/4 354/4/4 355/4/4
f 355/4/4 354/4/4 356/4/4
f 349/4/4 350/4/4 359/4/4
f 359/4/4 350/4/4 360/4/4
f 351/4/4 352/4/4 361/4/4
f 361/4/4 352/4/4 362/4/4
f 357/4/4 358/4/4 363/4/4
f 363/4/4 358/4/4 364/4/4
f 365/4/4 366/4/4 367/4/4
f 367/4/4 366/4/4 368/4/4
f 368/4/4 369/4/4 374/4/4
f 369/5/4 370/5/4 374/5/4
f 374/5/4 370/5/4 375/5/4
f 375/5/4 370/5/4 376/5/4
f 374/4/4 375/4/4 377/4/4
f 375/2/4 376/2/4 377/2/4
f 377/2/4 376/2/4 378/2/4
f 374/4/4 377/4/4 379/4/4
f 377/4/4 378/4/4 379/4/4
f 378/2/4 376/2/4 380/2/4
f 379/4/4 378/4/4 380/4/4
f 368/4/4 374/4/4 381/4/4
f 374/4/4 379/4/4 381/4/4
f 379/2/4 380/2/4 382/2/4
f 381/4/4 379/4/4 382/4/4
f 380/2/4 376/2/4 383/2/4
f 382/2/4 380/2/4 383/2/4
f 376/5/4 370/5/4 383/5/4
f 368/4/4 381/4/4 385/4/4
f 381/5/4 382/5/4 386/5/4
f 382/5/4 383/5/4 386/5/4
f 385/4/4 381/4/4 386/4/4
f 370/4/4 371/4/4 387/4/4
f 386/5/4 383/5/4 387/5/4
f 383/5/4 370/5/4 387/5/4
f 387/4/4 371/4/4 388/4/4
f 372/4/4 373/4/4 389/4/4
f 389/4/4 373/4/4 390/4/4
f 384/4/4 385/4/4 391/4/4
f 391/4/4 385/4/4 392/4/4
f 395/4/4 396/4/4 397/4/4
f 397/4/4 396/4/4 398/4/4
f 393/4/4 394/4/4 399/4/4
f 399/4/4 394/4/4 400/4/4
f 401/4/4 402/4/4 403/4/4
f 403/4/4 402/4/4 404/4/4
f 405/2/4 406/2/4 407/2/4
f 407/2/4 406/2/4 408/2/4
f 407/4/4 408/4/4 409/4/4
f 409/4/4 408/4/4 411/4/4
f 410/4/4 411/4/4 412/4/4
f 411/4/4 408/4/4 413/4/4
f 412/4/4 411/4/4 413/4/4
f 413/4/4 408/4/4 414/4/4
f 414/4/4 408/4/4 415/4/4
f 415/4/4 408/4/4 416/4/4
f 415/2/4 416/2/4 417/2/4
f 417/2/4 416/2/4 418/2/4
f 419/4/4 420/4/4 421/4/4
f 421/4/4 420/4/4 422/4/4
f 419/4/4 421/4/4 423/4/4
f 421/2/4 422/2/4 424/2/4
f 423/4/4 421/4/4 424/4/4
f 424/2/4 422/2/4 425/2/4
f 419/4/4 423/4/4 426/4/4
f 423/2/4 424/2/4 426/2/4
f 424/4/4 425/4/4 427/4/4
f 426/2/4 424/2/4 427/2/4
f 419/4/4 426/4/4 428/4/4
f 426/4/4 427/4/4 428/4/4
f 427/4/4 425/4/4 429/4/4
f 428/4/4 427/4/4 429/4/4
f 430/4/4 431/4/4 432/4/4
f 432/4/4 431/4/4 433/4/4
f 430/4/4 432/4/4 434/4/4
f 432/2/4 433/2/4 434/2/4
f 433/4/4 431/4/4 435/4/4
f 434/2/4 433/2/4 435/2/4
f 435/4/4 431/4/4 436/4/4
f 434/4/4 435/4/4 437/4/4
f 435/2/4 436/2/4 437/2/4
f 437/2/4 436/2/4 438/2/4
f 430/4/4 434/4/4 439/4/4
f 434/4/4 437/4/4 439/4/4
f 437/4/4 438/4/4 439/4/4
f 439/4/4 438/4/4 440/4/4
f 445/4/5 442/4/5 441/4/5
f 446/4/5 444/4/5 443/4/5
f 447/4/5 445/4/5 441/4/5
f 447/4/5 446/4/5 445/4/5
f 448/4/5 446/4/5 447/4/5
f 449/4/5 444/4/5 446/4/5
f 449/4/5 446/4/5 448/4/5
f 450/4/5 444/4/5 449/4/5
f 452/4/5 449/4/5 448/4/5
f 453/4/5 449/4/5 452/4/5
f 455/4/5 452/4/5 451/4/5
f 455/4/5 454/4/5 453/4/5
f 455/4/5 453/4/5 452/4/5
f 456/4/5 454/4/5 455/4/5
f 457/4/5 455/4/5 451/4/5
f 458/4/5 455/4/5 457/4/5
f 459/4/5 454/4/5 456/4/5
f 460/4/5 454/4/5 459/4/5
f 463/4/5 462/4/5 461/4/5
f 464/4/5 462/4/5 463/4/5
f 465/4/5 463/4/5 461/4/5
f 466/4/5 462/4/5 464/4/5
f 467/4/5 465/4/5 461/4/5
f 467/4/5 466/4/5 465/4/5
f 468/4/5 462/4/5 466/4/5
f 468/4/5 466/4/5 467/4/5
f 471/4/5 470/4/5 469/4/5
f 472/4/5 470/4/5 471/4/5
f 473/4/5 471/4/5 469/4/5
f 474/4/5 470/4/5 472/4/5
f 475/4/5 473/4/5 469/4/5
f 475/4/5 474/4/5 473/4/5
f 476/4/5 470/4/5 474/4/5
f 476/4/5 474/4/5 475/4/5
f 477/4/6 478/4/6 485/4/6
f 478/2/6 479/2/6 486/2/6
f 485/4/6 478/4/6 486/4/6
f 479/4/6 480/4/6 487/4/6
f 486/2/6 479/2/6 487/2/6
f 487/4/6 480/4/6 488/4/6
f 481/4/6 482/4/6 489/4/6
f 482/2/6 483/2/6 490/2/6
f 489/4/6 482/4/6 490/4/6
f 483/4/6 484/4/6 491/4/6
f 490/2/6 483/2/6 491/2/6
f 491/4/6 484/4/6 492/4/6
f 477/4/6 485/4/6 493/4/6
f 493/4/6 485/4/6 494/4/6
f 492/4/6 484/4/6 497/4/6
f 497/4/6 484/4/6 498/4/6
f 493/2/6 494/2/6 499/2/6
f 494/4/6 495/4/6 500/4/6
f 499/2/6 494/2/6 500/2/6
f 496/4/6 497/4/6 501/4/6
f 497/2/6 498/2/6 501/2/6
f 501/2/6 498/2/6 502/2/6
f 499/4/6 500/4/6 503/4/6
f 500/4/6 495/4/6 504/4/6
f 503/4/6 500/4/6 504/4/6
f 496/4/6 501/4/6 505/4/6
f 501/4/6 502/4/6 505/4/6
f 505/4/6 502/4/6 506/4/6
f 507/4/6 508/4/6 511/4/6
f 511/4/6 508/4/6 512/4/6
f 509/4/6 510/4/6 513/4/6
f 513/4/6 510/4/6 514/4/6
f 511/2/6 512/2/6 515/2/6
f 512/4/6 508/4/6 516/4/6
f 515/2/6 512/2/6 516/2/6
f 516/4/6 508/4/6 517/4/6
f 509/4/6 513/4/6 518/4/6
f 513/2/6 514/2/6 519/2/6
f 518/4/6 513/4/6 519/4/6
f 519/2/6 514/2/6 520/2/6
f 515/4/6 516/4/6 521/4/6
f 519/4/6 520/4/6 528/4/6
f 515/4/6 521/4/6 529/4/6
f 521/4/6 522/4/6 529/4/6
f 522/2/6 523/2/6 530/2/6
f 529/4/6 522/4/6 530/4/6
f 523/4/6 524/4/6 531/4/6
f 530/2/6 523/2/6 531/2/6
f 531/4/6 524/4/6 532/4/6
f 525/4/6 526/4/6 533/4/6
f 526/2/6 527/2/6 534/2/6
f 533/4/6 526/4/6 534/4/6
f 527/4/6 528/4/6 535/4/6
f 534/2/6 527/2/6 535/2/6
f 528/4/6 520/4/6 536/4/6
f 535/4/6 528/4/6 536/4/6
f 537/2/6 538/2/6 541/2/6
f 541/2/6 538/2/6 542/2/6
f 538/4/6 539/4/6 543/4/6
f 542/2/6 538/2/6 543/2/6
f 539/2/6 540/2/6 544/2/6
f 543/4/6 539/4/6 544/4/6
f 544/2/6 540/2/6 545/2/6
f 545/2/6 540/2/6 546/2/6
f 542/4/6 543/4/6 547/4/6
f 544/4/6 545/4/6 547/4/6
f 543/4/6 544/4/6 547/4/6
f 547/4/6 545/4/6 548/4/6
f 542/4/6 547/4/6 549/4/6
f 548/4/6 545/4/6 550/4/6
f 542/4/6 549/4/6 552/4/6
f 549/4/6 550/4/6 552/4/6
f 552/4/6 550/4/6 553/4/6
f 550/4/6 545/4/6 554/4/6
f 553/4/6 550/4/6 554/4/6
f 554/4/6 545/4/6 555/4/6
f 552/2/6 553/2/6 557/2/6
f 551/2/6 552/2/6 557/2/6
f 553/4/6 554/4/6 558/4/6
f 557/2/6 553/2/6 558/2/6
f 555/2/6 556/2/6 559/2/6
f 558/4/6 554/4/6 559/4/6
f 554/2/6 555/2/6 559/2/6
f 559/2/6 556/2/6 560/2/6
f 561/4/6 562/4/6 563/4/6
f 563/4/6 562/4/6 564/4/6
f 561/4/6 563/4/6 565/4/6
f 565/4/6 563/4/6 566/4/6
f 564/4/6 562/4/6 567/4/6
f 567/4/6 562/4/6 568/4/6
f 561/4/6 565/4/6 569/4/6
f 568/4/6 562/4/6 572/4/6
f 569/4/6 570/4/6 573/4/6
f 571/4/6 572/4/6 574/4/6
f 569/4/6 573/4/6 575/4/6
f 573/4/6 574/4/6 575/4/6
f 561/4/6 569/4/6 575/4/6
f 574/4/6 572/4/6 576/4/6
f 575/4/6 574/4/6 576/4/6
f 572/4/6 562/4/6 576/4/6
f 577/4/6 578/4/6 580/4/6
f 580/4/6 578/4/6 581/4/6
f 579/4/6 580/4/6 583/4/6
f 583/4/6 580/4/6 584/4/6
f 581/4/6 582/4/6 585/4/6
f 585/4/6 582/4/6 586/4/6
f 584/4/6 585/4/6 587/4/6
f 587/4/6 585/4/6 588/4/6
f 589/4/6 590/4/6 591/4/6
f 591/4/6 590/4/6 592/4/6
f 589/4/6 591/4/6 593/4/6
f 592/4/6 590/4/6 594/4/6
f 589/4/6 593/4/6 595/4/6
f 593/4/6 594/4/6 595/4/6
f 594/4/6 590/4/6 596/4/6
f 595/4/6 594/4/6 596/4/6
f 597/4/6 598/4/6 599/4/6
f 599/4/6 598/4/6 600/4/6
f 597/4/6 599/4/6 601/4/6
f 600/4/6 598/4/6 602/4/6
f 597/4/6 601/4/6 603/4/6
f 601/4/6 602/4/6 603/4/6
f 602/4/6 598/4/6 604/4/6
f 603/4/6 602/4/6 604/4/6
f 605/4/6 606/4/6 607/4/6
f 607/4/6 606/4/6 608/4/6
f 608/4/6 606/4/6 609/4/6
f 609/4/6 606/4/6 610/4/6
f 605/4/6 607/4/6 611/4/6
f 608/4/6 609/4/6 612/4/6
f 612/4/6 609/4/6 613/4/6
f 610/4/6 606/4/6 614/4/6
f 612/4/6 613/4/6 615/4/6
f 613/4/6 614/4/6 615/4/6
f 605/4/6 611/4/6 615/4/6
f 611/4/6 612/4/6 615/4/6
f 615/4/6 614/4/6 616/4/6
f 616/4/6 614/4/6 617/4/6
f 614/4/6 606/4/6 618/4/6
f 617/4/6 614/4/6 618/4/6
f 605/4/6 615/4/6 619/4/6
f 616/4/6 617/4/6 620/4/6
f 620/4/6 617/4/6 621/4/6
f 618/4/6 606/4/6 622/4/6
f 605/4/6 619/4/6 623/4/6
f 621/4/6 622/4/6 623/4/6
f 620/4/6 621/4/6 623/4/6
f 619/4/6 620/4/6 623/4/6
f 622/4/6 606/4/6 624/4/6
f 623/4/6 622/4/6 624/4/6
f 625/4/6 626/4/6 629/4/6
f 629/4/6 626/4/6 630/4/6
f 627/4/6 628/4/6 631/4/6
f 631/4/6 628/4/6 632/4/6
f 633/4/6 634/4/6 637/4/6
f 637/4/6 634/4/6 638/4/6
f 635/4/6 636/4/6 639/4/6
f 639/4/6 636/4/6 640/4/6
