# MagicaVoxel @ Ephtracy

# group
o 

# material
mtllib crossbow.blue.mtl
usemtl palette

# normals
vn -1 0 0
vn 1 0 0
vn 0 0 1
vn 0 0 -1
vn 0 -1 0
vn 0 1 0

# texcoords
vt 0.306641 0.5
vt 0.810547 0.5
vt 0.861328 0.5
vt 0.986328 0.5
vt 0.990234 0.5
vt 0.994141 0.5

# verts
v 1.4 2 -1.5
v 1.4 2 -2.5
v 1.4 2.1 -1.8
v 1.4 2.1 -1.9
v 1.4 2.1 -2.1
v 1.4 2.1 -2.2
v 1.4 2.4 -1.5
v 1.4 2.4 -1.8
v 1.4 2.4 -1.9
v 1.4 2.4 -2.1
v 1.4 2.4 -2.2
v 1.4 2.4 -2.5
v 1.5 2 -1.4
v 1.5 2 -1.5
v 1.5 2 -2.5
v 1.5 2 -2.6
v 1.5 2.4 -1.4
v 1.5 2.4 -1.5
v 1.5 2.4 -2.5
v 1.5 2.4 -2.6
v 1.6 2.4 -1.6
v 1.6 2.4 -1.8
v 1.6 2.4 -1.9
v 1.6 2.4 -2.1
v 1.6 2.4 -2.2
v 1.6 2.4 -2.4
v 1.6 2.5 -1.6
v 1.6 2.5 -2.4
v 1.6 2.6 -1.6
v 1.6 2.6 -2.4
v 1.6 2.7 -1.6
v 1.6 2.7 -2.4
v 1.6 2.8 -1.6
v 1.6 2.8 -2.4
v 1.6 2.9 -1.6
v 1.6 2.9 -2.4
v 1.6 3 -1.6
v 1.6 3 -2.4
v 1.6 3.1 -1.6
v 1.6 3.1 -2.4
v 1.6 3.7 -1.6
v 1.6 3.7 -2.4
v 1.6 3.9 -1.6
v 1.6 3.9 -2.4
v 1.7 2.4 -1.5
v 1.7 2.4 -1.6
v 1.7 2.5 -1.6
v 1.7 2.5 -2.3
v 1.7 2.5 -2.4
v 1.7 2.6 -1.6
v 1.7 2.6 -2.3
v 1.7 2.6 -2.4
v 1.7 2.7 -1.6
v 1.7 2.7 -2.3
v 1.7 2.7 -2.4
v 1.7 2.8 -1.6
v 1.7 2.8 -2.3
v 1.7 2.8 -2.4
v 1.7 2.9 -1.6
v 1.7 2.9 -2.3
v 1.7 2.9 -2.4
v 1.7 3 -1.6
v 1.7 3 -2.3
v 1.7 3 -2.4
v 1.7 3.1 -1.6
v 1.7 3.1 -1.7
v 1.7 3.1 -2.3
v 1.7 3.4 -1.5
v 1.7 3.4 -1.6
v 1.7 3.7 -1.7
v 1.7 3.7 -2.3
v 1.7 3.9 -1.6
v 1.7 3.9 -2.4
v 1.7 4 -1.6
v 1.7 4 -2.4
v 2.2 2.4 -1.5
v 2.2 2.4 -1.6
v 2.2 3.1 -1.6
v 2.2 3.4 -1.5
v 2.2 3.4 -1.6
v 2.2 3.9 -1.6
v 2.2 3.9 -2.4
v 2.2 4 -1.6
v 2.2 4 -2.4
v 1.8 2.4 -1.5
v 1.8 2.4 -1.6
v 1.8 3.1 -1.6
v 1.8 3.4 -1.5
v 1.8 3.4 -1.6
v 1.8 3.9 -1.6
v 1.8 3.9 -2.4
v 1.8 4 -1.6
v 1.8 4 -2.4
v 2.3 2.4 -1.5
v 2.3 2.4 -1.6
v 2.3 2.5 -1.6
v 2.3 2.5 -2.3
v 2.3 2.5 -2.4
v 2.3 2.6 -1.6
v 2.3 2.6 -2.3
v 2.3 2.6 -2.4
v 2.3 2.7 -1.6
v 2.3 2.7 -2.3
v 2.3 2.7 -2.4
v 2.3 2.8 -1.6
v 2.3 2.8 -2.3
v 2.3 2.8 -2.4
v 2.3 2.9 -1.6
v 2.3 2.9 -2.3
v 2.3 2.9 -2.4
v 2.3 3 -1.6
v 2.3 3 -2.3
v 2.3 3 -2.4
v 2.3 3.1 -1.6
v 2.3 3.1 -1.7
v 2.3 3.1 -2.3
v 2.3 3.4 -1.5
v 2.3 3.4 -1.6
v 2.3 3.7 -1.7
v 2.3 3.7 -2.3
v 2.3 3.9 -1.6
v 2.3 3.9 -2.4
v 2.3 4 -1.6
v 2.3 4 -2.4
v 2.4 2.4 -1.6
v 2.4 2.4 -1.8
v 2.4 2.4 -1.9
v 2.4 2.4 -2.1
v 2.4 2.4 -2.2
v 2.4 2.4 -2.4
v 2.4 2.5 -1.6
v 2.4 2.5 -2.4
v 2.4 2.6 -1.6
v 2.4 2.6 -2.4
v 2.4 2.7 -1.6
v 2.4 2.7 -2.4
v 2.4 2.8 -1.6
v 2.4 2.8 -2.4
v 2.4 2.9 -1.6
v 2.4 2.9 -2.4
v 2.4 3 -1.6
v 2.4 3 -2.4
v 2.4 3.1 -1.6
v 2.4 3.1 -2.4
v 2.4 3.7 -1.6
v 2.4 3.7 -2.4
v 2.4 3.9 -1.6
v 2.4 3.9 -2.4
v 2.5 2 -1.4
v 2.5 2 -1.5
v 2.5 2 -2.5
v 2.5 2 -2.6
v 2.5 2.4 -1.4
v 2.5 2.4 -1.5
v 2.5 2.4 -2.5
v 2.5 2.4 -2.6
v 2.6 2 -1.5
v 2.6 2 -2.5
v 2.6 2.1 -1.8
v 2.6 2.1 -1.9
v 2.6 2.1 -2.1
v 2.6 2.1 -2.2
v 2.6 2.4 -1.5
v 2.6 2.4 -1.8
v 2.6 2.4 -1.9
v 2.6 2.4 -2.1
v 2.6 2.4 -2.2
v 2.6 2.4 -2.5
v 1.5 2 -1.4
v 1.5 2.4 -1.4
v 1.8 2.1 -1.4
v 1.8 2.4 -1.4
v 1.9 2.1 -1.4
v 1.9 2.4 -1.4
v 2.1 2.1 -1.4
v 2.1 2.4 -1.4
v 2.2 2.1 -1.4
v 2.2 2.4 -1.4
v 2.5 2 -1.4
v 2.5 2.4 -1.4
v 1.4 2 -1.5
v 1.4 2.4 -1.5
v 1.5 2 -1.5
v 1.5 2.4 -1.5
v 1.7 2.4 -1.5
v 1.7 3.4 -1.5
v 1.8 2.4 -1.5
v 1.8 3.4 -1.5
v 2.2 2.4 -1.5
v 2.2 3.4 -1.5
v 2.3 2.4 -1.5
v 2.3 3.4 -1.5
v 2.5 2 -1.5
v 2.5 2.4 -1.5
v 2.6 2 -1.5
v 2.6 2.4 -1.5
v 1.6 2.4 -1.6
v 1.6 2.5 -1.6
v 1.6 2.6 -1.6
v 1.6 2.7 -1.6
v 1.6 2.8 -1.6
v 1.6 2.9 -1.6
v 1.6 3 -1.6
v 1.6 3.1 -1.6
v 1.6 3.7 -1.6
v 1.6 3.9 -1.6
v 1.7 2.4 -1.6
v 1.7 2.5 -1.6
v 1.7 2.6 -1.6
v 1.7 2.7 -1.6
v 1.7 2.8 -1.6
v 1.7 2.9 -1.6
v 1.7 3 -1.6
v 1.7 3.1 -1.6
v 1.7 3.9 -1.6
v 1.7 4 -1.6
v 1.8 2.4 -1.6
v 1.8 3.1 -1.6
v 1.8 3.9 -1.6
v 1.8 4 -1.6
v 1.9 2.4 -1.6
v 2.1 2.4 -1.6
v 2.2 2.4 -1.6
v 2.2 3.1 -1.6
v 2.2 3.9 -1.6
v 2.2 4 -1.6
v 2.3 2.4 -1.6
v 2.3 2.5 -1.6
v 2.3 2.6 -1.6
v 2.3 2.7 -1.6
v 2.3 2.8 -1.6
v 2.3 2.9 -1.6
v 2.3 3 -1.6
v 2.3 3.1 -1.6
v 2.3 3.9 -1.6
v 2.3 4 -1.6
v 2.4 2.4 -1.6
v 2.4 2.5 -1.6
v 2.4 2.6 -1.6
v 2.4 2.7 -1.6
v 2.4 2.8 -1.6
v 2.4 2.9 -1.6
v 2.4 3 -1.6
v 2.4 3.1 -1.6
v 2.4 3.7 -1.6
v 2.4 3.9 -1.6
v 1.7 3.1 -1.7
v 1.7 3.7 -1.7
v 2.3 3.1 -1.7
v 2.3 3.7 -1.7
v 1.7 3.1 -1.6
v 1.7 3.4 -1.6
v 1.8 3.1 -1.6
v 1.8 3.4 -1.6
v 2.2 3.1 -1.6
v 2.2 3.4 -1.6
v 2.3 3.1 -1.6
v 2.3 3.4 -1.6
v 1.7 3.1 -2.3
v 1.7 3.7 -2.3
v 2.3 3.1 -2.3
v 2.3 3.7 -2.3
v 1.6 2.4 -2.4
v 1.6 2.5 -2.4
v 1.6 2.6 -2.4
v 1.6 2.7 -2.4
v 1.6 2.8 -2.4
v 1.6 2.9 -2.4
v 1.6 3 -2.4
v 1.6 3.1 -2.4
v 1.6 3.7 -2.4
v 1.6 3.9 -2.4
v 1.7 2.4 -2.4
v 1.7 2.5 -2.4
v 1.7 2.6 -2.4
v 1.7 2.7 -2.4
v 1.7 2.8 -2.4
v 1.7 2.9 -2.4
v 1.7 3 -2.4
v 1.7 3.9 -2.4
v 1.7 4 -2.4
v 1.8 2.4 -2.4
v 1.8 2.5 -2.4
v 1.8 2.9 -2.4
v 1.8 3.9 -2.4
v 1.8 4 -2.4
v 1.9 2.4 -2.4
v 1.9 2.5 -2.4
v 1.9 2.6 -2.4
v 2.1 2.4 -2.4
v 2.1 2.5 -2.4
v 2.1 2.6 -2.4
v 2.2 2.4 -2.4
v 2.2 2.5 -2.4
v 2.2 2.9 -2.4
v 2.2 3.9 -2.4
v 2.2 4 -2.4
v 2.3 2.4 -2.4
v 2.3 2.5 -2.4
v 2.3 2.6 -2.4
v 2.3 2.7 -2.4
v 2.3 2.8 -2.4
v 2.3 2.9 -2.4
v 2.3 3 -2.4
v 2.3 3.9 -2.4
v 2.3 4 -2.4
v 2.4 2.4 -2.4
v 2.4 2.5 -2.4
v 2.4 2.6 -2.4
v 2.4 2.7 -2.4
v 2.4 2.8 -2.4
v 2.4 2.9 -2.4
v 2.4 3 -2.4
v 2.4 3.1 -2.4
v 2.4 3.7 -2.4
v 2.4 3.9 -2.4
v 1.4 2 -2.5
v 1.4 2.4 -2.5
v 1.5 2 -2.5
v 1.5 2.4 -2.5
v 2.5 2 -2.5
v 2.5 2.4 -2.5
v 2.6 2 -2.5
v 2.6 2.4 -2.5
v 1.5 2 -2.6
v 1.5 2.4 -2.6
v 1.8 2.1 -2.6
v 1.8 2.4 -2.6
v 1.9 2.1 -2.6
v 1.9 2.4 -2.6
v 2.1 2.1 -2.6
v 2.1 2.4 -2.6
v 2.2 2.1 -2.6
v 2.2 2.4 -2.6
v 2.5 2 -2.6
v 2.5 2.4 -2.6
v 1.5 2 -1.4
v 2.5 2 -1.4
v 1.4 2 -1.5
v 1.5 2 -1.5
v 2.5 2 -1.5
v 2.6 2 -1.5
v 1.4 2 -2.5
v 1.5 2 -2.5
v 2.5 2 -2.5
v 2.6 2 -2.5
v 1.5 2 -2.6
v 2.5 2 -2.6
v 1.6 2.6 -1.6
v 1.7 2.6 -1.6
v 2.3 2.6 -1.6
v 2.4 2.6 -1.6
v 1.7 2.6 -2.3
v 2.3 2.6 -2.3
v 1.6 2.6 -2.4
v 1.7 2.6 -2.4
v 2.3 2.6 -2.4
v 2.4 2.6 -2.4
v 1.6 2.8 -1.6
v 1.7 2.8 -1.6
v 2.3 2.8 -1.6
v 2.4 2.8 -1.6
v 1.7 2.8 -2.3
v 2.3 2.8 -2.3
v 1.6 2.8 -2.4
v 1.7 2.8 -2.4
v 2.3 2.8 -2.4
v 2.4 2.8 -2.4
v 1.6 3 -1.6
v 1.7 3 -1.6
v 2.3 3 -1.6
v 2.4 3 -1.6
v 1.7 3 -2.3
v 2.3 3 -2.3
v 1.6 3 -2.4
v 1.7 3 -2.4
v 2.3 3 -2.4
v 2.4 3 -2.4
v 1.6 3.7 -1.6
v 2.4 3.7 -1.6
v 1.7 3.7 -1.7
v 2.3 3.7 -1.7
v 1.7 3.7 -2.3
v 2.3 3.7 -2.3
v 1.6 3.7 -2.4
v 2.4 3.7 -2.4
v 1.5 2.4 -1.4
v 1.8 2.4 -1.4
v 1.9 2.4 -1.4
v 2.1 2.4 -1.4
v 2.2 2.4 -1.4
v 2.5 2.4 -1.4
v 1.4 2.4 -1.5
v 1.5 2.4 -1.5
v 1.7 2.4 -1.5
v 1.8 2.4 -1.5
v 2.2 2.4 -1.5
v 2.3 2.4 -1.5
v 2.5 2.4 -1.5
v 2.6 2.4 -1.5
v 1.6 2.4 -1.6
v 1.7 2.4 -1.6
v 1.8 2.4 -1.6
v 1.9 2.4 -1.6
v 2.1 2.4 -1.6
v 2.2 2.4 -1.6
v 2.3 2.4 -1.6
v 2.4 2.4 -1.6
v 1.4 2.4 -1.8
v 1.6 2.4 -1.8
v 2.4 2.4 -1.8
v 2.6 2.4 -1.8
v 1.4 2.4 -1.9
v 1.6 2.4 -1.9
v 2.4 2.4 -1.9
v 2.6 2.4 -1.9
v 1.4 2.4 -2.1
v 1.6 2.4 -2.1
v 2.4 2.4 -2.1
v 2.6 2.4 -2.1
v 1.4 2.4 -2.2
v 1.6 2.4 -2.2
v 2.4 2.4 -2.2
v 2.6 2.4 -2.2
v 1.6 2.4 -2.4
v 1.7 2.4 -2.4
v 1.8 2.4 -2.4
v 1.9 2.4 -2.4
v 2.1 2.4 -2.4
v 2.2 2.4 -2.4
v 2.3 2.4 -2.4
v 2.4 2.4 -2.4
v 1.4 2.4 -2.5
v 1.5 2.4 -2.5
v 2.5 2.4 -2.5
v 2.6 2.4 -2.5
v 1.5 2.4 -2.6
v 1.8 2.4 -2.6
v 1.9 2.4 -2.6
v 2.1 2.4 -2.6
v 2.2 2.4 -2.6
v 2.5 2.4 -2.6
v 1.6 2.5 -1.6
v 1.7 2.5 -1.6
v 2.3 2.5 -1.6
v 2.4 2.5 -1.6
v 1.7 2.5 -2.3
v 2.3 2.5 -2.3
v 1.6 2.5 -2.4
v 1.7 2.5 -2.4
v 2.3 2.5 -2.4
v 2.4 2.5 -2.4
v 1.6 2.7 -1.6
v 1.7 2.7 -1.6
v 2.3 2.7 -1.6
v 2.4 2.7 -1.6
v 1.7 2.7 -2.3
v 2.3 2.7 -2.3
v 1.6 2.7 -2.4
v 1.7 2.7 -2.4
v 2.3 2.7 -2.4
v 2.4 2.7 -2.4
v 1.6 2.9 -1.6
v 1.7 2.9 -1.6
v 2.3 2.9 -1.6
v 2.4 2.9 -1.6
v 1.7 2.9 -2.3
v 2.3 2.9 -2.3
v 1.6 2.9 -2.4
v 1.7 2.9 -2.4
v 2.3 2.9 -2.4
v 2.4 2.9 -2.4
v 1.6 3.1 -1.6
v 1.7 3.1 -1.6
v 1.8 3.1 -1.6
v 2.2 3.1 -1.6
v 2.3 3.1 -1.6
v 2.4 3.1 -1.6
v 1.7 3.1 -1.7
v 2.3 3.1 -1.7
v 1.7 3.1 -2.3
v 2.3 3.1 -2.3
v 1.6 3.1 -2.4
v 2.4 3.1 -2.4
v 1.7 3.4 -1.5
v 1.8 3.4 -1.5
v 2.2 3.4 -1.5
v 2.3 3.4 -1.5
v 1.7 3.4 -1.6
v 1.8 3.4 -1.6
v 2.2 3.4 -1.6
v 2.3 3.4 -1.6
v 1.6 3.9 -1.6
v 1.7 3.9 -1.6
v 1.8 3.9 -1.6
v 2.2 3.9 -1.6
v 2.3 3.9 -1.6
v 2.4 3.9 -1.6
v 1.6 3.9 -2.4
v 1.7 3.9 -2.4
v 1.8 3.9 -2.4
v 2.2 3.9 -2.4
v 2.3 3.9 -2.4
v 2.4 3.9 -2.4
v 1.7 4 -1.6
v 1.8 4 -1.6
v 2.2 4 -1.6
v 2.3 4 -1.6
v 1.7 4 -2.4
v 1.8 4 -2.4
v 2.2 4 -2.4
v 2.3 4 -2.4

# faces
f 3/4/1 2/4/1 1/4/1
f 4/4/1 2/4/1 3/4/1
f 5/4/1 2/4/1 4/4/1
f 6/4/1 2/4/1 5/4/1
f 7/4/1 3/4/1 1/4/1
f 8/2/1 4/2/1 3/2/1
f 8/4/1 3/4/1 7/4/1
f 9/4/1 5/4/1 4/4/1
f 9/2/1 4/2/1 8/2/1
f 10/2/1 6/2/1 5/2/1
f 10/4/1 5/4/1 9/4/1
f 11/4/1 2/4/1 6/4/1
f 11/2/1 6/2/1 10/2/1
f 12/4/1 2/4/1 11/4/1
f 17/4/1 14/4/1 13/4/1
f 18/4/1 14/4/1 17/4/1
f 19/4/1 16/4/1 15/4/1
f 20/4/1 16/4/1 19/4/1
f 27/4/1 22/4/1 21/4/1
f 27/4/1 26/4/1 25/4/1
f 27/4/1 25/4/1 24/4/1
f 27/4/1 24/4/1 23/4/1
f 27/4/1 23/4/1 22/4/1
f 28/4/1 26/4/1 27/4/1
f 31/4/1 30/4/1 29/4/1
f 32/4/1 30/4/1 31/4/1
f 35/4/1 34/4/1 33/4/1
f 36/4/1 34/4/1 35/4/1
f 39/4/1 38/4/1 37/4/1
f 40/4/1 38/4/1 39/4/1
f 43/4/1 42/4/1 41/4/1
f 44/4/1 42/4/1 43/4/1
f 47/6/1 46/6/1 45/6/1
f 50/6/1 47/6/1 45/6/1
f 50/4/1 48/4/1 47/4/1
f 51/6/1 49/6/1 48/6/1
f 51/4/1 48/4/1 50/4/1
f 52/6/1 49/6/1 51/6/1
f 53/6/1 50/6/1 45/6/1
f 56/6/1 53/6/1 45/6/1
f 56/4/1 54/4/1 53/4/1
f 57/6/1 55/6/1 54/6/1
f 57/4/1 54/4/1 56/4/1
f 58/6/1 55/6/1 57/6/1
f 59/6/1 56/6/1 45/6/1
f 62/6/1 59/6/1 45/6/1
f 62/4/1 60/4/1 59/4/1
f 63/6/1 61/6/1 60/6/1
f 63/4/1 60/4/1 62/4/1
f 64/6/1 61/6/1 63/6/1
f 65/6/1 62/6/1 45/6/1
f 68/6/1 65/6/1 45/6/1
f 69/6/1 65/6/1 68/6/1
f 70/4/1 67/4/1 66/4/1
f 71/4/1 67/4/1 70/4/1
f 74/6/1 73/6/1 72/6/1
f 75/6/1 73/6/1 74/6/1
f 78/6/1 77/6/1 76/6/1
f 79/6/1 78/6/1 76/6/1
f 80/6/1 78/6/1 79/6/1
f 83/6/1 82/6/1 81/6/1
f 84/6/1 82/6/1 83/6/1
f 85/6/2 86/6/2 87/6/2
f 85/6/2 87/6/2 88/6/2
f 88/6/2 87/6/2 89/6/2
f 90/6/2 91/6/2 92/6/2
f 92/6/2 91/6/2 93/6/2
f 94/6/2 95/6/2 96/6/2
f 94/6/2 96/6/2 99/6/2
f 96/4/2 97/4/2 99/4/2
f 97/6/2 98/6/2 100/6/2
f 99/4/2 97/4/2 100/4/2
f 100/6/2 98/6/2 101/6/2
f 94/6/2 99/6/2 102/6/2
f 94/6/2 102/6/2 105/6/2
f 102/4/2 103/4/2 105/4/2
f 103/6/2 104/6/2 106/6/2
f 105/4/2 103/4/2 106/4/2
f 106/6/2 104/6/2 107/6/2
f 94/6/2 105/6/2 108/6/2
f 94/6/2 108/6/2 111/6/2
f 108/4/2 109/4/2 111/4/2
f 109/6/2 110/6/2 112/6/2
f 111/4/2 109/4/2 112/4/2
f 112/6/2 110/6/2 113/6/2
f 94/6/2 111/6/2 114/6/2
f 94/6/2 114/6/2 117/6/2
f 117/6/2 114/6/2 118/6/2
f 115/4/2 116/4/2 119/4/2
f 119/4/2 116/4/2 120/4/2
f 121/6/2 122/6/2 123/6/2
f 123/6/2 122/6/2 124/6/2
f 125/4/2 126/4/2 131/4/2
f 129/4/2 130/4/2 131/4/2
f 128/4/2 129/4/2 131/4/2
f 127/4/2 128/4/2 131/4/2
f 126/4/2 127/4/2 131/4/2
f 131/4/2 130/4/2 132/4/2
f 133/4/2 134/4/2 135/4/2
f 135/4/2 134/4/2 136/4/2
f 137/4/2 138/4/2 139/4/2
f 139/4/2 138/4/2 140/4/2
f 141/4/2 142/4/2 143/4/2
f 143/4/2 142/4/2 144/4/2
f 145/4/2 146/4/2 147/4/2
f 147/4/2 146/4/2 148/4/2
f 149/4/2 150/4/2 153/4/2
f 153/4/2 150/4/2 154/4/2
f 151/4/2 152/4/2 155/4/2
f 155/4/2 152/4/2 156/4/2
f 157/4/2 158/4/2 159/4/2
f 159/4/2 158/4/2 160/4/2
f 160/4/2 158/4/2 161/4/2
f 161/4/2 158/4/2 162/4/2
f 157/4/2 159/4/2 163/4/2
f 159/2/2 160/2/2 164/2/2
f 163/4/2 159/4/2 164/4/2
f 160/4/2 161/4/2 165/4/2
f 164/2/2 160/2/2 165/2/2
f 161/2/2 162/2/2 166/2/2
f 165/4/2 161/4/2 166/4/2
f 162/4/2 158/4/2 167/4/2
f 166/2/2 162/2/2 167/2/2
f 167/4/2 158/4/2 168/4/2
f 171/4/3 170/4/3 169/4/3
f 172/4/3 170/4/3 171/4/3
f 173/4/3 171/4/3 169/4/3
f 173/2/3 172/2/3 171/2/3
f 174/2/3 172/2/3 173/2/3
f 175/4/3 173/4/3 169/4/3
f 175/4/3 174/4/3 173/4/3
f 176/4/3 174/4/3 175/4/3
f 177/4/3 175/4/3 169/4/3
f 177/2/3 176/2/3 175/2/3
f 178/2/3 176/2/3 177/2/3
f 179/4/3 177/4/3 169/4/3
f 179/4/3 178/4/3 177/4/3
f 180/4/3 178/4/3 179/4/3
f 183/4/3 182/4/3 181/4/3
f 184/4/3 182/4/3 183/4/3
f 187/6/3 186/6/3 185/6/3
f 188/6/3 186/6/3 187/6/3
f 191/6/3 190/6/3 189/6/3
f 192/6/3 190/6/3 191/6/3
f 195/4/3 194/4/3 193/4/3
f 196/4/3 194/4/3 195/4/3
f 207/4/3 198/4/3 197/4/3
f 208/4/3 198/4/3 207/4/3
f 209/4/3 200/4/3 199/4/3
f 210/4/3 200/4/3 209/4/3
f 211/4/3 202/4/3 201/4/3
f 212/4/3 202/4/3 211/4/3
f 213/4/3 204/4/3 203/4/3
f 214/4/3 204/4/3 213/4/3
f 215/4/3 206/4/3 205/4/3
f 219/6/3 216/6/3 215/6/3
f 219/4/3 215/4/3 205/4/3
f 220/6/3 216/6/3 219/6/3
f 221/4/3 218/4/3 217/4/3
f 222/4/3 218/4/3 221/4/3
f 223/4/3 218/4/3 222/4/3
f 224/4/3 218/4/3 223/4/3
f 225/4/3 219/4/3 205/4/3
f 235/6/3 226/6/3 225/6/3
f 235/4/3 225/4/3 205/4/3
f 236/6/3 226/6/3 235/6/3
f 237/4/3 228/4/3 227/4/3
f 238/4/3 228/4/3 237/4/3
f 239/4/3 230/4/3 229/4/3
f 240/4/3 230/4/3 239/4/3
f 241/4/3 232/4/3 231/4/3
f 242/4/3 232/4/3 241/4/3
f 243/4/3 234/4/3 233/4/3
f 244/4/3 234/4/3 243/4/3
f 245/4/3 235/4/3 205/4/3
f 246/4/3 235/4/3 245/4/3
f 249/4/3 248/4/3 247/4/3
f 250/4/3 248/4/3 249/4/3
f 251/6/4 252/6/4 253/6/4
f 253/6/4 252/6/4 254/6/4
f 255/6/4 256/6/4 257/6/4
f 257/6/4 256/6/4 258/6/4
f 259/4/4 260/4/4 261/4/4
f 261/4/4 260/4/4 262/4/4
f 263/4/4 264/4/4 273/4/4
f 273/4/4 264/4/4 274/4/4
f 265/4/4 266/4/4 275/4/4
f 275/4/4 266/4/4 276/4/4
f 267/4/4 268/4/4 277/4/4
f 277/4/4 268/4/4 278/4/4
f 269/4/4 270/4/4 279/4/4
f 271/4/4 272/4/4 280/4/4
f 278/6/4 279/6/4 282/6/4
f 273/6/4 274/6/4 282/6/4
f 275/6/4 276/6/4 282/6/4
f 277/6/4 278/6/4 282/6/4
f 274/6/4 275/6/4 282/6/4
f 276/6/4 277/6/4 282/6/4
f 282/6/4 279/6/4 283/6/4
f 283/6/4 279/6/4 284/6/4
f 280/6/4 281/6/4 285/6/4
f 271/4/4 280/4/4 285/4/4
f 285/6/4 281/6/4 286/6/4
f 282/4/4 283/4/4 287/4/4
f 283/2/4 284/2/4 288/2/4
f 287/4/4 283/4/4 288/4/4
f 288/2/4 284/2/4 289/2/4
f 287/4/4 288/4/4 290/4/4
f 288/4/4 289/4/4 290/4/4
f 290/4/4 289/4/4 291/4/4
f 289/2/4 284/2/4 292/2/4
f 291/4/4 289/4/4 292/4/4
f 290/4/4 291/4/4 293/4/4
f 291/2/4 292/2/4 294/2/4
f 293/4/4 291/4/4 294/4/4
f 284/6/4 279/6/4 295/6/4
f 294/2/4 292/2/4 295/2/4
f 292/2/4 284/2/4 295/2/4
f 271/4/4 285/4/4 296/4/4
f 293/6/4 294/6/4 298/6/4
f 294/6/4 295/6/4 298/6/4
f 298/6/4 295/6/4 299/6/4
f 299/6/4 295/6/4 300/6/4
f 300/6/4 295/6/4 301/6/4
f 301/6/4 295/6/4 302/6/4
f 295/6/4 279/6/4 303/6/4
f 302/6/4 295/6/4 303/6/4
f 279/4/4 270/4/4 304/4/4
f 303/6/4 279/6/4 304/6/4
f 296/6/4 297/6/4 305/6/4
f 271/4/4 296/4/4 305/4/4
f 305/6/4 297/6/4 306/6/4
f 298/4/4 299/4/4 307/4/4
f 307/4/4 299/4/4 308/4/4
f 300/4/4 301/4/4 309/4/4
f 309/4/4 301/4/4 310/4/4
f 302/4/4 303/4/4 311/4/4
f 311/4/4 303/4/4 312/4/4
f 304/4/4 270/4/4 313/4/4
f 313/4/4 270/4/4 314/4/4
f 271/4/4 305/4/4 315/4/4
f 315/4/4 305/4/4 316/4/4
f 317/4/4 318/4/4 319/4/4
f 319/4/4 318/4/4 320/4/4
f 321/4/4 322/4/4 323/4/4
f 323/4/4 322/4/4 324/4/4
f 325/4/4 326/4/4 327/4/4
f 327/4/4 326/4/4 328/4/4
f 325/4/4 327/4/4 329/4/4
f 327/2/4 328/2/4 329/2/4
f 329/2/4 328/2/4 330/2/4
f 325/4/4 329/4/4 331/4/4
f 329/4/4 330/4/4 331/4/4
f 331/4/4 330/4/4 332/4/4
f 325/4/4 331/4/4 333/4/4
f 331/2/4 332/2/4 333/2/4
f 333/2/4 332/2/4 334/2/4
f 325/4/4 333/4/4 335/4/4
f 333/4/4 334/4/4 335/4/4
f 335/4/4 334/4/4 336/4/4
f 340/4/5 338/4/5 337/4/5
f 341/4/5 338/4/5 340/4/5
f 343/4/5 340/4/5 339/4/5
f 343/4/5 342/4/5 341/4/5
f 343/4/5 341/4/5 340/4/5
f 344/4/5 342/4/5 343/4/5
f 345/4/5 342/4/5 344/4/5
f 346/4/5 342/4/5 345/4/5
f 347/4/5 345/4/5 344/4/5
f 348/4/5 345/4/5 347/4/5
f 353/4/5 350/4/5 349/4/5
f 354/4/5 352/4/5 351/4/5
f 355/4/5 353/4/5 349/4/5
f 356/4/5 353/4/5 355/4/5
f 357/4/5 352/4/5 354/4/5
f 358/4/5 352/4/5 357/4/5
f 363/4/5 360/4/5 359/4/5
f 364/4/5 362/4/5 361/4/5
f 365/4/5 363/4/5 359/4/5
f 366/4/5 363/4/5 365/4/5
f 367/4/5 362/4/5 364/4/5
f 368/4/5 362/4/5 367/4/5
f 373/4/5 370/4/5 369/4/5
f 374/4/5 372/4/5 371/4/5
f 375/4/5 373/4/5 369/4/5
f 376/4/5 373/4/5 375/4/5
f 377/4/5 372/4/5 374/4/5
f 378/4/5 372/4/5 377/4/5
f 381/4/5 380/4/5 379/4/5
f 382/4/5 380/4/5 381/4/5
f 383/4/5 381/4/5 379/4/5
f 384/4/5 380/4/5 382/4/5
f 385/4/5 383/4/5 379/4/5
f 385/4/5 384/4/5 383/4/5
f 386/4/5 380/4/5 384/4/5
f 386/4/5 384/4/5 385/4/5
f 387/4/6 388/4/6 394/4/6
f 394/4/6 388/4/6 395/4/6
f 388/2/6 389/2/6 396/2/6
f 395/4/6 388/4/6 396/4/6
f 391/4/6 392/4/6 397/4/6
f 390/2/6 391/2/6 397/2/6
f 397/4/6 392/4/6 398/4/6
f 398/4/6 392/4/6 399/4/6
f 394/4/6 395/4/6 401/4/6
f 393/4/6 394/4/6 401/4/6
f 401/4/6 395/4/6 402/4/6
f 396/2/6 389/2/6 403/2/6
f 389/4/6 390/4/6 404/4/6
f 403/2/6 389/2/6 404/2/6
f 390/2/6 397/2/6 405/2/6
f 404/4/6 390/4/6 405/4/6
f 405/2/6 397/2/6 406/2/6
f 399/4/6 400/4/6 407/4/6
f 398/4/6 399/4/6 407/4/6
f 407/4/6 400/4/6 408/4/6
f 393/4/6 401/4/6 409/4/6
f 409/4/6 401/4/6 410/4/6
f 408/4/6 400/4/6 411/4/6
f 411/4/6 400/4/6 412/4/6
f 409/2/6 410/2/6 413/2/6
f 413/2/6 410/2/6 414/2/6
f 411/2/6 412/2/6 415/2/6
f 415/2/6 412/2/6 416/2/6
f 413/4/6 414/4/6 417/4/6
f 417/4/6 414/4/6 418/4/6
f 415/4/6 416/4/6 419/4/6
f 419/4/6 416/4/6 420/4/6
f 417/2/6 418/2/6 421/2/6
f 421/2/6 418/2/6 422/2/6
f 419/2/6 420/2/6 423/2/6
f 423/2/6 420/2/6 424/2/6
f 421/4/6 422/4/6 425/4/6
f 423/4/6 424/4/6 432/4/6
f 421/4/6 425/4/6 433/4/6
f 425/4/6 426/4/6 433/4/6
f 426/4/6 427/4/6 433/4/6
f 433/4/6 427/4/6 434/4/6
f 430/4/6 431/4/6 435/4/6
f 431/4/6 432/4/6 435/4/6
f 432/4/6 424/4/6 435/4/6
f 435/4/6 424/4/6 436/4/6
f 434/4/6 427/4/6 437/4/6
f 427/2/6 428/2/6 438/2/6
f 437/4/6 427/4/6 438/4/6
f 428/4/6 429/4/6 439/4/6
f 438/2/6 428/2/6 439/2/6
f 429/2/6 430/2/6 440/2/6
f 439/4/6 429/4/6 440/4/6
f 430/4/6 435/4/6 441/4/6
f 440/2/6 430/2/6 441/2/6
f 441/4/6 435/4/6 442/4/6
f 443/4/6 444/4/6 447/4/6
f 445/4/6 446/4/6 448/4/6
f 443/4/6 447/4/6 449/4/6
f 449/4/6 447/4/6 450/4/6
f 448/4/6 446/4/6 451/4/6
f 451/4/6 446/4/6 452/4/6
f 453/4/6 454/4/6 457/4/6
f 455/4/6 456/4/6 458/4/6
f 453/4/6 457/4/6 459/4/6
f 459/4/6 457/4/6 460/4/6
f 458/4/6 456/4/6 461/4/6
f 461/4/6 456/4/6 462/4/6
f 463/4/6 464/4/6 467/4/6
f 465/4/6 466/4/6 468/4/6
f 463/4/6 467/4/6 469/4/6
f 469/4/6 467/4/6 470/4/6
f 468/4/6 466/4/6 471/4/6
f 471/4/6 466/4/6 472/4/6
f 473/4/6 474/4/6 479/4/6
f 477/4/6 478/4/6 479/4/6
f 476/4/6 477/4/6 479/4/6
f 475/4/6 476/4/6 479/4/6
f 474/4/6 475/4/6 479/4/6
f 479/4/6 478/4/6 480/4/6
f 473/4/6 479/4/6 481/4/6
f 480/4/6 478/4/6 482/4/6
f 473/4/6 481/4/6 483/4/6
f 481/4/6 482/4/6 483/4/6
f 482/4/6 478/4/6 484/4/6
f 483/4/6 482/4/6 484/4/6
f 485/6/6 486/6/6 489/6/6
f 489/6/6 486/6/6 490/6/6
f 487/6/6 488/6/6 491/6/6
f 491/6/6 488/6/6 492/6/6
f 493/4/6 494/4/6 499/4/6
f 499/4/6 494/4/6 500/4/6
f 495/4/6 496/4/6 501/4/6
f 501/4/6 496/4/6 502/4/6
f 497/4/6 498/4/6 503/4/6
f 503/4/6 498/4/6 504/4/6
f 505/6/6 506/6/6 509/6/6
f 509/6/6 506/6/6 510/6/6
f 507/6/6 508/6/6 511/6/6
f 511/6/6 508/6/6 512/6/6
