# MagicaVoxel @ Ephtracy

# group
o 

# material
mtllib untitled.mtl
usemtl palette

# normals
vn -1 0 0
vn 1 0 0
vn 0 0 1
vn 0 0 -1
vn 0 -1 0
vn 0 1 0

# texcoords
vt 0.306641 0.5
vt 0.861328 0.5
vt 0.986328 0.5
vt 0.990234 0.5

# verts
v 0 2 0
v 0 2 -4
v 0 2.1 0
v 0 2.1 -4
v 1.4 2.1 -1.4
v 1.4 2.1 -2.6
v 1.4 2.6 -1.4
v 1.4 2.6 -2.6
v 1.6 2.6 -1.7
v 1.6 2.6 -2.4
v 1.6 4 -2.4
v 1.6 4 -3.2
v 1.6 4.2 -1.7
v 1.6 4.2 -1.8
v 1.6 4.3 -1.7
v 1.6 4.3 -1.8
v 1.6 4.3 -1.9
v 1.6 4.4 -1.8
v 1.6 4.4 -1.9
v 1.6 4.4 -2
v 1.6 4.5 -1.9
v 1.6 4.5 -2
v 1.6 4.5 -2.1
v 1.6 4.6 -2
v 1.6 4.6 -2.1
v 1.6 4.6 -2.2
v 1.6 4.7 -1.7
v 1.6 4.7 -2.1
v 1.6 4.7 -2.2
v 1.6 4.7 -3.2
v 1.7 2.6 -1.6
v 1.7 2.6 -1.7
v 1.7 4.1 -1.6
v 1.7 4.1 -1.7
v 1.7 4.2 -1.7
v 1.7 4.2 -1.8
v 1.7 4.3 -1.6
v 1.7 4.3 -1.7
v 1.7 4.3 -1.8
v 1.7 4.3 -1.9
v 1.7 4.4 -1.8
v 1.7 4.4 -1.9
v 1.7 4.4 -2
v 1.7 4.5 -1.9
v 1.7 4.5 -2
v 1.7 4.5 -2.1
v 1.7 4.6 -2
v 1.7 4.6 -2.1
v 1.7 4.6 -2.2
v 1.7 4.7 -1.7
v 1.7 4.7 -2.1
v 1.7 4.7 -2.2
v 1.7 4.7 -3.2
v 1.7 4.8 -1.6
v 1.7 4.8 -3.2
v 1.8 4.1 -1.6
v 1.8 4.1 -1.7
v 1.8 4.3 -1.6
v 1.8 4.3 -1.7
v 2.2 4.1 -1.6
v 2.2 4.1 -1.7
v 2.2 4.3 -1.6
v 2.2 4.3 -1.7
v 2.3 2.6 -1.6
v 2.3 2.6 -1.7
v 2.3 4.1 -1.6
v 2.3 4.1 -1.7
v 2.3 4.2 -1.7
v 2.3 4.2 -1.8
v 2.3 4.3 -1.6
v 2.3 4.3 -1.7
v 2.3 4.3 -1.8
v 2.3 4.3 -1.9
v 2.3 4.4 -1.8
v 2.3 4.4 -1.9
v 2.3 4.4 -2
v 2.3 4.5 -1.9
v 2.3 4.5 -2
v 2.3 4.5 -2.1
v 2.3 4.6 -2
v 2.3 4.6 -2.1
v 2.3 4.6 -2.2
v 2.3 4.7 -1.7
v 2.3 4.7 -2.1
v 2.3 4.7 -2.2
v 2.3 4.7 -3.2
v 2.3 4.8 -1.6
v 2.3 4.8 -3.2
v 2.4 2.6 -1.7
v 2.4 2.6 -2.4
v 2.4 4 -2.4
v 2.4 4 -3.2
v 2.4 4.2 -1.7
v 2.4 4.2 -1.8
v 2.4 4.3 -1.7
v 2.4 4.3 -1.8
v 2.4 4.3 -1.9
v 2.4 4.4 -1.8
v 2.4 4.4 -1.9
v 2.4 4.4 -2
v 2.4 4.5 -1.9
v 2.4 4.5 -2
v 2.4 4.5 -2.1
v 2.4 4.6 -2
v 2.4 4.6 -2.1
v 2.4 4.6 -2.2
v 2.4 4.7 -1.7
v 2.4 4.7 -2.1
v 2.4 4.7 -2.2
v 2.4 4.7 -3.2
v 2.6 2.1 -1.4
v 2.6 2.1 -2.6
v 2.6 2.6 -1.4
v 2.6 2.6 -2.6
v 4 2 0
v 4 2 -4
v 4 2.1 0
v 4 2.1 -4
v 0 2 0
v 0 2.1 0
v 4 2 0
v 4 2.1 0
v 1.4 2.1 -1.4
v 1.4 2.6 -1.4
v 2.6 2.1 -1.4
v 2.6 2.6 -1.4
v 1.7 2.6 -1.6
v 1.7 4.1 -1.6
v 1.7 4.3 -1.6
v 1.7 4.8 -1.6
v 1.8 4.1 -1.6
v 1.8 4.3 -1.6
v 2.2 4.1 -1.6
v 2.2 4.3 -1.6
v 2.3 2.6 -1.6
v 2.3 4.1 -1.6
v 2.3 4.3 -1.6
v 2.3 4.8 -1.6
v 1.6 2.6 -1.7
v 1.6 4.2 -1.7
v 1.6 4.3 -1.7
v 1.6 4.7 -1.7
v 1.7 2.6 -1.7
v 1.7 4.1 -1.7
v 1.7 4.2 -1.7
v 1.7 4.3 -1.7
v 1.7 4.7 -1.7
v 1.8 4.1 -1.7
v 1.8 4.3 -1.7
v 2.2 4.1 -1.7
v 2.2 4.3 -1.7
v 2.3 2.6 -1.7
v 2.3 4.1 -1.7
v 2.3 4.2 -1.7
v 2.3 4.3 -1.7
v 2.3 4.7 -1.7
v 2.4 2.6 -1.7
v 2.4 4.2 -1.7
v 2.4 4.3 -1.7
v 2.4 4.7 -1.7
v 1.6 4.2 -1.8
v 1.6 4.3 -1.8
v 1.7 4.2 -1.8
v 1.7 4.3 -1.8
v 2.3 4.2 -1.8
v 2.3 4.3 -1.8
v 2.4 4.2 -1.8
v 2.4 4.3 -1.8
v 1.6 4.3 -1.9
v 1.6 4.4 -1.9
v 1.7 4.3 -1.9
v 1.7 4.4 -1.9
v 2.3 4.3 -1.9
v 2.3 4.4 -1.9
v 2.4 4.3 -1.9
v 2.4 4.4 -1.9
v 1.6 4.4 -2
v 1.6 4.5 -2
v 1.7 4.4 -2
v 1.7 4.5 -2
v 2.3 4.4 -2
v 2.3 4.5 -2
v 2.4 4.4 -2
v 2.4 4.5 -2
v 1.6 4.5 -2.1
v 1.6 4.6 -2.1
v 1.7 4.5 -2.1
v 1.7 4.6 -2.1
v 2.3 4.5 -2.1
v 2.3 4.6 -2.1
v 2.4 4.5 -2.1
v 2.4 4.6 -2.1
v 1.6 4.6 -2.2
v 1.6 4.7 -2.2
v 1.7 4.6 -2.2
v 1.7 4.7 -2.2
v 2.3 4.6 -2.2
v 2.3 4.7 -2.2
v 2.4 4.6 -2.2
v 2.4 4.7 -2.2
v 1.6 4.3 -1.8
v 1.6 4.4 -1.8
v 1.7 4.3 -1.8
v 1.7 4.4 -1.8
v 2.3 4.3 -1.8
v 2.3 4.4 -1.8
v 2.4 4.3 -1.8
v 2.4 4.4 -1.8
v 1.6 4.4 -1.9
v 1.6 4.5 -1.9
v 1.7 4.4 -1.9
v 1.7 4.5 -1.9
v 2.3 4.4 -1.9
v 2.3 4.5 -1.9
v 2.4 4.4 -1.9
v 2.4 4.5 -1.9
v 1.6 4.5 -2
v 1.6 4.6 -2
v 1.7 4.5 -2
v 1.7 4.6 -2
v 2.3 4.5 -2
v 2.3 4.6 -2
v 2.4 4.5 -2
v 2.4 4.6 -2
v 1.6 4.6 -2.1
v 1.6 4.7 -2.1
v 1.7 4.6 -2.1
v 1.7 4.7 -2.1
v 2.3 4.6 -2.1
v 2.3 4.7 -2.1
v 2.4 4.6 -2.1
v 2.4 4.7 -2.1
v 1.6 2.6 -2.4
v 1.6 4 -2.4
v 1.7 3 -2.4
v 1.7 3.9 -2.4
v 1.8 3 -2.4
v 1.8 3.1 -2.4
v 1.8 3.8 -2.4
v 1.9 3.1 -2.4
v 1.9 3.2 -2.4
v 2.1 3.1 -2.4
v 2.1 3.2 -2.4
v 2.2 3 -2.4
v 2.2 3.1 -2.4
v 2.2 3.8 -2.4
v 2.3 3 -2.4
v 2.3 3.9 -2.4
v 2.4 2.6 -2.4
v 2.4 4 -2.4
v 1.4 2.1 -2.6
v 1.4 2.6 -2.6
v 2.6 2.1 -2.6
v 2.6 2.6 -2.6
v 1.6 4 -3.2
v 1.6 4.7 -3.2
v 1.7 4.7 -3.2
v 1.7 4.8 -3.2
v 2.3 4.7 -3.2
v 2.3 4.8 -3.2
v 2.4 4 -3.2
v 2.4 4.7 -3.2
v 0 2 -4
v 0 2.1 -4
v 4 2 -4
v 4 2.1 -4
v 0 2 0
v 4 2 0
v 0 2 -4
v 4 2 -4
v 1.6 4 -2.4
v 2.4 4 -2.4
v 1.6 4 -3.2
v 2.4 4 -3.2
v 1.7 4.3 -1.6
v 1.8 4.3 -1.6
v 2.2 4.3 -1.6
v 2.3 4.3 -1.6
v 1.6 4.3 -1.7
v 1.7 4.3 -1.7
v 1.8 4.3 -1.7
v 2.2 4.3 -1.7
v 2.3 4.3 -1.7
v 2.4 4.3 -1.7
v 1.6 4.3 -1.8
v 1.7 4.3 -1.8
v 2.3 4.3 -1.8
v 2.4 4.3 -1.8
v 1.6 4.4 -1.8
v 1.7 4.4 -1.8
v 2.3 4.4 -1.8
v 2.4 4.4 -1.8
v 1.6 4.4 -1.9
v 1.7 4.4 -1.9
v 2.3 4.4 -1.9
v 2.4 4.4 -1.9
v 1.6 4.5 -1.9
v 1.7 4.5 -1.9
v 2.3 4.5 -1.9
v 2.4 4.5 -1.9
v 1.6 4.5 -2
v 1.7 4.5 -2
v 2.3 4.5 -2
v 2.4 4.5 -2
v 1.6 4.6 -2
v 1.7 4.6 -2
v 2.3 4.6 -2
v 2.4 4.6 -2
v 1.6 4.6 -2.1
v 1.7 4.6 -2.1
v 2.3 4.6 -2.1
v 2.4 4.6 -2.1
v 0 2.1 0
v 4 2.1 0
v 1.4 2.1 -1.4
v 2.6 2.1 -1.4
v 1.4 2.1 -2.6
v 2.6 2.1 -2.6
v 0 2.1 -4
v 4 2.1 -4
v 1.4 2.6 -1.4
v 2.6 2.6 -1.4
v 1.6 2.6 -1.6
v 1.7 2.6 -1.6
v 2.3 2.6 -1.6
v 2.4 2.6 -1.6
v 1.6 2.6 -1.7
v 1.7 2.6 -1.7
v 2.3 2.6 -1.7
v 2.4 2.6 -1.7
v 1.6 2.6 -2.4
v 2.4 2.6 -2.4
v 1.4 2.6 -2.6
v 2.6 2.6 -2.6
v 1.7 4.1 -1.6
v 1.8 4.1 -1.6
v 2.2 4.1 -1.6
v 2.3 4.1 -1.6
v 1.7 4.1 -1.7
v 1.8 4.1 -1.7
v 2.2 4.1 -1.7
v 2.3 4.1 -1.7
v 1.6 4.2 -1.7
v 1.7 4.2 -1.7
v 2.3 4.2 -1.7
v 2.4 4.2 -1.7
v 1.6 4.2 -1.8
v 1.7 4.2 -1.8
v 2.3 4.2 -1.8
v 2.4 4.2 -1.8
v 1.6 4.3 -1.8
v 1.7 4.3 -1.8
v 2.3 4.3 -1.8
v 2.4 4.3 -1.8
v 1.6 4.3 -1.9
v 1.7 4.3 -1.9
v 2.3 4.3 -1.9
v 2.4 4.3 -1.9
v 1.6 4.4 -1.9
v 1.7 4.4 -1.9
v 2.3 4.4 -1.9
v 2.4 4.4 -1.9
v 1.6 4.4 -2
v 1.7 4.4 -2
v 2.3 4.4 -2
v 2.4 4.4 -2
v 1.6 4.5 -2
v 1.7 4.5 -2
v 2.3 4.5 -2
v 2.4 4.5 -2
v 1.6 4.5 -2.1
v 1.7 4.5 -2.1
v 2.3 4.5 -2.1
v 2.4 4.5 -2.1
v 1.6 4.6 -2.1
v 1.7 4.6 -2.1
v 2.3 4.6 -2.1
v 2.4 4.6 -2.1
v 1.6 4.6 -2.2
v 1.7 4.6 -2.2
v 2.3 4.6 -2.2
v 2.4 4.6 -2.2
v 1.6 4.7 -1.7
v 1.7 4.7 -1.7
v 2.3 4.7 -1.7
v 2.4 4.7 -1.7
v 1.6 4.7 -2.1
v 1.7 4.7 -2.1
v 2.3 4.7 -2.1
v 2.4 4.7 -2.1
v 1.6 4.7 -2.2
v 1.7 4.7 -2.2
v 2.3 4.7 -2.2
v 2.4 4.7 -2.2
v 1.6 4.7 -3.2
v 1.7 4.7 -3.2
v 2.3 4.7 -3.2
v 2.4 4.7 -3.2
v 1.7 4.8 -1.6
v 2.3 4.8 -1.6
v 1.7 4.8 -3.2
v 2.3 4.8 -3.2

# faces
f 3/3/1 2/3/1 1/3/1
f 4/3/1 2/3/1 3/3/1
f 7/3/1 6/3/1 5/3/1
f 8/3/1 6/3/1 7/3/1
f 11/3/1 10/3/1 9/3/1
f 13/3/1 11/3/1 9/3/1
f 13/3/1 12/3/1 11/3/1
f 14/3/1 12/3/1 13/3/1
f 16/3/1 12/3/1 14/3/1
f 17/3/1 12/3/1 16/3/1
f 18/3/1 16/3/1 15/3/1
f 19/3/1 12/3/1 17/3/1
f 20/3/1 12/3/1 19/3/1
f 21/3/1 19/3/1 18/3/1
f 22/3/1 12/3/1 20/3/1
f 23/3/1 12/3/1 22/3/1
f 24/3/1 22/3/1 21/3/1
f 25/3/1 12/3/1 23/3/1
f 26/3/1 12/3/1 25/3/1
f 27/3/1 18/3/1 15/3/1
f 27/3/1 21/3/1 18/3/1
f 27/3/1 25/3/1 24/3/1
f 27/3/1 24/3/1 21/3/1
f 28/3/1 25/3/1 27/3/1
f 29/3/1 12/3/1 26/3/1
f 30/3/1 12/3/1 29/3/1
f 33/3/1 32/3/1 31/3/1
f 34/3/1 32/3/1 33/3/1
f 38/4/1 36/4/1 35/4/1
f 39/4/1 36/4/1 38/4/1
f 41/4/1 40/4/1 39/4/1
f 42/4/1 40/4/1 41/4/1
f 44/4/1 43/4/1 42/4/1
f 45/4/1 43/4/1 44/4/1
f 47/4/1 46/4/1 45/4/1
f 48/4/1 46/4/1 47/4/1
f 50/3/1 38/3/1 37/3/1
f 51/4/1 49/4/1 48/4/1
f 52/4/1 49/4/1 51/4/1
f 54/3/1 50/3/1 37/3/1
f 54/3/1 53/3/1 52/3/1
f 54/3/1 52/3/1 51/3/1
f 54/3/1 51/3/1 50/3/1
f 55/3/1 53/3/1 54/3/1
f 58/3/1 57/3/1 56/3/1
f 59/3/1 57/3/1 58/3/1
f 60/3/2 61/3/2 62/3/2
f 62/3/2 61/3/2 63/3/2
f 64/3/2 65/3/2 66/3/2
f 66/3/2 65/3/2 67/3/2
f 68/4/2 69/4/2 71/4/2
f 71/4/2 69/4/2 72/4/2
f 72/4/2 73/4/2 74/4/2
f 74/4/2 73/4/2 75/4/2
f 75/4/2 76/4/2 77/4/2
f 77/4/2 76/4/2 78/4/2
f 78/4/2 79/4/2 80/4/2
f 80/4/2 79/4/2 81/4/2
f 70/3/2 71/3/2 83/3/2
f 81/4/2 82/4/2 84/4/2
f 84/4/2 82/4/2 85/4/2
f 70/3/2 83/3/2 87/3/2
f 85/3/2 86/3/2 87/3/2
f 84/3/2 85/3/2 87/3/2
f 83/3/2 84/3/2 87/3/2
f 87/3/2 86/3/2 88/3/2
f 89/3/2 90/3/2 91/3/2
f 89/3/2 91/3/2 93/3/2
f 91/3/2 92/3/2 93/3/2
f 93/3/2 92/3/2 94/3/2
f 94/3/2 92/3/2 96/3/2
f 96/3/2 92/3/2 97/3/2
f 95/3/2 96/3/2 98/3/2
f 97/3/2 92/3/2 99/3/2
f 99/3/2 92/3/2 100/3/2
f 98/3/2 99/3/2 101/3/2
f 100/3/2 92/3/2 102/3/2
f 102/3/2 92/3/2 103/3/2
f 101/3/2 102/3/2 104/3/2
f 103/3/2 92/3/2 105/3/2
f 105/3/2 92/3/2 106/3/2
f 95/3/2 98/3/2 107/3/2
f 98/3/2 101/3/2 107/3/2
f 104/3/2 105/3/2 107/3/2
f 101/3/2 104/3/2 107/3/2
f 107/3/2 105/3/2 108/3/2
f 106/3/2 92/3/2 109/3/2
f 109/3/2 92/3/2 110/3/2
f 111/3/2 112/3/2 113/3/2
f 113/3/2 112/3/2 114/3/2
f 115/3/2 116/3/2 117/3/2
f 117/3/2 116/3/2 118/3/2
f 121/3/3 120/3/3 119/3/3
f 122/3/3 120/3/3 121/3/3
f 125/3/3 124/3/3 123/3/3
f 126/3/3 124/3/3 125/3/3
f 131/3/3 128/3/3 127/3/3
f 132/3/3 130/3/3 129/3/3
f 133/3/3 131/3/3 127/3/3
f 133/3/3 132/3/3 131/3/3
f 134/3/3 130/3/3 132/3/3
f 134/3/3 132/3/3 133/3/3
f 135/3/3 133/3/3 127/3/3
f 136/3/3 133/3/3 135/3/3
f 137/3/3 130/3/3 134/3/3
f 138/3/3 130/3/3 137/3/3
f 143/3/3 140/3/3 139/3/3
f 144/3/3 140/3/3 143/3/3
f 145/3/3 140/3/3 144/3/3
f 146/3/3 142/3/3 141/3/3
f 147/3/3 142/3/3 146/3/3
f 148/4/3 145/4/3 144/4/3
f 148/4/3 146/4/3 145/4/3
f 149/4/3 146/4/3 148/4/3
f 153/4/3 151/4/3 150/4/3
f 154/4/3 151/4/3 153/4/3
f 155/4/3 151/4/3 154/4/3
f 157/3/3 153/3/3 152/3/3
f 157/3/3 154/3/3 153/3/3
f 158/3/3 154/3/3 157/3/3
f 159/3/3 156/3/3 155/3/3
f 160/3/3 156/3/3 159/3/3
f 163/3/3 162/3/3 161/3/3
f 164/3/3 162/3/3 163/3/3
f 167/3/3 166/3/3 165/3/3
f 168/3/3 166/3/3 167/3/3
f 171/3/3 170/3/3 169/3/3
f 172/3/3 170/3/3 171/3/3
f 175/3/3 174/3/3 173/3/3
f 176/3/3 174/3/3 175/3/3
f 179/3/3 178/3/3 177/3/3
f 180/3/3 178/3/3 179/3/3
f 183/3/3 182/3/3 181/3/3
f 184/3/3 182/3/3 183/3/3
f 187/3/3 186/3/3 185/3/3
f 188/3/3 186/3/3 187/3/3
f 191/3/3 190/3/3 189/3/3
f 192/3/3 190/3/3 191/3/3
f 195/3/3 194/3/3 193/3/3
f 196/3/3 194/3/3 195/3/3
f 199/3/3 198/3/3 197/3/3
f 200/3/3 198/3/3 199/3/3
f 201/3/4 202/3/4 203/3/4
f 203/3/4 202/3/4 204/3/4
f 205/3/4 206/3/4 207/3/4
f 207/3/4 206/3/4 208/3/4
f 209/3/4 210/3/4 211/3/4
f 211/3/4 210/3/4 212/3/4
f 213/3/4 214/3/4 215/3/4
f 215/3/4 214/3/4 216/3/4
f 217/3/4 218/3/4 219/3/4
f 219/3/4 218/3/4 220/3/4
f 221/3/4 222/3/4 223/3/4
f 223/3/4 222/3/4 224/3/4
f 225/3/4 226/3/4 227/3/4
f 227/3/4 226/3/4 228/3/4
f 229/3/4 230/3/4 231/3/4
f 231/3/4 230/3/4 232/3/4
f 233/3/4 234/3/4 235/3/4
f 235/3/4 234/3/4 236/3/4
f 233/3/4 235/3/4 237/3/4
f 235/4/4 236/4/4 237/4/4
f 237/4/4 236/4/4 238/4/4
f 238/4/4 236/4/4 239/4/4
f 237/3/4 238/3/4 240/3/4
f 238/2/4 239/2/4 240/2/4
f 240/2/4 239/2/4 241/2/4
f 237/3/4 240/3/4 242/3/4
f 240/3/4 241/3/4 242/3/4
f 241/2/4 239/2/4 243/2/4
f 242/3/4 241/3/4 243/3/4
f 233/3/4 237/3/4 244/3/4
f 237/3/4 242/3/4 244/3/4
f 242/2/4 243/2/4 245/2/4
f 244/3/4 242/3/4 245/3/4
f 243/2/4 239/2/4 246/2/4
f 245/2/4 243/2/4 246/2/4
f 239/4/4 236/4/4 246/4/4
f 244/4/4 245/4/4 247/4/4
f 233/3/4 244/3/4 247/3/4
f 245/4/4 246/4/4 247/4/4
f 236/3/4 234/3/4 248/3/4
f 247/4/4 246/4/4 248/4/4
f 246/4/4 236/4/4 248/4/4
f 233/3/4 247/3/4 249/3/4
f 247/3/4 248/3/4 249/3/4
f 248/3/4 234/3/4 250/3/4
f 249/3/4 248/3/4 250/3/4
f 251/3/4 252/3/4 253/3/4
f 253/3/4 252/3/4 254/3/4
f 255/3/4 256/3/4 257/3/4
f 255/3/4 257/3/4 259/3/4
f 257/3/4 258/3/4 259/3/4
f 259/3/4 258/3/4 260/3/4
f 255/3/4 259/3/4 261/3/4
f 261/3/4 259/3/4 262/3/4
f 263/3/4 264/3/4 265/3/4
f 265/3/4 264/3/4 266/3/4
f 269/3/5 268/3/5 267/3/5
f 270/3/5 268/3/5 269/3/5
f 273/3/5 272/3/5 271/3/5
f 274/3/5 272/3/5 273/3/5
f 280/3/5 276/3/5 275/3/5
f 281/3/5 276/3/5 280/3/5
f 282/3/5 278/3/5 277/3/5
f 283/3/5 278/3/5 282/3/5
f 285/3/5 280/3/5 279/3/5
f 286/3/5 280/3/5 285/3/5
f 287/3/5 284/3/5 283/3/5
f 288/3/5 284/3/5 287/3/5
f 293/3/5 290/3/5 289/3/5
f 294/3/5 290/3/5 293/3/5
f 295/3/5 292/3/5 291/3/5
f 296/3/5 292/3/5 295/3/5
f 301/3/5 298/3/5 297/3/5
f 302/3/5 298/3/5 301/3/5
f 303/3/5 300/3/5 299/3/5
f 304/3/5 300/3/5 303/3/5
f 309/3/5 306/3/5 305/3/5
f 310/3/5 306/3/5 309/3/5
f 311/3/5 308/3/5 307/3/5
f 312/3/5 308/3/5 311/3/5
f 313/3/6 314/3/6 315/3/6
f 315/3/6 314/3/6 316/3/6
f 313/3/6 315/3/6 317/3/6
f 316/3/6 314/3/6 318/3/6
f 313/3/6 317/3/6 319/3/6
f 317/3/6 318/3/6 319/3/6
f 318/3/6 314/3/6 320/3/6
f 319/3/6 318/3/6 320/3/6
f 321/3/6 322/3/6 323/3/6
f 323/3/6 322/3/6 324/3/6
f 324/3/6 322/3/6 325/3/6
f 325/3/6 322/3/6 326/3/6
f 321/3/6 323/3/6 327/3/6
f 323/4/6 324/4/6 327/4/6
f 327/4/6 324/4/6 328/4/6
f 325/4/6 326/4/6 329/4/6
f 326/3/6 322/3/6 330/3/6
f 329/4/6 326/4/6 330/4/6
f 321/3/6 327/3/6 331/3/6
f 330/3/6 322/3/6 332/3/6
f 321/3/6 331/3/6 333/3/6
f 331/3/6 332/3/6 333/3/6
f 332/3/6 322/3/6 334/3/6
f 333/3/6 332/3/6 334/3/6
f 335/3/6 336/3/6 339/3/6
f 339/3/6 336/3/6 340/3/6
f 337/3/6 338/3/6 341/3/6
f 341/3/6 338/3/6 342/3/6
f 343/3/6 344/3/6 347/3/6
f 347/3/6 344/3/6 348/3/6
f 345/3/6 346/3/6 349/3/6
f 349/3/6 346/3/6 350/3/6
f 351/3/6 352/3/6 355/3/6
f 355/3/6 352/3/6 356/3/6
f 353/3/6 354/3/6 357/3/6
f 357/3/6 354/3/6 358/3/6
f 359/3/6 360/3/6 363/3/6
f 363/3/6 360/3/6 364/3/6
f 361/3/6 362/3/6 365/3/6
f 365/3/6 362/3/6 366/3/6
f 367/3/6 368/3/6 371/3/6
f 371/3/6 368/3/6 372/3/6
f 369/3/6 370/3/6 373/3/6
f 373/3/6 370/3/6 374/3/6
f 375/3/6 376/3/6 379/3/6
f 379/3/6 376/3/6 380/3/6
f 377/3/6 378/3/6 381/3/6
f 381/3/6 378/3/6 382/3/6
f 383/3/6 384/3/6 387/3/6
f 387/3/6 384/3/6 388/3/6
f 385/3/6 386/3/6 389/3/6
f 389/3/6 386/3/6 390/3/6
f 391/3/6 392/3/6 395/3/6
f 395/3/6 392/3/6 396/3/6
f 393/3/6 394/3/6 397/3/6
f 397/3/6 394/3/6 398/3/6
f 399/3/6 400/3/6 401/3/6
f 401/3/6 400/3/6 402/3/6
