# MagicaVoxel @ Ephtracy

# group
o 

# material
mtllib rook.blue.mtl
usemtl palette

# normals
vn -1 0 0
vn 1 0 0
vn 0 0 1
vn 0 0 -1
vn 0 -1 0
vn 0 1 0

# texcoords
vt 0.306641 0.5
vt 0.810547 0.5
vt 0.861328 0.5
vt 0.986328 0.5
vt 0.990234 0.5

# verts
v 2.8 2 -2.8
v 2.8 2 -3.8
v 2.8 2 -4.2
v 2.8 2 -5.2
v 2.8 2.2 -3.4
v 2.8 2.2 -3.6
v 2.8 2.2 -4.4
v 2.8 2.2 -4.6
v 2.8 2.4 -3.2
v 2.8 2.4 -3.4
v 2.8 2.4 -4.6
v 2.8 2.4 -4.8
v 2.8 2.6 -3
v 2.8 2.6 -3.2
v 2.8 2.6 -3.4
v 2.8 2.6 -3.6
v 2.8 2.6 -4.4
v 2.8 2.6 -4.6
v 2.8 2.6 -4.8
v 2.8 2.6 -5
v 2.8 2.8 -2.8
v 2.8 2.8 -3
v 2.8 2.8 -3.4
v 2.8 2.8 -3.8
v 2.8 2.8 -4.2
v 2.8 2.8 -4.6
v 2.8 2.8 -5
v 2.8 2.8 -5.2
v 3 2 -3.8
v 3 2 -4.2
v 3 2.8 -3
v 3 2.8 -3.2
v 3 2.8 -3.4
v 3 2.8 -3.8
v 3 2.8 -4.2
v 3 2.8 -4.6
v 3 2.8 -4.8
v 3 2.8 -5
v 3 3 -3
v 3 3 -3.2
v 3 3 -4.8
v 3 3 -5
v 3.2 3 -3.2
v 3.2 3 -4.8
v 3.2 3.2 -3.2
v 3.2 3.2 -4.8
v 3.4 3.2 -3.4
v 3.4 3.2 -4.6
v 3.4 4.2 -3.4
v 3.4 4.2 -4.6
v 3.4 5.8 -3.4
v 3.4 5.8 -4.6
v 3.4 6.2 -3.8
v 3.4 6.2 -4.2
v 3.4 6.5 -3.4
v 3.4 6.5 -3.8
v 3.4 6.5 -4.2
v 3.4 6.5 -4.6
v 3.5 4.2 -3.5
v 3.5 4.2 -4.5
v 3.5 5.8 -3.5
v 3.5 5.8 -4.5
v 4.2 2 -2.8
v 4.2 2 -3
v 4.2 2 -5
v 4.2 2 -5.2
v 4.2 2.8 -2.8
v 4.2 2.8 -3
v 4.2 2.8 -5
v 4.2 2.8 -5.2
v 4.2 6.2 -3.4
v 4.2 6.2 -3.8
v 4.2 6.2 -4.2
v 4.2 6.2 -4.6
v 4.2 6.5 -3.4
v 4.2 6.5 -3.8
v 4.2 6.5 -4.2
v 4.2 6.5 -4.6
v 3.8 2 -2.8
v 3.8 2 -3
v 3.8 2 -5
v 3.8 2 -5.2
v 3.8 2.8 -2.8
v 3.8 2.8 -3
v 3.8 2.8 -5
v 3.8 2.8 -5.2
v 3.8 6.2 -3.4
v 3.8 6.2 -3.8
v 3.8 6.2 -4.2
v 3.8 6.2 -4.6
v 3.8 6.5 -3.4
v 3.8 6.5 -3.8
v 3.8 6.5 -4.2
v 3.8 6.5 -4.6
v 4.5 4.2 -3.5
v 4.5 4.2 -4.5
v 4.5 5.8 -3.5
v 4.5 5.8 -4.5
v 4.6 3.2 -3.4
v 4.6 3.2 -4.6
v 4.6 4.2 -3.4
v 4.6 4.2 -4.6
v 4.6 5.8 -3.4
v 4.6 5.8 -4.6
v 4.6 6.2 -3.8
v 4.6 6.2 -4.2
v 4.6 6.5 -3.4
v 4.6 6.5 -3.8
v 4.6 6.5 -4.2
v 4.6 6.5 -4.6
v 4.8 3 -3.2
v 4.8 3 -4.8
v 4.8 3.2 -3.2
v 4.8 3.2 -4.8
v 5 2 -3.8
v 5 2 -4.2
v 5 2.8 -3
v 5 2.8 -3.2
v 5 2.8 -3.4
v 5 2.8 -3.8
v 5 2.8 -4.2
v 5 2.8 -4.6
v 5 2.8 -4.8
v 5 2.8 -5
v 5 3 -3
v 5 3 -3.2
v 5 3 -4.8
v 5 3 -5
v 5.2 2 -2.8
v 5.2 2 -3.8
v 5.2 2 -4.2
v 5.2 2 -5.2
v 5.2 2.2 -3.4
v 5.2 2.2 -3.6
v 5.2 2.2 -4.4
v 5.2 2.2 -4.6
v 5.2 2.4 -3.2
v 5.2 2.4 -3.4
v 5.2 2.4 -4.6
v 5.2 2.4 -4.8
v 5.2 2.6 -3
v 5.2 2.6 -3.2
v 5.2 2.6 -3.4
v 5.2 2.6 -3.6
v 5.2 2.6 -4.4
v 5.2 2.6 -4.6
v 5.2 2.6 -4.8
v 5.2 2.6 -5
v 5.2 2.8 -2.8
v 5.2 2.8 -3
v 5.2 2.8 -3.4
v 5.2 2.8 -3.8
v 5.2 2.8 -4.2
v 5.2 2.8 -4.6
v 5.2 2.8 -5
v 5.2 2.8 -5.2
v 2.8 2 -2.8
v 2.8 2.8 -2.8
v 3 2.6 -2.8
v 3 2.8 -2.8
v 3.2 2.4 -2.8
v 3.2 2.6 -2.8
v 3.4 2.2 -2.8
v 3.4 2.4 -2.8
v 3.4 2.6 -2.8
v 3.4 2.8 -2.8
v 3.6 2.2 -2.8
v 3.6 2.6 -2.8
v 3.8 2 -2.8
v 3.8 2.8 -2.8
v 4.2 2 -2.8
v 4.2 2.8 -2.8
v 4.4 2.2 -2.8
v 4.4 2.6 -2.8
v 4.6 2.2 -2.8
v 4.6 2.4 -2.8
v 4.6 2.6 -2.8
v 4.6 2.8 -2.8
v 4.8 2.4 -2.8
v 4.8 2.6 -2.8
v 5 2.6 -2.8
v 5 2.8 -2.8
v 5.2 2 -2.8
v 5.2 2.8 -2.8
v 3 2.8 -3
v 3 3 -3
v 3.2 2.8 -3
v 3.2 3 -3
v 3.4 2.8 -3
v 3.8 2 -3
v 3.8 2.8 -3
v 4.2 2 -3
v 4.2 2.8 -3
v 4.6 2.8 -3
v 4.8 2.8 -3
v 4.8 3 -3
v 5 2.8 -3
v 5 3 -3
v 3.2 3 -3.2
v 3.2 3.2 -3.2
v 4.8 3 -3.2
v 4.8 3.2 -3.2
v 3.4 3.2 -3.4
v 3.4 4.2 -3.4
v 3.4 5.8 -3.4
v 3.4 6.5 -3.4
v 3.8 6.2 -3.4
v 3.8 6.5 -3.4
v 4.2 6.2 -3.4
v 4.2 6.5 -3.4
v 4.6 3.2 -3.4
v 4.6 4.2 -3.4
v 4.6 5.8 -3.4
v 4.6 6.5 -3.4
v 3.5 4.2 -3.5
v 3.5 5.8 -3.5
v 4.5 4.2 -3.5
v 4.5 5.8 -3.5
v 2.8 2 -4.2
v 2.8 2.8 -4.2
v 3 2 -4.2
v 3 2.8 -4.2
v 3.4 6.2 -4.2
v 3.4 6.5 -4.2
v 3.8 6.2 -4.2
v 3.8 6.5 -4.2
v 4.2 6.2 -4.2
v 4.2 6.5 -4.2
v 4.6 6.2 -4.2
v 4.6 6.5 -4.2
v 5 2 -4.2
v 5 2.8 -4.2
v 5.2 2 -4.2
v 5.2 2.8 -4.2
v 2.8 2 -3.8
v 2.8 2.8 -3.8
v 3 2 -3.8
v 3 2.8 -3.8
v 3.4 6.2 -3.8
v 3.4 6.5 -3.8
v 3.8 6.2 -3.8
v 3.8 6.5 -3.8
v 4.2 6.2 -3.8
v 4.2 6.5 -3.8
v 4.6 6.2 -3.8
v 4.6 6.5 -3.8
v 5 2 -3.8
v 5 2.8 -3.8
v 5.2 2 -3.8
v 5.2 2.8 -3.8
v 3.5 4.2 -4.5
v 3.5 5.8 -4.5
v 3.6 4.5 -4.5
v 3.6 5.5 -4.5
v 3.8 4.5 -4.5
v 3.8 4.6 -4.5
v 3.8 5.3 -4.5
v 3.9 4.6 -4.5
v 3.9 4.7 -4.5
v 4.1 4.6 -4.5
v 4.1 4.7 -4.5
v 4.2 4.5 -4.5
v 4.2 4.6 -4.5
v 4.2 5.3 -4.5
v 4.4 4.5 -4.5
v 4.4 5.5 -4.5
v 4.5 4.2 -4.5
v 4.5 5.8 -4.5
v 3.4 3.2 -4.6
v 3.4 4.2 -4.6
v 3.4 5.8 -4.6
v 3.4 6.5 -4.6
v 3.8 6.2 -4.6
v 3.8 6.5 -4.6
v 4.2 6.2 -4.6
v 4.2 6.5 -4.6
v 4.6 3.2 -4.6
v 4.6 4.2 -4.6
v 4.6 5.8 -4.6
v 4.6 6.5 -4.6
v 3.2 3 -4.8
v 3.2 3.2 -4.8
v 4.8 3 -4.8
v 4.8 3.2 -4.8
v 3 2.8 -5
v 3 3 -5
v 3.2 2.8 -5
v 3.2 3 -5
v 3.4 2.8 -5
v 3.8 2 -5
v 3.8 2.8 -5
v 4.2 2 -5
v 4.2 2.8 -5
v 4.6 2.8 -5
v 4.8 2.8 -5
v 4.8 3 -5
v 5 2.8 -5
v 5 3 -5
v 2.8 2 -5.2
v 2.8 2.8 -5.2
v 3 2.6 -5.2
v 3 2.8 -5.2
v 3.2 2.4 -5.2
v 3.2 2.6 -5.2
v 3.4 2.2 -5.2
v 3.4 2.4 -5.2
v 3.4 2.6 -5.2
v 3.4 2.8 -5.2
v 3.6 2.2 -5.2
v 3.6 2.6 -5.2
v 3.8 2 -5.2
v 3.8 2.8 -5.2
v 4.2 2 -5.2
v 4.2 2.8 -5.2
v 4.4 2.2 -5.2
v 4.4 2.6 -5.2
v 4.6 2.2 -5.2
v 4.6 2.4 -5.2
v 4.6 2.6 -5.2
v 4.6 2.8 -5.2
v 4.8 2.4 -5.2
v 4.8 2.6 -5.2
v 5 2.6 -5.2
v 5 2.8 -5.2
v 5.2 2 -5.2
v 5.2 2.8 -5.2
v 2.8 2 -2.8
v 3.8 2 -2.8
v 4.2 2 -2.8
v 5.2 2 -2.8
v 3.8 2 -3
v 4.2 2 -3
v 2.8 2 -3.8
v 3 2 -3.8
v 5 2 -3.8
v 5.2 2 -3.8
v 2.8 2 -4.2
v 3 2 -4.2
v 5 2 -4.2
v 5.2 2 -4.2
v 3.8 2 -5
v 4.2 2 -5
v 2.8 2 -5.2
v 3.8 2 -5.2
v 4.2 2 -5.2
v 5.2 2 -5.2
v 3.4 5.8 -3.4
v 4.6 5.8 -3.4
v 3.5 5.8 -3.5
v 4.5 5.8 -3.5
v 3.5 5.8 -4.5
v 4.5 5.8 -4.5
v 3.4 5.8 -4.6
v 4.6 5.8 -4.6
v 2.8 2.8 -2.8
v 3 2.8 -2.8
v 3.4 2.8 -2.8
v 3.8 2.8 -2.8
v 4.2 2.8 -2.8
v 4.6 2.8 -2.8
v 5 2.8 -2.8
v 5.2 2.8 -2.8
v 2.8 2.8 -3
v 3 2.8 -3
v 3.2 2.8 -3
v 3.4 2.8 -3
v 3.8 2.8 -3
v 4.2 2.8 -3
v 4.6 2.8 -3
v 4.8 2.8 -3
v 5 2.8 -3
v 5.2 2.8 -3
v 3 2.8 -3.2
v 5 2.8 -3.2
v 2.8 2.8 -3.4
v 3 2.8 -3.4
v 5 2.8 -3.4
v 5.2 2.8 -3.4
v 2.8 2.8 -3.8
v 3 2.8 -3.8
v 5 2.8 -3.8
v 5.2 2.8 -3.8
v 2.8 2.8 -4.2
v 3 2.8 -4.2
v 5 2.8 -4.2
v 5.2 2.8 -4.2
v 2.8 2.8 -4.6
v 3 2.8 -4.6
v 5 2.8 -4.6
v 5.2 2.8 -4.6
v 3 2.8 -4.8
v 5 2.8 -4.8
v 2.8 2.8 -5
v 3 2.8 -5
v 3.2 2.8 -5
v 3.4 2.8 -5
v 3.8 2.8 -5
v 4.2 2.8 -5
v 4.6 2.8 -5
v 4.8 2.8 -5
v 5 2.8 -5
v 5.2 2.8 -5
v 2.8 2.8 -5.2
v 3 2.8 -5.2
v 3.4 2.8 -5.2
v 3.8 2.8 -5.2
v 4.2 2.8 -5.2
v 4.6 2.8 -5.2
v 5 2.8 -5.2
v 5.2 2.8 -5.2
v 3 3 -3
v 3.2 3 -3
v 4.8 3 -3
v 5 3 -3
v 3 3 -3.2
v 3.2 3 -3.2
v 4.8 3 -3.2
v 5 3 -3.2
v 3 3 -4.8
v 3.2 3 -4.8
v 4.8 3 -4.8
v 5 3 -4.8
v 3 3 -5
v 3.2 3 -5
v 4.8 3 -5
v 5 3 -5
v 3.2 3.2 -3.2
v 4.8 3.2 -3.2
v 3.4 3.2 -3.4
v 4.6 3.2 -3.4
v 3.4 3.2 -4.6
v 4.6 3.2 -4.6
v 3.2 3.2 -4.8
v 4.8 3.2 -4.8
v 3.4 4.2 -3.4
v 4.6 4.2 -3.4
v 3.5 4.2 -3.5
v 4.5 4.2 -3.5
v 3.5 4.2 -4.5
v 4.5 4.2 -4.5
v 3.4 4.2 -4.6
v 4.6 4.2 -4.6
v 3.8 6.2 -3.4
v 4.2 6.2 -3.4
v 3.4 6.2 -3.8
v 3.8 6.2 -3.8
v 4.2 6.2 -3.8
v 4.6 6.2 -3.8
v 3.4 6.2 -4.2
v 3.8 6.2 -4.2
v 4.2 6.2 -4.2
v 4.6 6.2 -4.2
v 3.8 6.2 -4.6
v 4.2 6.2 -4.6
v 3.4 6.5 -3.4
v 3.8 6.5 -3.4
v 4.2 6.5 -3.4
v 4.6 6.5 -3.4
v 3.4 6.5 -3.8
v 3.8 6.5 -3.8
v 4.2 6.5 -3.8
v 4.6 6.5 -3.8
v 3.4 6.5 -4.2
v 3.8 6.5 -4.2
v 4.2 6.5 -4.2
v 4.6 6.5 -4.2
v 3.4 6.5 -4.6
v 3.8 6.5 -4.6
v 4.2 6.5 -4.6
v 4.6 6.5 -4.6

# faces
f 5/4/1 2/4/1 1/4/1
f 6/4/1 2/4/1 5/4/1
f 7/4/1 4/4/1 3/4/1
f 8/4/1 4/4/1 7/4/1
f 9/4/1 5/4/1 1/4/1
f 10/2/1 6/2/1 5/2/1
f 10/4/1 5/4/1 9/4/1
f 11/4/1 4/4/1 8/4/1
f 11/2/1 8/2/1 7/2/1
f 12/4/1 4/4/1 11/4/1
f 13/4/1 9/4/1 1/4/1
f 14/2/1 10/2/1 9/2/1
f 14/4/1 9/4/1 13/4/1
f 15/2/1 6/2/1 10/2/1
f 15/2/1 10/2/1 14/2/1
f 16/4/1 2/4/1 6/4/1
f 16/2/1 6/2/1 15/2/1
f 17/4/1 7/4/1 3/4/1
f 17/2/1 11/2/1 7/2/1
f 17/2/1 12/2/1 11/2/1
f 18/2/1 12/2/1 17/2/1
f 19/4/1 4/4/1 12/4/1
f 19/2/1 12/2/1 18/2/1
f 20/4/1 4/4/1 19/4/1
f 21/4/1 13/4/1 1/4/1
f 22/2/1 15/2/1 14/2/1
f 22/4/1 13/4/1 21/4/1
f 22/2/1 14/2/1 13/2/1
f 23/4/1 16/4/1 15/4/1
f 23/2/1 15/2/1 22/2/1
f 24/4/1 2/4/1 16/4/1
f 24/4/1 16/4/1 23/4/1
f 25/4/1 18/4/1 17/4/1
f 25/4/1 17/4/1 3/4/1
f 26/2/1 20/2/1 19/2/1
f 26/4/1 18/4/1 25/4/1
f 26/2/1 19/2/1 18/2/1
f 27/4/1 4/4/1 20/4/1
f 27/2/1 20/2/1 26/2/1
f 28/4/1 4/4/1 27/4/1
f 34/4/1 30/4/1 29/4/1
f 35/4/1 30/4/1 34/4/1
f 39/2/1 32/2/1 31/2/1
f 40/4/1 33/4/1 32/4/1
f 40/2/1 32/2/1 39/2/1
f 40/4/1 34/4/1 33/4/1
f 40/4/1 37/4/1 36/4/1
f 40/4/1 36/4/1 35/4/1
f 40/4/1 35/4/1 34/4/1
f 41/2/1 38/2/1 37/2/1
f 41/4/1 37/4/1 40/4/1
f 42/2/1 38/2/1 41/2/1
f 45/4/1 44/4/1 43/4/1
f 46/4/1 44/4/1 45/4/1
f 49/4/1 48/4/1 47/4/1
f 50/4/1 48/4/1 49/4/1
f 53/4/1 52/4/1 51/4/1
f 54/4/1 52/4/1 53/4/1
f 55/4/1 53/4/1 51/4/1
f 56/4/1 53/4/1 55/4/1
f 57/4/1 52/4/1 54/4/1
f 58/4/1 52/4/1 57/4/1
f 61/4/1 60/4/1 59/4/1
f 62/4/1 60/4/1 61/4/1
f 67/4/1 64/4/1 63/4/1
f 68/4/1 64/4/1 67/4/1
f 69/4/1 66/4/1 65/4/1
f 70/4/1 66/4/1 69/4/1
f 75/4/1 72/4/1 71/4/1
f 76/4/1 72/4/1 75/4/1
f 77/4/1 74/4/1 73/4/1
f 78/4/1 74/4/1 77/4/1
f 79/4/2 80/4/2 83/4/2
f 83/4/2 80/4/2 84/4/2
f 81/4/2 82/4/2 85/4/2
f 85/4/2 82/4/2 86/4/2
f 87/4/2 88/4/2 91/4/2
f 91/4/2 88/4/2 92/4/2
f 89/4/2 90/4/2 93/4/2
f 93/4/2 90/4/2 94/4/2
f 95/4/2 96/4/2 97/4/2
f 97/4/2 96/4/2 98/4/2
f 99/4/2 100/4/2 101/4/2
f 101/4/2 100/4/2 102/4/2
f 103/4/2 104/4/2 105/4/2
f 105/4/2 104/4/2 106/4/2
f 103/4/2 105/4/2 107/4/2
f 107/4/2 105/4/2 108/4/2
f 106/4/2 104/4/2 109/4/2
f 109/4/2 104/4/2 110/4/2
f 111/4/2 112/4/2 113/4/2
f 113/4/2 112/4/2 114/4/2
f 115/4/2 116/4/2 120/4/2
f 120/4/2 116/4/2 121/4/2
f 117/2/2 118/2/2 125/2/2
f 118/4/2 119/4/2 126/4/2
f 125/2/2 118/2/2 126/2/2
f 119/4/2 120/4/2 126/4/2
f 122/4/2 123/4/2 126/4/2
f 121/4/2 122/4/2 126/4/2
f 120/4/2 121/4/2 126/4/2
f 123/2/2 124/2/2 127/2/2
f 126/4/2 123/4/2 127/4/2
f 127/2/2 124/2/2 128/2/2
f 129/4/2 130/4/2 133/4/2
f 133/4/2 130/4/2 134/4/2
f 131/4/2 132/4/2 135/4/2
f 135/4/2 132/4/2 136/4/2
f 129/4/2 133/4/2 137/4/2
f 133/2/2 134/2/2 138/2/2
f 137/4/2 133/4/2 138/4/2
f 136/4/2 132/4/2 139/4/2
f 135/2/2 136/2/2 139/2/2
f 139/4/2 132/4/2 140/4/2
f 129/4/2 137/4/2 141/4/2
f 137/2/2 138/2/2 142/2/2
f 141/4/2 137/4/2 142/4/2
f 138/2/2 134/2/2 143/2/2
f 142/2/2 138/2/2 143/2/2
f 134/4/2 130/4/2 144/4/2
f 143/2/2 134/2/2 144/2/2
f 131/4/2 135/4/2 145/4/2
f 135/2/2 139/2/2 145/2/2
f 139/2/2 140/2/2 145/2/2
f 145/2/2 140/2/2 146/2/2
f 140/4/2 132/4/2 147/4/2
f 146/2/2 140/2/2 147/2/2
f 147/4/2 132/4/2 148/4/2
f 129/4/2 141/4/2 149/4/2
f 142/2/2 143/2/2 150/2/2
f 149/4/2 141/4/2 150/4/2
f 141/2/2 142/2/2 150/2/2
f 143/4/2 144/4/2 151/4/2
f 150/2/2 143/2/2 151/2/2
f 144/4/2 130/4/2 152/4/2
f 151/4/2 144/4/2 152/4/2
f 145/4/2 146/4/2 153/4/2
f 131/4/2 145/4/2 153/4/2
f 147/2/2 148/2/2 154/2/2
f 153/4/2 146/4/2 154/4/2
f 146/2/2 147/2/2 154/2/2
f 148/4/2 132/4/2 155/4/2
f 154/2/2 148/2/2 155/2/2
f 155/4/2 132/4/2 156/4/2
f 159/4/3 158/4/3 157/4/3
f 160/4/3 158/4/3 159/4/3
f 161/4/3 159/4/3 157/4/3
f 162/2/3 160/2/3 159/2/3
f 162/4/3 159/4/3 161/4/3
f 163/4/3 161/4/3 157/4/3
f 164/2/3 162/2/3 161/2/3
f 164/4/3 161/4/3 163/4/3
f 165/2/3 160/2/3 162/2/3
f 165/2/3 162/2/3 164/2/3
f 166/2/3 160/2/3 165/2/3
f 167/2/3 164/2/3 163/2/3
f 167/4/3 163/4/3 157/4/3
f 167/2/3 165/2/3 164/2/3
f 168/4/3 166/4/3 165/4/3
f 168/2/3 165/2/3 167/2/3
f 169/4/3 167/4/3 157/4/3
f 169/4/3 168/4/3 167/4/3
f 170/4/3 166/4/3 168/4/3
f 170/4/3 168/4/3 169/4/3
f 173/4/3 172/4/3 171/4/3
f 174/4/3 172/4/3 173/4/3
f 175/4/3 173/4/3 171/4/3
f 175/2/3 174/2/3 173/2/3
f 176/2/3 174/2/3 175/2/3
f 177/4/3 172/4/3 174/4/3
f 177/2/3 174/2/3 176/2/3
f 178/4/3 172/4/3 177/4/3
f 179/4/3 176/4/3 175/4/3
f 179/2/3 177/2/3 176/2/3
f 179/2/3 178/2/3 177/2/3
f 180/2/3 178/2/3 179/2/3
f 181/4/3 180/4/3 179/4/3
f 181/2/3 178/2/3 180/2/3
f 182/2/3 178/2/3 181/2/3
f 183/4/3 175/4/3 171/4/3
f 183/4/3 179/4/3 175/4/3
f 183/4/3 182/4/3 181/4/3
f 183/4/3 181/4/3 179/4/3
f 184/4/3 182/4/3 183/4/3
f 187/2/3 186/2/3 185/2/3
f 188/2/3 186/2/3 187/2/3
f 189/4/3 188/4/3 187/4/3
f 191/4/3 188/4/3 189/4/3
f 192/4/3 191/4/3 190/4/3
f 193/4/3 188/4/3 191/4/3
f 193/4/3 191/4/3 192/4/3
f 194/4/3 188/4/3 193/4/3
f 195/4/3 188/4/3 194/4/3
f 196/4/3 188/4/3 195/4/3
f 197/2/3 196/2/3 195/2/3
f 198/2/3 196/2/3 197/2/3
f 201/4/3 200/4/3 199/4/3
f 202/4/3 200/4/3 201/4/3
f 207/4/3 206/4/3 205/4/3
f 208/4/3 206/4/3 207/4/3
f 209/4/3 207/4/3 205/4/3
f 211/4/3 204/4/3 203/4/3
f 212/4/3 204/4/3 211/4/3
f 213/4/3 210/4/3 209/4/3
f 213/4/3 209/4/3 205/4/3
f 214/4/3 210/4/3 213/4/3
f 217/4/3 216/4/3 215/4/3
f 218/4/3 216/4/3 217/4/3
f 221/4/3 220/4/3 219/4/3
f 222/4/3 220/4/3 221/4/3
f 225/4/3 224/4/3 223/4/3
f 226/4/3 224/4/3 225/4/3
f 229/4/3 228/4/3 227/4/3
f 230/4/3 228/4/3 229/4/3
f 233/4/3 232/4/3 231/4/3
f 234/4/3 232/4/3 233/4/3
f 235/4/4 236/4/4 237/4/4
f 237/4/4 236/4/4 238/4/4
f 239/4/4 240/4/4 241/4/4
f 241/4/4 240/4/4 242/4/4
f 243/4/4 244/4/4 245/4/4
f 245/4/4 244/4/4 246/4/4
f 247/4/4 248/4/4 249/4/4
f 249/4/4 248/4/4 250/4/4
f 251/4/4 252/4/4 253/4/4
f 253/4/4 252/4/4 254/4/4
f 251/4/4 253/4/4 255/4/4
f 253/5/4 254/5/4 255/5/4
f 255/5/4 254/5/4 256/5/4
f 256/5/4 254/5/4 257/5/4
f 255/4/4 256/4/4 258/4/4
f 256/2/4 257/2/4 258/2/4
f 258/2/4 257/2/4 259/2/4
f 255/4/4 258/4/4 260/4/4
f 258/4/4 259/4/4 260/4/4
f 259/2/4 257/2/4 261/2/4
f 260/4/4 259/4/4 261/4/4
f 251/4/4 255/4/4 262/4/4
f 255/4/4 260/4/4 262/4/4
f 260/2/4 261/2/4 263/2/4
f 262/4/4 260/4/4 263/4/4
f 261/2/4 257/2/4 264/2/4
f 263/2/4 261/2/4 264/2/4
f 257/5/4 254/5/4 264/5/4
f 262/5/4 263/5/4 265/5/4
f 251/4/4 262/4/4 265/4/4
f 263/5/4 264/5/4 265/5/4
f 254/4/4 252/4/4 266/4/4
f 265/5/4 264/5/4 266/5/4
f 264/5/4 254/5/4 266/5/4
f 251/4/4 265/4/4 267/4/4
f 265/4/4 266/4/4 267/4/4
f 266/4/4 252/4/4 268/4/4
f 267/4/4 266/4/4 268/4/4
f 271/4/4 272/4/4 273/4/4
f 273/4/4 272/4/4 274/4/4
f 271/4/4 273/4/4 275/4/4
f 269/4/4 270/4/4 277/4/4
f 277/4/4 270/4/4 278/4/4
f 275/4/4 276/4/4 279/4/4
f 271/4/4 275/4/4 279/4/4
f 279/4/4 276/4/4 280/4/4
f 281/4/4 282/4/4 283/4/4
f 283/4/4 282/4/4 284/4/4
f 285/2/4 286/2/4 287/2/4
f 287/2/4 286/2/4 288/2/4
f 287/4/4 288/4/4 289/4/4
f 289/4/4 288/4/4 291/4/4
f 290/4/4 291/4/4 292/4/4
f 291/4/4 288/4/4 293/4/4
f 292/4/4 291/4/4 293/4/4
f 293/4/4 288/4/4 294/4/4
f 294/4/4 288/4/4 295/4/4
f 295/4/4 288/4/4 296/4/4
f 295/2/4 296/2/4 297/2/4
f 297/2/4 296/2/4 298/2/4
f 299/4/4 300/4/4 301/4/4
f 301/4/4 300/4/4 302/4/4
f 299/4/4 301/4/4 303/4/4
f 301/2/4 302/2/4 304/2/4
f 303/4/4 301/4/4 304/4/4
f 299/4/4 303/4/4 305/4/4
f 303/2/4 304/2/4 306/2/4
f 305/4/4 303/4/4 306/4/4
f 304/2/4 302/2/4 307/2/4
f 306/2/4 304/2/4 307/2/4
f 307/2/4 302/2/4 308/2/4
f 305/2/4 306/2/4 309/2/4
f 299/4/4 305/4/4 309/4/4
f 306/2/4 307/2/4 309/2/4
f 307/4/4 308/4/4 310/4/4
f 309/2/4 307/2/4 310/2/4
f 299/4/4 309/4/4 311/4/4
f 309/4/4 310/4/4 311/4/4
f 310/4/4 308/4/4 312/4/4
f 311/4/4 310/4/4 312/4/4
f 313/4/4 314/4/4 315/4/4
f 315/4/4 314/4/4 316/4/4
f 313/4/4 315/4/4 317/4/4
f 315/2/4 316/2/4 317/2/4
f 317/2/4 316/2/4 318/2/4
f 316/4/4 314/4/4 319/4/4
f 318/2/4 316/2/4 319/2/4
f 319/4/4 314/4/4 320/4/4
f 317/4/4 318/4/4 321/4/4
f 318/2/4 319/2/4 321/2/4
f 319/2/4 320/2/4 321/2/4
f 321/2/4 320/2/4 322/2/4
f 321/4/4 322/4/4 323/4/4
f 322/2/4 320/2/4 323/2/4
f 323/2/4 320/2/4 324/2/4
f 313/4/4 317/4/4 325/4/4
f 317/4/4 321/4/4 325/4/4
f 323/4/4 324/4/4 325/4/4
f 321/4/4 323/4/4 325/4/4
f 325/4/4 324/4/4 326/4/4
f 331/4/5 328/4/5 327/4/5
f 332/4/5 330/4/5 329/4/5
f 333/4/5 331/4/5 327/4/5
f 333/4/5 332/4/5 331/4/5
f 334/4/5 332/4/5 333/4/5
f 335/4/5 330/4/5 332/4/5
f 335/4/5 332/4/5 334/4/5
f 336/4/5 330/4/5 335/4/5
f 338/4/5 335/4/5 334/4/5
f 339/4/5 335/4/5 338/4/5
f 341/4/5 338/4/5 337/4/5
f 341/4/5 340/4/5 339/4/5
f 341/4/5 339/4/5 338/4/5
f 342/4/5 340/4/5 341/4/5
f 343/4/5 341/4/5 337/4/5
f 344/4/5 341/4/5 343/4/5
f 345/4/5 340/4/5 342/4/5
f 346/4/5 340/4/5 345/4/5
f 349/4/5 348/4/5 347/4/5
f 350/4/5 348/4/5 349/4/5
f 351/4/5 349/4/5 347/4/5
f 352/4/5 348/4/5 350/4/5
f 353/4/5 351/4/5 347/4/5
f 353/4/5 352/4/5 351/4/5
f 354/4/5 348/4/5 352/4/5
f 354/4/5 352/4/5 353/4/5
f 355/4/6 356/4/6 363/4/6
f 356/2/6 357/2/6 364/2/6
f 363/4/6 356/4/6 364/4/6
f 364/2/6 357/2/6 365/2/6
f 357/4/6 358/4/6 366/4/6
f 365/2/6 357/2/6 366/2/6
f 366/4/6 358/4/6 367/4/6
f 359/4/6 360/4/6 368/4/6
f 360/2/6 361/2/6 369/2/6
f 368/4/6 360/4/6 369/4/6
f 369/2/6 361/2/6 370/2/6
f 361/4/6 362/4/6 371/4/6
f 370/2/6 361/2/6 371/2/6
f 371/4/6 362/4/6 372/4/6
f 363/2/6 364/2/6 373/2/6
f 371/2/6 372/2/6 374/2/6
f 363/2/6 373/2/6 375/2/6
f 375/2/6 373/2/6 376/2/6
f 374/2/6 372/2/6 377/2/6
f 377/2/6 372/2/6 378/2/6
f 375/4/6 376/4/6 379/4/6
f 379/4/6 376/4/6 380/4/6
f 377/4/6 378/4/6 381/4/6
f 381/4/6 378/4/6 382/4/6
f 383/4/6 384/4/6 387/4/6
f 387/4/6 384/4/6 388/4/6
f 385/4/6 386/4/6 389/4/6
f 389/4/6 386/4/6 390/4/6
f 387/2/6 388/2/6 391/2/6
f 389/2/6 390/2/6 392/2/6
f 387/2/6 391/2/6 393/2/6
f 393/2/6 391/2/6 394/2/6
f 392/2/6 390/2/6 401/2/6
f 401/2/6 390/2/6 402/2/6
f 393/4/6 394/4/6 403/4/6
f 394/2/6 395/2/6 404/2/6
f 403/4/6 394/4/6 404/4/6
f 395/2/6 396/2/6 404/2/6
f 396/4/6 397/4/6 405/4/6
f 404/2/6 396/2/6 405/2/6
f 405/4/6 397/4/6 406/4/6
f 398/4/6 399/4/6 407/4/6
f 399/2/6 400/2/6 408/2/6
f 407/4/6 399/4/6 408/4/6
f 400/2/6 401/2/6 408/2/6
f 401/4/6 402/4/6 409/4/6
f 408/2/6 401/2/6 409/2/6
f 409/4/6 402/4/6 410/4/6
f 411/2/6 412/2/6 415/2/6
f 412/4/6 413/4/6 416/4/6
f 415/2/6 412/2/6 416/2/6
f 413/2/6 414/2/6 417/2/6
f 416/4/6 413/4/6 417/4/6
f 417/2/6 414/2/6 418/2/6
f 415/4/6 416/4/6 419/4/6
f 419/4/6 416/4/6 420/4/6
f 417/4/6 418/4/6 421/4/6
f 421/4/6 418/4/6 422/4/6
f 419/2/6 420/2/6 423/2/6
f 420/4/6 421/4/6 424/4/6
f 423/2/6 420/2/6 424/2/6
f 421/2/6 422/2/6 425/2/6
f 424/4/6 421/4/6 425/4/6
f 425/2/6 422/2/6 426/2/6
f 427/4/6 428/4/6 429/4/6
f 429/4/6 428/4/6 430/4/6
f 427/4/6 429/4/6 431/4/6
f 430/4/6 428/4/6 432/4/6
f 427/4/6 431/4/6 433/4/6
f 431/4/6 432/4/6 433/4/6
f 432/4/6 428/4/6 434/4/6
f 433/4/6 432/4/6 434/4/6
f 435/4/6 436/4/6 437/4/6
f 437/4/6 436/4/6 438/4/6
f 435/4/6 437/4/6 439/4/6
f 438/4/6 436/4/6 440/4/6
f 435/4/6 439/4/6 441/4/6
f 439/4/6 440/4/6 441/4/6
f 440/4/6 436/4/6 442/4/6
f 441/4/6 440/4/6 442/4/6
f 443/4/6 444/4/6 446/4/6
f 446/4/6 444/4/6 447/4/6
f 445/4/6 446/4/6 449/4/6
f 447/4/6 448/4/6 449/4/6
f 446/4/6 447/4/6 449/4/6
f 449/4/6 448/4/6 450/4/6
f 450/4/6 448/4/6 451/4/6
f 451/4/6 448/4/6 452/4/6
f 450/4/6 451/4/6 453/4/6
f 453/4/6 451/4/6 454/4/6
f 455/4/6 456/4/6 459/4/6
f 459/4/6 456/4/6 460/4/6
f 457/4/6 458/4/6 461/4/6
f 461/4/6 458/4/6 462/4/6
f 463/4/6 464/4/6 467/4/6
f 467/4/6 464/4/6 468/4/6
f 465/4/6 466/4/6 469/4/6
f 469/4/6 466/4/6 470/4/6
