# MagicaVoxel @ Ephtracy

# group
o 

# material
mtllib rook.red.mtl
usemtl palette

# normals
vn -1 0 0
vn 1 0 0
vn 0 0 1
vn 0 0 -1
vn 0 -1 0
vn 0 1 0

# texcoords
vt 0.306641 0.5
vt 0.861328 0.5
vt 0.986328 0.5
vt 0.990234 0.5

# verts
v 2.8 2 -2.8
v 2.8 2 -3.8
v 2.8 2 -4.2
v 2.8 2 -5.2
v 2.8 2.2 -3.4
v 2.8 2.2 -3.6
v 2.8 2.2 -4.4
v 2.8 2.2 -4.6
v 2.8 2.4 -3.2
v 2.8 2.4 -3.4
v 2.8 2.4 -4.6
v 2.8 2.4 -4.8
v 2.8 2.6 -3
v 2.8 2.6 -3.2
v 2.8 2.6 -3.4
v 2.8 2.6 -3.6
v 2.8 2.6 -4.4
v 2.8 2.6 -4.6
v 2.8 2.6 -4.8
v 2.8 2.6 -5
v 2.8 2.8 -2.8
v 2.8 2.8 -3
v 2.8 2.8 -3.4
v 2.8 2.8 -3.8
v 2.8 2.8 -4.2
v 2.8 2.8 -4.6
v 2.8 2.8 -5
v 2.8 2.8 -5.2
v 3 2 -3.8
v 3 2 -4.2
v 3 2.8 -3
v 3 2.8 -3.2
v 3 2.8 -3.4
v 3 2.8 -3.8
v 3 2.8 -4.2
v 3 2.8 -4.6
v 3 2.8 -4.8
v 3 2.8 -5
v 3 3 -3
v 3 3 -3.2
v 3 3 -4.8
v 3 3 -5
v 3.2 3 -3.2
v 3.2 3 -4.8
v 3.2 3.2 -3.2
v 3.2 3.2 -4.8
v 3.4 3.2 -3.4
v 3.4 3.2 -4.6
v 3.4 4.2 -3.4
v 3.4 4.2 -4.6
v 3.4 5.8 -3.4
v 3.4 5.8 -4.6
v 3.4 6.2 -3.8
v 3.4 6.2 -4.2
v 3.4 6.5 -3.4
v 3.4 6.5 -3.8
v 3.4 6.5 -4.2
v 3.4 6.5 -4.6
v 3.5 4.2 -3.5
v 3.5 4.2 -4.5
v 3.5 5.8 -3.5
v 3.5 5.8 -4.5
v 4.2 2 -2.8
v 4.2 2 -3
v 4.2 2 -5
v 4.2 2 -5.2
v 4.2 2.8 -2.8
v 4.2 2.8 -3
v 4.2 2.8 -5
v 4.2 2.8 -5.2
v 4.2 6.2 -3.4
v 4.2 6.2 -3.8
v 4.2 6.2 -4.2
v 4.2 6.2 -4.6
v 4.2 6.5 -3.4
v 4.2 6.5 -3.8
v 4.2 6.5 -4.2
v 4.2 6.5 -4.6
v 3.8 2 -2.8
v 3.8 2 -3
v 3.8 2 -5
v 3.8 2 -5.2
v 3.8 2.8 -2.8
v 3.8 2.8 -3
v 3.8 2.8 -5
v 3.8 2.8 -5.2
v 3.8 6.2 -3.4
v 3.8 6.2 -3.8
v 3.8 6.2 -4.2
v 3.8 6.2 -4.6
v 3.8 6.5 -3.4
v 3.8 6.5 -3.8
v 3.8 6.5 -4.2
v 3.8 6.5 -4.6
v 4.5 4.2 -3.5
v 4.5 4.2 -4.5
v 4.5 5.8 -3.5
v 4.5 5.8 -4.5
v 4.6 3.2 -3.4
v 4.6 3.2 -4.6
v 4.6 4.2 -3.4
v 4.6 4.2 -4.6
v 4.6 5.8 -3.4
v 4.6 5.8 -4.6
v 4.6 6.2 -3.8
v 4.6 6.2 -4.2
v 4.6 6.5 -3.4
v 4.6 6.5 -3.8
v 4.6 6.5 -4.2
v 4.6 6.5 -4.6
v 4.8 3 -3.2
v 4.8 3 -4.8
v 4.8 3.2 -3.2
v 4.8 3.2 -4.8
v 5 2 -3.8
v 5 2 -4.2
v 5 2.8 -3
v 5 2.8 -3.2
v 5 2.8 -3.4
v 5 2.8 -3.8
v 5 2.8 -4.2
v 5 2.8 -4.6
v 5 2.8 -4.8
v 5 2.8 -5
v 5 3 -3
v 5 3 -3.2
v 5 3 -4.8
v 5 3 -5
v 5.2 2 -2.8
v 5.2 2 -3.8
v 5.2 2 -4.2
v 5.2 2 -5.2
v 5.2 2.2 -3.4
v 5.2 2.2 -3.6
v 5.2 2.2 -4.4
v 5.2 2.2 -4.6
v 5.2 2.4 -3.2
v 5.2 2.4 -3.4
v 5.2 2.4 -4.6
v 5.2 2.4 -4.8
v 5.2 2.6 -3
v 5.2 2.6 -3.2
v 5.2 2.6 -3.4
v 5.2 2.6 -3.6
v 5.2 2.6 -4.4
v 5.2 2.6 -4.6
v 5.2 2.6 -4.8
v 5.2 2.6 -5
v 5.2 2.8 -2.8
v 5.2 2.8 -3
v 5.2 2.8 -3.4
v 5.2 2.8 -3.8
v 5.2 2.8 -4.2
v 5.2 2.8 -4.6
v 5.2 2.8 -5
v 5.2 2.8 -5.2
v 2.8 2 -2.8
v 2.8 2.8 -2.8
v 3 2.6 -2.8
v 3 2.8 -2.8
v 3.2 2.4 -2.8
v 3.2 2.6 -2.8
v 3.4 2.2 -2.8
v 3.4 2.4 -2.8
v 3.4 2.6 -2.8
v 3.4 2.8 -2.8
v 3.6 2.2 -2.8
v 3.6 2.6 -2.8
v 3.8 2 -2.8
v 3.8 2.8 -2.8
v 4.2 2 -2.8
v 4.2 2.8 -2.8
v 4.4 2.2 -2.8
v 4.4 2.6 -2.8
v 4.6 2.2 -2.8
v 4.6 2.4 -2.8
v 4.6 2.6 -2.8
v 4.6 2.8 -2.8
v 4.8 2.4 -2.8
v 4.8 2.6 -2.8
v 5 2.6 -2.8
v 5 2.8 -2.8
v 5.2 2 -2.8
v 5.2 2.8 -2.8
v 3 2.8 -3
v 3 3 -3
v 3.2 2.8 -3
v 3.2 3 -3
v 3.4 2.8 -3
v 3.8 2 -3
v 3.8 2.8 -3
v 4.2 2 -3
v 4.2 2.8 -3
v 4.6 2.8 -3
v 4.8 2.8 -3
v 4.8 3 -3
v 5 2.8 -3
v 5 3 -3
v 3.2 3 -3.2
v 3.2 3.2 -3.2
v 4.8 3 -3.2
v 4.8 3.2 -3.2
v 3.4 3.2 -3.4
v 3.4 4.2 -3.4
v 3.4 5.8 -3.4
v 3.4 6.5 -3.4
v 3.8 6.2 -3.4
v 3.8 6.5 -3.4
v 4.2 6.2 -3.4
v 4.2 6.5 -3.4
v 4.6 3.2 -3.4
v 4.6 4.2 -3.4
v 4.6 5.8 -3.4
v 4.6 6.5 -3.4
v 3.5 4.2 -3.5
v 3.5 5.8 -3.5
v 4.5 4.2 -3.5
v 4.5 5.8 -3.5
v 2.8 2 -4.2
v 2.8 2.8 -4.2
v 3 2 -4.2
v 3 2.8 -4.2
v 3.4 6.2 -4.2
v 3.4 6.5 -4.2
v 3.8 6.2 -4.2
v 3.8 6.5 -4.2
v 4.2 6.2 -4.2
v 4.2 6.5 -4.2
v 4.6 6.2 -4.2
v 4.6 6.5 -4.2
v 5 2 -4.2
v 5 2.8 -4.2
v 5.2 2 -4.2
v 5.2 2.8 -4.2
v 2.8 2 -3.8
v 2.8 2.8 -3.8
v 3 2 -3.8
v 3 2.8 -3.8
v 3.4 6.2 -3.8
v 3.4 6.5 -3.8
v 3.8 6.2 -3.8
v 3.8 6.5 -3.8
v 4.2 6.2 -3.8
v 4.2 6.5 -3.8
v 4.6 6.2 -3.8
v 4.6 6.5 -3.8
v 5 2 -3.8
v 5 2.8 -3.8
v 5.2 2 -3.8
v 5.2 2.8 -3.8
v 3.5 4.2 -4.5
v 3.5 5.8 -4.5
v 3.6 4.5 -4.5
v 3.6 5.5 -4.5
v 3.8 4.5 -4.5
v 3.8 4.6 -4.5
v 3.8 5.3 -4.5
v 3.9 4.6 -4.5
v 3.9 4.7 -4.5
v 4.1 4.6 -4.5
v 4.1 4.7 -4.5
v 4.2 4.5 -4.5
v 4.2 4.6 -4.5
v 4.2 5.3 -4.5
v 4.4 4.5 -4.5
v 4.4 5.5 -4.5
v 4.5 4.2 -4.5
v 4.5 5.8 -4.5
v 3.4 3.2 -4.6
v 3.4 4.2 -4.6
v 3.4 5.8 -4.6
v 3.4 6.5 -4.6
v 3.8 6.2 -4.6
v 3.8 6.5 -4.6
v 4.2 6.2 -4.6
v 4.2 6.5 -4.6
v 4.6 3.2 -4.6
v 4.6 4.2 -4.6
v 4.6 5.8 -4.6
v 4.6 6.5 -4.6
v 3.2 3 -4.8
v 3.2 3.2 -4.8
v 4.8 3 -4.8
v 4.8 3.2 -4.8
v 3 2.8 -5
v 3 3 -5
v 3.2 2.8 -5
v 3.2 3 -5
v 3.4 2.8 -5
v 3.8 2 -5
v 3.8 2.8 -5
v 4.2 2 -5
v 4.2 2.8 -5
v 4.6 2.8 -5
v 4.8 2.8 -5
v 4.8 3 -5
v 5 2.8 -5
v 5 3 -5
v 2.8 2 -5.2
v 2.8 2.8 -5.2
v 3 2.6 -5.2
v 3 2.8 -5.2
v 3.2 2.4 -5.2
v 3.2 2.6 -5.2
v 3.4 2.2 -5.2
v 3.4 2.4 -5.2
v 3.4 2.6 -5.2
v 3.4 2.8 -5.2
v 3.6 2.2 -5.2
v 3.6 2.6 -5.2
v 3.8 2 -5.2
v 3.8 2.8 -5.2
v 4.2 2 -5.2
v 4.2 2.8 -5.2
v 4.4 2.2 -5.2
v 4.4 2.6 -5.2
v 4.6 2.2 -5.2
v 4.6 2.4 -5.2
v 4.6 2.6 -5.2
v 4.6 2.8 -5.2
v 4.8 2.4 -5.2
v 4.8 2.6 -5.2
v 5 2.6 -5.2
v 5 2.8 -5.2
v 5.2 2 -5.2
v 5.2 2.8 -5.2
v 2.8 2 -2.8
v 3.8 2 -2.8
v 4.2 2 -2.8
v 5.2 2 -2.8
v 3.8 2 -3
v 4.2 2 -3
v 2.8 2 -3.8
v 3 2 -3.8
v 5 2 -3.8
v 5.2 2 -3.8
v 2.8 2 -4.2
v 3 2 -4.2
v 5 2 -4.2
v 5.2 2 -4.2
v 3.8 2 -5
v 4.2 2 -5
v 2.8 2 -5.2
v 3.8 2 -5.2
v 4.2 2 -5.2
v 5.2 2 -5.2
v 3.4 5.8 -3.4
v 4.6 5.8 -3.4
v 3.5 5.8 -3.5
v 4.5 5.8 -3.5
v 3.5 5.8 -4.5
v 4.5 5.8 -4.5
v 3.4 5.8 -4.6
v 4.6 5.8 -4.6
v 2.8 2.8 -2.8
v 3 2.8 -2.8
v 3.4 2.8 -2.8
v 3.8 2.8 -2.8
v 4.2 2.8 -2.8
v 4.6 2.8 -2.8
v 5 2.8 -2.8
v 5.2 2.8 -2.8
v 2.8 2.8 -3
v 3 2.8 -3
v 3.2 2.8 -3
v 3.4 2.8 -3
v 3.8 2.8 -3
v 4.2 2.8 -3
v 4.6 2.8 -3
v 4.8 2.8 -3
v 5 2.8 -3
v 5.2 2.8 -3
v 3 2.8 -3.2
v 5 2.8 -3.2
v 2.8 2.8 -3.4
v 3 2.8 -3.4
v 5 2.8 -3.4
v 5.2 2.8 -3.4
v 2.8 2.8 -3.8
v 3 2.8 -3.8
v 5 2.8 -3.8
v 5.2 2.8 -3.8
v 2.8 2.8 -4.2
v 3 2.8 -4.2
v 5 2.8 -4.2
v 5.2 2.8 -4.2
v 2.8 2.8 -4.6
v 3 2.8 -4.6
v 5 2.8 -4.6
v 5.2 2.8 -4.6
v 3 2.8 -4.8
v 5 2.8 -4.8
v 2.8 2.8 -5
v 3 2.8 -5
v 3.2 2.8 -5
v 3.4 2.8 -5
v 3.8 2.8 -5
v 4.2 2.8 -5
v 4.6 2.8 -5
v 4.8 2.8 -5
v 5 2.8 -5
v 5.2 2.8 -5
v 2.8 2.8 -5.2
v 3 2.8 -5.2
v 3.4 2.8 -5.2
v 3.8 2.8 -5.2
v 4.2 2.8 -5.2
v 4.6 2.8 -5.2
v 5 2.8 -5.2
v 5.2 2.8 -5.2
v 3 3 -3
v 3.2 3 -3
v 4.8 3 -3
v 5 3 -3
v 3 3 -3.2
v 3.2 3 -3.2
v 4.8 3 -3.2
v 5 3 -3.2
v 3 3 -4.8
v 3.2 3 -4.8
v 4.8 3 -4.8
v 5 3 -4.8
v 3 3 -5
v 3.2 3 -5
v 4.8 3 -5
v 5 3 -5
v 3.2 3.2 -3.2
v 4.8 3.2 -3.2
v 3.4 3.2 -3.4
v 4.6 3.2 -3.4
v 3.4 3.2 -4.6
v 4.6 3.2 -4.6
v 3.2 3.2 -4.8
v 4.8 3.2 -4.8
v 3.4 4.2 -3.4
v 4.6 4.2 -3.4
v 3.5 4.2 -3.5
v 4.5 4.2 -3.5
v 3.5 4.2 -4.5
v 4.5 4.2 -4.5
v 3.4 4.2 -4.6
v 4.6 4.2 -4.6
v 3.8 6.2 -3.4
v 4.2 6.2 -3.4
v 3.4 6.2 -3.8
v 3.8 6.2 -3.8
v 4.2 6.2 -3.8
v 4.6 6.2 -3.8
v 3.4 6.2 -4.2
v 3.8 6.2 -4.2
v 4.2 6.2 -4.2
v 4.6 6.2 -4.2
v 3.8 6.2 -4.6
v 4.2 6.2 -4.6
v 3.4 6.5 -3.4
v 3.8 6.5 -3.4
v 4.2 6.5 -3.4
v 4.6 6.5 -3.4
v 3.4 6.5 -3.8
v 3.8 6.5 -3.8
v 4.2 6.5 -3.8
v 4.6 6.5 -3.8
v 3.4 6.5 -4.2
v 3.8 6.5 -4.2
v 4.2 6.5 -4.2
v 4.6 6.5 -4.2
v 3.4 6.5 -4.6
v 3.8 6.5 -4.6
v 4.2 6.5 -4.6
v 4.6 6.5 -4.6

# faces
f 5/3/1 2/3/1 1/3/1
f 6/3/1 2/3/1 5/3/1
f 7/3/1 4/3/1 3/3/1
f 8/3/1 4/3/1 7/3/1
f 9/3/1 5/3/1 1/3/1
f 10/2/1 6/2/1 5/2/1
f 10/3/1 5/3/1 9/3/1
f 11/3/1 4/3/1 8/3/1
f 11/2/1 8/2/1 7/2/1
f 12/3/1 4/3/1 11/3/1
f 13/3/1 9/3/1 1/3/1
f 14/2/1 10/2/1 9/2/1
f 14/3/1 9/3/1 13/3/1
f 15/2/1 6/2/1 10/2/1
f 15/2/1 10/2/1 14/2/1
f 16/3/1 2/3/1 6/3/1
f 16/2/1 6/2/1 15/2/1
f 17/3/1 7/3/1 3/3/1
f 17/2/1 11/2/1 7/2/1
f 17/2/1 12/2/1 11/2/1
f 18/2/1 12/2/1 17/2/1
f 19/3/1 4/3/1 12/3/1
f 19/2/1 12/2/1 18/2/1
f 20/3/1 4/3/1 19/3/1
f 21/3/1 13/3/1 1/3/1
f 22/2/1 15/2/1 14/2/1
f 22/3/1 13/3/1 21/3/1
f 22/2/1 14/2/1 13/2/1
f 23/3/1 16/3/1 15/3/1
f 23/2/1 15/2/1 22/2/1
f 24/3/1 2/3/1 16/3/1
f 24/3/1 16/3/1 23/3/1
f 25/3/1 18/3/1 17/3/1
f 25/3/1 17/3/1 3/3/1
f 26/2/1 20/2/1 19/2/1
f 26/3/1 18/3/1 25/3/1
f 26/2/1 19/2/1 18/2/1
f 27/3/1 4/3/1 20/3/1
f 27/2/1 20/2/1 26/2/1
f 28/3/1 4/3/1 27/3/1
f 34/3/1 30/3/1 29/3/1
f 35/3/1 30/3/1 34/3/1
f 39/2/1 32/2/1 31/2/1
f 40/3/1 33/3/1 32/3/1
f 40/2/1 32/2/1 39/2/1
f 40/3/1 34/3/1 33/3/1
f 40/3/1 37/3/1 36/3/1
f 40/3/1 36/3/1 35/3/1
f 40/3/1 35/3/1 34/3/1
f 41/2/1 38/2/1 37/2/1
f 41/3/1 37/3/1 40/3/1
f 42/2/1 38/2/1 41/2/1
f 45/3/1 44/3/1 43/3/1
f 46/3/1 44/3/1 45/3/1
f 49/3/1 48/3/1 47/3/1
f 50/3/1 48/3/1 49/3/1
f 53/3/1 52/3/1 51/3/1
f 54/3/1 52/3/1 53/3/1
f 55/3/1 53/3/1 51/3/1
f 56/3/1 53/3/1 55/3/1
f 57/3/1 52/3/1 54/3/1
f 58/3/1 52/3/1 57/3/1
f 61/3/1 60/3/1 59/3/1
f 62/3/1 60/3/1 61/3/1
f 67/3/1 64/3/1 63/3/1
f 68/3/1 64/3/1 67/3/1
f 69/3/1 66/3/1 65/3/1
f 70/3/1 66/3/1 69/3/1
f 75/3/1 72/3/1 71/3/1
f 76/3/1 72/3/1 75/3/1
f 77/3/1 74/3/1 73/3/1
f 78/3/1 74/3/1 77/3/1
f 79/3/2 80/3/2 83/3/2
f 83/3/2 80/3/2 84/3/2
f 81/3/2 82/3/2 85/3/2
f 85/3/2 82/3/2 86/3/2
f 87/3/2 88/3/2 91/3/2
f 91/3/2 88/3/2 92/3/2
f 89/3/2 90/3/2 93/3/2
f 93/3/2 90/3/2 94/3/2
f 95/3/2 96/3/2 97/3/2
f 97/3/2 96/3/2 98/3/2
f 99/3/2 100/3/2 101/3/2
f 101/3/2 100/3/2 102/3/2
f 103/3/2 104/3/2 105/3/2
f 105/3/2 104/3/2 106/3/2
f 103/3/2 105/3/2 107/3/2
f 107/3/2 105/3/2 108/3/2
f 106/3/2 104/3/2 109/3/2
f 109/3/2 104/3/2 110/3/2
f 111/3/2 112/3/2 113/3/2
f 113/3/2 112/3/2 114/3/2
f 115/3/2 116/3/2 120/3/2
f 120/3/2 116/3/2 121/3/2
f 117/2/2 118/2/2 125/2/2
f 118/3/2 119/3/2 126/3/2
f 125/2/2 118/2/2 126/2/2
f 119/3/2 120/3/2 126/3/2
f 122/3/2 123/3/2 126/3/2
f 121/3/2 122/3/2 126/3/2
f 120/3/2 121/3/2 126/3/2
f 123/2/2 124/2/2 127/2/2
f 126/3/2 123/3/2 127/3/2
f 127/2/2 124/2/2 128/2/2
f 129/3/2 130/3/2 133/3/2
f 133/3/2 130/3/2 134/3/2
f 131/3/2 132/3/2 135/3/2
f 135/3/2 132/3/2 136/3/2
f 129/3/2 133/3/2 137/3/2
f 133/2/2 134/2/2 138/2/2
f 137/3/2 133/3/2 138/3/2
f 136/3/2 132/3/2 139/3/2
f 135/2/2 136/2/2 139/2/2
f 139/3/2 132/3/2 140/3/2
f 129/3/2 137/3/2 141/3/2
f 137/2/2 138/2/2 142/2/2
f 141/3/2 137/3/2 142/3/2
f 138/2/2 134/2/2 143/2/2
f 142/2/2 138/2/2 143/2/2
f 134/3/2 130/3/2 144/3/2
f 143/2/2 134/2/2 144/2/2
f 131/3/2 135/3/2 145/3/2
f 135/2/2 139/2/2 145/2/2
f 139/2/2 140/2/2 145/2/2
f 145/2/2 140/2/2 146/2/2
f 140/3/2 132/3/2 147/3/2
f 146/2/2 140/2/2 147/2/2
f 147/3/2 132/3/2 148/3/2
f 129/3/2 141/3/2 149/3/2
f 142/2/2 143/2/2 150/2/2
f 149/3/2 141/3/2 150/3/2
f 141/2/2 142/2/2 150/2/2
f 143/3/2 144/3/2 151/3/2
f 150/2/2 143/2/2 151/2/2
f 144/3/2 130/3/2 152/3/2
f 151/3/2 144/3/2 152/3/2
f 145/3/2 146/3/2 153/3/2
f 131/3/2 145/3/2 153/3/2
f 147/2/2 148/2/2 154/2/2
f 153/3/2 146/3/2 154/3/2
f 146/2/2 147/2/2 154/2/2
f 148/3/2 132/3/2 155/3/2
f 154/2/2 148/2/2 155/2/2
f 155/3/2 132/3/2 156/3/2
f 159/3/3 158/3/3 157/3/3
f 160/3/3 158/3/3 159/3/3
f 161/3/3 159/3/3 157/3/3
f 162/2/3 160/2/3 159/2/3
f 162/3/3 159/3/3 161/3/3
f 163/3/3 161/3/3 157/3/3
f 164/2/3 162/2/3 161/2/3
f 164/3/3 161/3/3 163/3/3
f 165/2/3 160/2/3 162/2/3
f 165/2/3 162/2/3 164/2/3
f 166/2/3 160/2/3 165/2/3
f 167/2/3 164/2/3 163/2/3
f 167/3/3 163/3/3 157/3/3
f 167/2/3 165/2/3 164/2/3
f 168/3/3 166/3/3 165/3/3
f 168/2/3 165/2/3 167/2/3
f 169/3/3 167/3/3 157/3/3
f 169/3/3 168/3/3 167/3/3
f 170/3/3 166/3/3 168/3/3
f 170/3/3 168/3/3 169/3/3
f 173/3/3 172/3/3 171/3/3
f 174/3/3 172/3/3 173/3/3
f 175/3/3 173/3/3 171/3/3
f 175/2/3 174/2/3 173/2/3
f 176/2/3 174/2/3 175/2/3
f 177/3/3 172/3/3 174/3/3
f 177/2/3 174/2/3 176/2/3
f 178/3/3 172/3/3 177/3/3
f 179/3/3 176/3/3 175/3/3
f 179/2/3 177/2/3 176/2/3
f 179/2/3 178/2/3 177/2/3
f 180/2/3 178/2/3 179/2/3
f 181/3/3 180/3/3 179/3/3
f 181/2/3 178/2/3 180/2/3
f 182/2/3 178/2/3 181/2/3
f 183/3/3 175/3/3 171/3/3
f 183/3/3 179/3/3 175/3/3
f 183/3/3 182/3/3 181/3/3
f 183/3/3 181/3/3 179/3/3
f 184/3/3 182/3/3 183/3/3
f 187/2/3 186/2/3 185/2/3
f 188/2/3 186/2/3 187/2/3
f 189/3/3 188/3/3 187/3/3
f 191/3/3 188/3/3 189/3/3
f 192/3/3 191/3/3 190/3/3
f 193/3/3 188/3/3 191/3/3
f 193/3/3 191/3/3 192/3/3
f 194/3/3 188/3/3 193/3/3
f 195/3/3 188/3/3 194/3/3
f 196/3/3 188/3/3 195/3/3
f 197/2/3 196/2/3 195/2/3
f 198/2/3 196/2/3 197/2/3
f 201/3/3 200/3/3 199/3/3
f 202/3/3 200/3/3 201/3/3
f 207/3/3 206/3/3 205/3/3
f 208/3/3 206/3/3 207/3/3
f 209/3/3 207/3/3 205/3/3
f 211/3/3 204/3/3 203/3/3
f 212/3/3 204/3/3 211/3/3
f 213/3/3 210/3/3 209/3/3
f 213/3/3 209/3/3 205/3/3
f 214/3/3 210/3/3 213/3/3
f 217/3/3 216/3/3 215/3/3
f 218/3/3 216/3/3 217/3/3
f 221/3/3 220/3/3 219/3/3
f 222/3/3 220/3/3 221/3/3
f 225/3/3 224/3/3 223/3/3
f 226/3/3 224/3/3 225/3/3
f 229/3/3 228/3/3 227/3/3
f 230/3/3 228/3/3 229/3/3
f 233/3/3 232/3/3 231/3/3
f 234/3/3 232/3/3 233/3/3
f 235/3/4 236/3/4 237/3/4
f 237/3/4 236/3/4 238/3/4
f 239/3/4 240/3/4 241/3/4
f 241/3/4 240/3/4 242/3/4
f 243/3/4 244/3/4 245/3/4
f 245/3/4 244/3/4 246/3/4
f 247/3/4 248/3/4 249/3/4
f 249/3/4 248/3/4 250/3/4
f 251/3/4 252/3/4 253/3/4
f 253/3/4 252/3/4 254/3/4
f 251/3/4 253/3/4 255/3/4
f 253/4/4 254/4/4 255/4/4
f 255/4/4 254/4/4 256/4/4
f 256/4/4 254/4/4 257/4/4
f 255/3/4 256/3/4 258/3/4
f 256/2/4 257/2/4 258/2/4
f 258/2/4 257/2/4 259/2/4
f 255/3/4 258/3/4 260/3/4
f 258/3/4 259/3/4 260/3/4
f 259/2/4 257/2/4 261/2/4
f 260/3/4 259/3/4 261/3/4
f 251/3/4 255/3/4 262/3/4
f 255/3/4 260/3/4 262/3/4
f 260/2/4 261/2/4 263/2/4
f 262/3/4 260/3/4 263/3/4
f 261/2/4 257/2/4 264/2/4
f 263/2/4 261/2/4 264/2/4
f 257/4/4 254/4/4 264/4/4
f 262/4/4 263/4/4 265/4/4
f 251/3/4 262/3/4 265/3/4
f 263/4/4 264/4/4 265/4/4
f 254/3/4 252/3/4 266/3/4
f 265/4/4 264/4/4 266/4/4
f 264/4/4 254/4/4 266/4/4
f 251/3/4 265/3/4 267/3/4
f 265/3/4 266/3/4 267/3/4
f 266/3/4 252/3/4 268/3/4
f 267/3/4 266/3/4 268/3/4
f 271/3/4 272/3/4 273/3/4
f 273/3/4 272/3/4 274/3/4
f 271/3/4 273/3/4 275/3/4
f 269/3/4 270/3/4 277/3/4
f 277/3/4 270/3/4 278/3/4
f 275/3/4 276/3/4 279/3/4
f 271/3/4 275/3/4 279/3/4
f 279/3/4 276/3/4 280/3/4
f 281/3/4 282/3/4 283/3/4
f 283/3/4 282/3/4 284/3/4
f 285/2/4 286/2/4 287/2/4
f 287/2/4 286/2/4 288/2/4
f 287/3/4 288/3/4 289/3/4
f 289/3/4 288/3/4 291/3/4
f 290/3/4 291/3/4 292/3/4
f 291/3/4 288/3/4 293/3/4
f 292/3/4 291/3/4 293/3/4
f 293/3/4 288/3/4 294/3/4
f 294/3/4 288/3/4 295/3/4
f 295/3/4 288/3/4 296/3/4
f 295/2/4 296/2/4 297/2/4
f 297/2/4 296/2/4 298/2/4
f 299/3/4 300/3/4 301/3/4
f 301/3/4 300/3/4 302/3/4
f 299/3/4 301/3/4 303/3/4
f 301/2/4 302/2/4 304/2/4
f 303/3/4 301/3/4 304/3/4
f 299/3/4 303/3/4 305/3/4
f 303/2/4 304/2/4 306/2/4
f 305/3/4 303/3/4 306/3/4
f 304/2/4 302/2/4 307/2/4
f 306/2/4 304/2/4 307/2/4
f 307/2/4 302/2/4 308/2/4
f 305/2/4 306/2/4 309/2/4
f 299/3/4 305/3/4 309/3/4
f 306/2/4 307/2/4 309/2/4
f 307/3/4 308/3/4 310/3/4
f 309/2/4 307/2/4 310/2/4
f 299/3/4 309/3/4 311/3/4
f 309/3/4 310/3/4 311/3/4
f 310/3/4 308/3/4 312/3/4
f 311/3/4 310/3/4 312/3/4
f 313/3/4 314/3/4 315/3/4
f 315/3/4 314/3/4 316/3/4
f 313/3/4 315/3/4 317/3/4
f 315/2/4 316/2/4 317/2/4
f 317/2/4 316/2/4 318/2/4
f 316/3/4 314/3/4 319/3/4
f 318/2/4 316/2/4 319/2/4
f 319/3/4 314/3/4 320/3/4
f 317/3/4 318/3/4 321/3/4
f 318/2/4 319/2/4 321/2/4
f 319/2/4 320/2/4 321/2/4
f 321/2/4 320/2/4 322/2/4
f 321/3/4 322/3/4 323/3/4
f 322/2/4 320/2/4 323/2/4
f 323/2/4 320/2/4 324/2/4
f 313/3/4 317/3/4 325/3/4
f 317/3/4 321/3/4 325/3/4
f 323/3/4 324/3/4 325/3/4
f 321/3/4 323/3/4 325/3/4
f 325/3/4 324/3/4 326/3/4
f 331/3/5 328/3/5 327/3/5
f 332/3/5 330/3/5 329/3/5
f 333/3/5 331/3/5 327/3/5
f 333/3/5 332/3/5 331/3/5
f 334/3/5 332/3/5 333/3/5
f 335/3/5 330/3/5 332/3/5
f 335/3/5 332/3/5 334/3/5
f 336/3/5 330/3/5 335/3/5
f 338/3/5 335/3/5 334/3/5
f 339/3/5 335/3/5 338/3/5
f 341/3/5 338/3/5 337/3/5
f 341/3/5 340/3/5 339/3/5
f 341/3/5 339/3/5 338/3/5
f 342/3/5 340/3/5 341/3/5
f 343/3/5 341/3/5 337/3/5
f 344/3/5 341/3/5 343/3/5
f 345/3/5 340/3/5 342/3/5
f 346/3/5 340/3/5 345/3/5
f 349/3/5 348/3/5 347/3/5
f 350/3/5 348/3/5 349/3/5
f 351/3/5 349/3/5 347/3/5
f 352/3/5 348/3/5 350/3/5
f 353/3/5 351/3/5 347/3/5
f 353/3/5 352/3/5 351/3/5
f 354/3/5 348/3/5 352/3/5
f 354/3/5 352/3/5 353/3/5
f 355/3/6 356/3/6 363/3/6
f 356/2/6 357/2/6 364/2/6
f 363/3/6 356/3/6 364/3/6
f 364/2/6 357/2/6 365/2/6
f 357/3/6 358/3/6 366/3/6
f 365/2/6 357/2/6 366/2/6
f 366/3/6 358/3/6 367/3/6
f 359/3/6 360/3/6 368/3/6
f 360/2/6 361/2/6 369/2/6
f 368/3/6 360/3/6 369/3/6
f 369/2/6 361/2/6 370/2/6
f 361/3/6 362/3/6 371/3/6
f 370/2/6 361/2/6 371/2/6
f 371/3/6 362/3/6 372/3/6
f 363/2/6 364/2/6 373/2/6
f 371/2/6 372/2/6 374/2/6
f 363/2/6 373/2/6 375/2/6
f 375/2/6 373/2/6 376/2/6
f 374/2/6 372/2/6 377/2/6
f 377/2/6 372/2/6 378/2/6
f 375/3/6 376/3/6 379/3/6
f 379/3/6 376/3/6 380/3/6
f 377/3/6 378/3/6 381/3/6
f 381/3/6 378/3/6 382/3/6
f 383/3/6 384/3/6 387/3/6
f 387/3/6 384/3/6 388/3/6
f 385/3/6 386/3/6 389/3/6
f 389/3/6 386/3/6 390/3/6
f 387/2/6 388/2/6 391/2/6
f 389/2/6 390/2/6 392/2/6
f 387/2/6 391/2/6 393/2/6
f 393/2/6 391/2/6 394/2/6
f 392/2/6 390/2/6 401/2/6
f 401/2/6 390/2/6 402/2/6
f 393/3/6 394/3/6 403/3/6
f 394/2/6 395/2/6 404/2/6
f 403/3/6 394/3/6 404/3/6
f 395/2/6 396/2/6 404/2/6
f 396/3/6 397/3/6 405/3/6
f 404/2/6 396/2/6 405/2/6
f 405/3/6 397/3/6 406/3/6
f 398/3/6 399/3/6 407/3/6
f 399/2/6 400/2/6 408/2/6
f 407/3/6 399/3/6 408/3/6
f 400/2/6 401/2/6 408/2/6
f 401/3/6 402/3/6 409/3/6
f 408/2/6 401/2/6 409/2/6
f 409/3/6 402/3/6 410/3/6
f 411/2/6 412/2/6 415/2/6
f 412/3/6 413/3/6 416/3/6
f 415/2/6 412/2/6 416/2/6
f 413/2/6 414/2/6 417/2/6
f 416/3/6 413/3/6 417/3/6
f 417/2/6 414/2/6 418/2/6
f 415/3/6 416/3/6 419/3/6
f 419/3/6 416/3/6 420/3/6
f 417/3/6 418/3/6 421/3/6
f 421/3/6 418/3/6 422/3/6
f 419/2/6 420/2/6 423/2/6
f 420/3/6 421/3/6 424/3/6
f 423/2/6 420/2/6 424/2/6
f 421/2/6 422/2/6 425/2/6
f 424/3/6 421/3/6 425/3/6
f 425/2/6 422/2/6 426/2/6
f 427/3/6 428/3/6 429/3/6
f 429/3/6 428/3/6 430/3/6
f 427/3/6 429/3/6 431/3/6
f 430/3/6 428/3/6 432/3/6
f 427/3/6 431/3/6 433/3/6
f 431/3/6 432/3/6 433/3/6
f 432/3/6 428/3/6 434/3/6
f 433/3/6 432/3/6 434/3/6
f 435/3/6 436/3/6 437/3/6
f 437/3/6 436/3/6 438/3/6
f 435/3/6 437/3/6 439/3/6
f 438/3/6 436/3/6 440/3/6
f 435/3/6 439/3/6 441/3/6
f 439/3/6 440/3/6 441/3/6
f 440/3/6 436/3/6 442/3/6
f 441/3/6 440/3/6 442/3/6
f 443/3/6 444/3/6 446/3/6
f 446/3/6 444/3/6 447/3/6
f 445/3/6 446/3/6 449/3/6
f 447/3/6 448/3/6 449/3/6
f 446/3/6 447/3/6 449/3/6
f 449/3/6 448/3/6 450/3/6
f 450/3/6 448/3/6 451/3/6
f 451/3/6 448/3/6 452/3/6
f 450/3/6 451/3/6 453/3/6
f 453/3/6 451/3/6 454/3/6
f 455/3/6 456/3/6 459/3/6
f 459/3/6 456/3/6 460/3/6
f 457/3/6 458/3/6 461/3/6
f 461/3/6 458/3/6 462/3/6
f 463/3/6 464/3/6 467/3/6
f 467/3/6 464/3/6 468/3/6
f 465/3/6 466/3/6 469/3/6
f 469/3/6 466/3/6 470/3/6
