# MagicaVoxel @ Ephtracy

# group
o 

# material
mtllib lighthorse.blue.mtl
usemtl palette

# normals
vn -1 0 0
vn 1 0 0
vn 0 0 1
vn 0 0 -1
vn 0 -1 0
vn 0 1 0

# texcoords
vt 0.306641 0.5
vt 0.810547 0.5
vt 0.986328 0.5
vt 0.990234 0.5

# verts
v 1.4 2 -1.4
v 1.4 2 -1.9
v 1.4 2 -2.1
v 1.4 2 -2.6
v 1.4 2.1 -1.4
v 1.4 2.1 -1.8
v 1.4 2.1 -2.2
v 1.4 2.1 -2.6
v 1.4 2.4 -1.4
v 1.4 2.4 -1.8
v 1.4 2.4 -1.9
v 1.4 2.4 -2.1
v 1.4 2.4 -2.2
v 1.4 2.4 -2.6
v 1.5 2 -1.9
v 1.5 2 -2.1
v 1.5 2.4 -1.5
v 1.5 2.4 -1.6
v 1.5 2.4 -1.8
v 1.5 2.4 -1.9
v 1.5 2.4 -2.1
v 1.5 2.4 -2.2
v 1.5 2.4 -2.4
v 1.5 2.4 -2.5
v 1.5 2.5 -1.5
v 1.5 2.5 -1.6
v 1.5 2.5 -2.4
v 1.5 2.5 -2.5
v 1.6 2.5 -1.6
v 1.6 2.5 -2.4
v 1.6 2.6 -1.6
v 1.6 2.6 -2.4
v 1.7 2.6 -1.8
v 1.7 2.6 -2.2
v 1.7 4 -1.6
v 1.7 4 -1.8
v 1.7 4 -2.2
v 1.7 4 -2.9
v 1.7 4.1 -2.9
v 1.7 4.1 -3
v 1.7 4.2 -1.6
v 1.7 4.2 -1.7
v 1.7 4.2 -2.5
v 1.7 4.2 -3
v 1.7 4.3 -1.6
v 1.7 4.3 -1.7
v 1.7 4.3 -1.8
v 1.7 4.4 -1.7
v 1.7 4.4 -1.8
v 1.7 4.4 -1.9
v 1.7 4.4 -2.5
v 1.7 4.4 -3
v 1.7 4.5 -1.8
v 1.7 4.5 -1.9
v 1.7 4.5 -2
v 1.7 4.6 -1.6
v 1.7 4.6 -1.9
v 1.7 4.6 -2
v 1.7 4.6 -3
v 1.8 2.6 -1.7
v 1.8 2.6 -1.8
v 1.8 2.6 -2.2
v 1.8 2.6 -2.3
v 1.8 3.1 -2.2
v 1.8 3.1 -2.3
v 1.8 3.7 -2.2
v 1.8 3.7 -2.3
v 1.8 4 -1.7
v 1.8 4 -1.8
v 1.8 4 -2.2
v 1.8 4 -2.3
v 1.8 4 -2.9
v 1.8 4 -3
v 1.8 4.1 -2.9
v 1.8 4.1 -3
v 1.8 4.1 -3.1
v 1.8 4.2 -1.6
v 1.8 4.2 -1.7
v 1.8 4.2 -2.5
v 1.8 4.2 -3
v 1.8 4.3 -1.6
v 1.8 4.3 -1.7
v 1.8 4.3 -1.8
v 1.8 4.4 -1.7
v 1.8 4.4 -1.8
v 1.8 4.4 -1.9
v 1.8 4.4 -2.5
v 1.8 4.4 -3
v 1.8 4.5 -1.8
v 1.8 4.5 -1.9
v 1.8 4.5 -2
v 1.8 4.6 -1.6
v 1.8 4.6 -1.9
v 1.8 4.6 -2
v 1.8 4.6 -3
v 1.8 4.6 -3.1
v 1.8 4.7 -1.6
v 1.8 4.7 -3
v 2.1 2 -1.4
v 2.1 2 -1.5
v 2.1 2 -2.5
v 2.1 2 -2.6
v 2.1 2.4 -1.4
v 2.1 2.4 -1.5
v 2.1 2.4 -2.5
v 2.1 2.4 -2.6
v 2.1 4.6 -1.6
v 2.1 4.6 -3
v 2.1 4.7 -1.6
v 2.1 4.7 -3
v 1.9 2 -1.4
v 1.9 2 -1.5
v 1.9 2 -2.5
v 1.9 2 -2.6
v 1.9 2.4 -1.4
v 1.9 2.4 -1.5
v 1.9 2.4 -2.5
v 1.9 2.4 -2.6
v 1.9 4.6 -1.6
v 1.9 4.6 -3
v 1.9 4.7 -1.6
v 1.9 4.7 -3
v 2.2 2.6 -1.7
v 2.2 2.6 -1.8
v 2.2 2.6 -2.2
v 2.2 2.6 -2.3
v 2.2 3.1 -2.2
v 2.2 3.1 -2.3
v 2.2 3.7 -2.2
v 2.2 3.7 -2.3
v 2.2 4 -1.7
v 2.2 4 -1.8
v 2.2 4 -2.2
v 2.2 4 -2.3
v 2.2 4.1 -3
v 2.2 4.1 -3.1
v 2.2 4.2 -1.6
v 2.2 4.2 -1.7
v 2.2 4.2 -2.5
v 2.2 4.2 -3
v 2.2 4.3 -1.6
v 2.2 4.3 -1.7
v 2.2 4.3 -1.8
v 2.2 4.4 -1.7
v 2.2 4.4 -1.8
v 2.2 4.4 -1.9
v 2.2 4.4 -2.5
v 2.2 4.4 -3
v 2.2 4.5 -1.8
v 2.2 4.5 -1.9
v 2.2 4.5 -2
v 2.2 4.6 -1.6
v 2.2 4.6 -1.9
v 2.2 4.6 -2
v 2.2 4.6 -3
v 2.2 4.6 -3.1
v 2.2 4.7 -1.6
v 2.2 4.7 -3
v 2.3 2.6 -1.8
v 2.3 2.6 -2.2
v 2.3 4 -1.6
v 2.3 4 -1.8
v 2.3 4 -2.2
v 2.3 4 -3
v 2.3 4.2 -1.6
v 2.3 4.2 -1.7
v 2.3 4.2 -2.5
v 2.3 4.2 -3
v 2.3 4.3 -1.6
v 2.3 4.3 -1.7
v 2.3 4.3 -1.8
v 2.3 4.4 -1.7
v 2.3 4.4 -1.8
v 2.3 4.4 -1.9
v 2.3 4.4 -2.5
v 2.3 4.4 -3
v 2.3 4.5 -1.8
v 2.3 4.5 -1.9
v 2.3 4.5 -2
v 2.3 4.6 -1.6
v 2.3 4.6 -1.9
v 2.3 4.6 -2
v 2.3 4.6 -3
v 2.4 2.5 -1.6
v 2.4 2.5 -2.4
v 2.4 2.6 -1.6
v 2.4 2.6 -2.4
v 2.5 2 -1.9
v 2.5 2 -2.1
v 2.5 2.4 -1.5
v 2.5 2.4 -1.6
v 2.5 2.4 -1.8
v 2.5 2.4 -1.9
v 2.5 2.4 -2.1
v 2.5 2.4 -2.2
v 2.5 2.4 -2.4
v 2.5 2.4 -2.5
v 2.5 2.5 -1.5
v 2.5 2.5 -1.6
v 2.5 2.5 -2.4
v 2.5 2.5 -2.5
v 2.6 2 -1.4
v 2.6 2 -1.9
v 2.6 2 -2.1
v 2.6 2 -2.6
v 2.6 2.1 -1.4
v 2.6 2.1 -1.8
v 2.6 2.1 -2.2
v 2.6 2.1 -2.6
v 2.6 2.4 -1.4
v 2.6 2.4 -1.8
v 2.6 2.4 -1.9
v 2.6 2.4 -2.1
v 2.6 2.4 -2.2
v 2.6 2.4 -2.6
v 1.4 2 -1.4
v 1.4 2.1 -1.4
v 1.4 2.4 -1.4
v 1.8 2.1 -1.4
v 1.8 2.4 -1.4
v 1.9 2 -1.4
v 1.9 2.4 -1.4
v 2.1 2 -1.4
v 2.1 2.4 -1.4
v 2.2 2.1 -1.4
v 2.2 2.4 -1.4
v 2.6 2 -1.4
v 2.6 2.1 -1.4
v 2.6 2.4 -1.4
v 1.5 2.4 -1.5
v 1.5 2.5 -1.5
v 1.6 2.4 -1.5
v 1.6 2.5 -1.5
v 1.8 2.4 -1.5
v 1.9 2 -1.5
v 1.9 2.4 -1.5
v 2.1 2 -1.5
v 2.1 2.4 -1.5
v 2.2 2.4 -1.5
v 2.4 2.4 -1.5
v 2.4 2.5 -1.5
v 2.5 2.4 -1.5
v 2.5 2.5 -1.5
v 1.6 2.5 -1.6
v 1.6 2.6 -1.6
v 1.7 4 -1.6
v 1.7 4.2 -1.6
v 1.7 4.3 -1.6
v 1.7 4.6 -1.6
v 1.8 4.2 -1.6
v 1.8 4.3 -1.6
v 1.8 4.6 -1.6
v 1.8 4.7 -1.6
v 1.9 4.6 -1.6
v 1.9 4.7 -1.6
v 2.1 4.6 -1.6
v 2.1 4.7 -1.6
v 2.2 4.2 -1.6
v 2.2 4.3 -1.6
v 2.2 4.6 -1.6
v 2.2 4.7 -1.6
v 2.3 4 -1.6
v 2.3 4.2 -1.6
v 2.3 4.3 -1.6
v 2.3 4.6 -1.6
v 2.4 2.5 -1.6
v 2.4 2.6 -1.6
v 1.7 4.2 -1.7
v 1.7 4.3 -1.7
v 1.8 2.6 -1.7
v 1.8 4 -1.7
v 1.8 4.2 -1.7
v 1.8 4.3 -1.7
v 2.2 2.6 -1.7
v 2.2 4 -1.7
v 2.2 4.2 -1.7
v 2.2 4.3 -1.7
v 2.3 4.2 -1.7
v 2.3 4.3 -1.7
v 1.7 2.6 -1.8
v 1.7 4 -1.8
v 1.7 4.3 -1.8
v 1.7 4.4 -1.8
v 1.8 2.6 -1.8
v 1.8 4 -1.8
v 1.8 4.3 -1.8
v 1.8 4.4 -1.8
v 2.2 2.6 -1.8
v 2.2 4 -1.8
v 2.2 4.3 -1.8
v 2.2 4.4 -1.8
v 2.3 2.6 -1.8
v 2.3 4 -1.8
v 2.3 4.3 -1.8
v 2.3 4.4 -1.8
v 1.7 4.4 -1.9
v 1.7 4.5 -1.9
v 1.8 4.4 -1.9
v 1.8 4.5 -1.9
v 2.2 4.4 -1.9
v 2.2 4.5 -1.9
v 2.3 4.4 -1.9
v 2.3 4.5 -1.9
v 1.7 4.5 -2
v 1.7 4.6 -2
v 1.8 4.5 -2
v 1.8 4.6 -2
v 2.2 4.5 -2
v 2.2 4.6 -2
v 2.3 4.5 -2
v 2.3 4.6 -2
v 1.4 2 -2.1
v 1.4 2.4 -2.1
v 1.5 2 -2.1
v 1.5 2.4 -2.1
v 2.5 2 -2.1
v 2.5 2.4 -2.1
v 2.6 2 -2.1
v 2.6 2.4 -2.1
v 1.7 4.3 -1.7
v 1.7 4.4 -1.7
v 1.8 4.3 -1.7
v 1.8 4.4 -1.7
v 2.2 4.3 -1.7
v 2.2 4.4 -1.7
v 2.3 4.3 -1.7
v 2.3 4.4 -1.7
v 1.7 4.4 -1.8
v 1.7 4.5 -1.8
v 1.8 4.4 -1.8
v 1.8 4.5 -1.8
v 2.2 4.4 -1.8
v 2.2 4.5 -1.8
v 2.3 4.4 -1.8
v 2.3 4.5 -1.8
v 1.4 2 -1.9
v 1.4 2.4 -1.9
v 1.5 2 -1.9
v 1.5 2.4 -1.9
v 1.7 4.5 -1.9
v 1.7 4.6 -1.9
v 1.8 4.5 -1.9
v 1.8 4.6 -1.9
v 2.2 4.5 -1.9
v 2.2 4.6 -1.9
v 2.3 4.5 -1.9
v 2.3 4.6 -1.9
v 2.5 2 -1.9
v 2.5 2.4 -1.9
v 2.6 2 -1.9
v 2.6 2.4 -1.9
v 1.7 2.6 -2.2
v 1.7 4 -2.2
v 1.8 2.6 -2.2
v 1.8 3.1 -2.2
v 1.8 3.7 -2.2
v 1.8 4 -2.2
v 2.2 2.6 -2.2
v 2.2 3.1 -2.2
v 2.2 3.7 -2.2
v 2.2 4 -2.2
v 2.3 2.6 -2.2
v 2.3 4 -2.2
v 1.8 2.6 -2.3
v 1.8 3.1 -2.3
v 1.8 3.7 -2.3
v 1.8 4 -2.3
v 1.9 3.1 -2.3
v 1.9 3.2 -2.3
v 1.9 3.6 -2.3
v 2.1 3.1 -2.3
v 2.1 3.2 -2.3
v 2.1 3.6 -2.3
v 2.2 2.6 -2.3
v 2.2 3.1 -2.3
v 2.2 3.7 -2.3
v 2.2 4 -2.3
v 1.6 2.5 -2.4
v 1.6 2.6 -2.4
v 2.4 2.5 -2.4
v 2.4 2.6 -2.4
v 1.5 2.4 -2.5
v 1.5 2.5 -2.5
v 1.6 2.4 -2.5
v 1.6 2.5 -2.5
v 1.7 4.2 -2.5
v 1.7 4.4 -2.5
v 1.8 2.4 -2.5
v 1.8 4.2 -2.5
v 1.8 4.4 -2.5
v 1.9 2 -2.5
v 1.9 2.4 -2.5
v 2.1 2 -2.5
v 2.1 2.4 -2.5
v 2.2 2.4 -2.5
v 2.2 4.2 -2.5
v 2.2 4.4 -2.5
v 2.3 4.2 -2.5
v 2.3 4.4 -2.5
v 2.4 2.4 -2.5
v 2.4 2.5 -2.5
v 2.5 2.4 -2.5
v 2.5 2.5 -2.5
v 1.4 2 -2.6
v 1.4 2.1 -2.6
v 1.4 2.4 -2.6
v 1.8 2.1 -2.6
v 1.8 2.4 -2.6
v 1.9 2 -2.6
v 1.9 2.4 -2.6
v 2.1 2 -2.6
v 2.1 2.4 -2.6
v 2.2 2.1 -2.6
v 2.2 2.4 -2.6
v 2.6 2 -2.6
v 2.6 2.1 -2.6
v 2.6 2.4 -2.6
v 1.7 4 -2.9
v 1.7 4.1 -2.9
v 1.8 4 -2.9
v 1.8 4.1 -2.9
v 1.7 4.1 -3
v 1.7 4.2 -3
v 1.7 4.4 -3
v 1.7 4.6 -3
v 1.8 4 -3
v 1.8 4.1 -3
v 1.8 4.2 -3
v 1.8 4.4 -3
v 1.8 4.6 -3
v 1.8 4.7 -3
v 1.9 4.6 -3
v 1.9 4.7 -3
v 2.1 4.6 -3
v 2.1 4.7 -3
v 2.2 4.1 -3
v 2.2 4.2 -3
v 2.2 4.4 -3
v 2.2 4.6 -3
v 2.2 4.7 -3
v 2.3 4 -3
v 2.3 4.2 -3
v 2.3 4.4 -3
v 2.3 4.6 -3
v 1.8 4.1 -3.1
v 1.8 4.6 -3.1
v 2.2 4.1 -3.1
v 2.2 4.6 -3.1
v 1.4 2 -1.4
v 1.9 2 -1.4
v 2.1 2 -1.4
v 2.6 2 -1.4
v 1.9 2 -1.5
v 2.1 2 -1.5
v 1.4 2 -1.9
v 1.5 2 -1.9
v 2.5 2 -1.9
v 2.6 2 -1.9
v 1.4 2 -2.1
v 1.5 2 -2.1
v 2.5 2 -2.1
v 2.6 2 -2.1
v 1.9 2 -2.5
v 2.1 2 -2.5
v 1.4 2 -2.6
v 1.9 2 -2.6
v 2.1 2 -2.6
v 2.6 2 -2.6
v 1.7 4 -1.6
v 2.3 4 -1.6
v 1.8 4 -1.7
v 2.2 4 -1.7
v 1.7 4 -1.8
v 1.8 4 -1.8
v 2.2 4 -1.8
v 2.3 4 -1.8
v 1.7 4 -2.2
v 1.8 4 -2.2
v 2.2 4 -2.2
v 2.3 4 -2.2
v 1.8 4 -2.3
v 2.2 4 -2.3
v 1.7 4 -2.9
v 1.8 4 -2.9
v 1.8 4 -3
v 2.3 4 -3
v 1.7 4.1 -2.9
v 1.8 4.1 -2.9
v 1.7 4.1 -3
v 1.8 4.1 -3
v 2.2 4.1 -3
v 1.8 4.1 -3.1
v 2.2 4.1 -3.1
v 1.7 4.3 -1.6
v 1.8 4.3 -1.6
v 2.2 4.3 -1.6
v 2.3 4.3 -1.6
v 1.7 4.3 -1.7
v 1.8 4.3 -1.7
v 2.2 4.3 -1.7
v 2.3 4.3 -1.7
v 1.7 4.4 -1.7
v 1.8 4.4 -1.7
v 2.2 4.4 -1.7
v 2.3 4.4 -1.7
v 1.7 4.4 -1.8
v 1.8 4.4 -1.8
v 2.2 4.4 -1.8
v 2.3 4.4 -1.8
v 1.7 4.4 -2.5
v 1.8 4.4 -2.5
v 2.2 4.4 -2.5
v 2.3 4.4 -2.5
v 1.7 4.4 -3
v 1.8 4.4 -3
v 2.2 4.4 -3
v 2.3 4.4 -3
v 1.7 4.5 -1.8
v 1.8 4.5 -1.8
v 2.2 4.5 -1.8
v 2.3 4.5 -1.8
v 1.7 4.5 -1.9
v 1.8 4.5 -1.9
v 2.2 4.5 -1.9
v 2.3 4.5 -1.9
v 1.4 2.4 -1.4
v 1.8 2.4 -1.4
v 1.9 2.4 -1.4
v 2.1 2.4 -1.4
v 2.2 2.4 -1.4
v 2.6 2.4 -1.4
v 1.5 2.4 -1.5
v 1.6 2.4 -1.5
v 1.8 2.4 -1.5
v 1.9 2.4 -1.5
v 2.1 2.4 -1.5
v 2.2 2.4 -1.5
v 2.4 2.4 -1.5
v 2.5 2.4 -1.5
v 1.5 2.4 -1.6
v 2.5 2.4 -1.6
v 1.4 2.4 -1.8
v 1.5 2.4 -1.8
v 2.5 2.4 -1.8
v 2.6 2.4 -1.8
v 1.4 2.4 -1.9
v 1.5 2.4 -1.9
v 2.5 2.4 -1.9
v 2.6 2.4 -1.9
v 1.4 2.4 -2.1
v 1.5 2.4 -2.1
v 2.5 2.4 -2.1
v 2.6 2.4 -2.1
v 1.4 2.4 -2.2
v 1.5 2.4 -2.2
v 2.5 2.4 -2.2
v 2.6 2.4 -2.2
v 1.5 2.4 -2.4
v 2.5 2.4 -2.4
v 1.5 2.4 -2.5
v 1.6 2.4 -2.5
v 1.8 2.4 -2.5
v 1.9 2.4 -2.5
v 2.1 2.4 -2.5
v 2.2 2.4 -2.5
v 2.4 2.4 -2.5
v 2.5 2.4 -2.5
v 1.4 2.4 -2.6
v 1.8 2.4 -2.6
v 1.9 2.4 -2.6
v 2.1 2.4 -2.6
v 2.2 2.4 -2.6
v 2.6 2.4 -2.6
v 1.5 2.5 -1.5
v 1.6 2.5 -1.5
v 2.4 2.5 -1.5
v 2.5 2.5 -1.5
v 1.5 2.5 -1.6
v 1.6 2.5 -1.6
v 2.4 2.5 -1.6
v 2.5 2.5 -1.6
v 1.5 2.5 -2.4
v 1.6 2.5 -2.4
v 2.4 2.5 -2.4
v 2.5 2.5 -2.4
v 1.5 2.5 -2.5
v 1.6 2.5 -2.5
v 2.4 2.5 -2.5
v 2.5 2.5 -2.5
v 1.6 2.6 -1.6
v 2.4 2.6 -1.6
v 1.8 2.6 -1.7
v 2.2 2.6 -1.7
v 1.7 2.6 -1.8
v 1.8 2.6 -1.8
v 2.2 2.6 -1.8
v 2.3 2.6 -1.8
v 1.7 2.6 -2.2
v 1.8 2.6 -2.2
v 2.2 2.6 -2.2
v 2.3 2.6 -2.2
v 1.8 2.6 -2.3
v 2.2 2.6 -2.3
v 1.6 2.6 -2.4
v 2.4 2.6 -2.4
v 1.7 4.2 -1.6
v 1.8 4.2 -1.6
v 2.2 4.2 -1.6
v 2.3 4.2 -1.6
v 1.7 4.2 -1.7
v 1.8 4.2 -1.7
v 2.2 4.2 -1.7
v 2.3 4.2 -1.7
v 1.7 4.2 -2.5
v 1.8 4.2 -2.5
v 2.2 4.2 -2.5
v 2.3 4.2 -2.5
v 1.7 4.2 -3
v 1.8 4.2 -3
v 2.2 4.2 -3
v 2.3 4.2 -3
v 1.7 4.3 -1.7
v 1.8 4.3 -1.7
v 2.2 4.3 -1.7
v 2.3 4.3 -1.7
v 1.7 4.3 -1.8
v 1.8 4.3 -1.8
v 2.2 4.3 -1.8
v 2.3 4.3 -1.8
v 1.7 4.4 -1.8
v 1.8 4.4 -1.8
v 2.2 4.4 -1.8
v 2.3 4.4 -1.8
v 1.7 4.4 -1.9
v 1.8 4.4 -1.9
v 2.2 4.4 -1.9
v 2.3 4.4 -1.9
v 1.7 4.5 -1.9
v 1.8 4.5 -1.9
v 2.2 4.5 -1.9
v 2.3 4.5 -1.9
v 1.7 4.5 -2
v 1.8 4.5 -2
v 2.2 4.5 -2
v 2.3 4.5 -2
v 1.7 4.6 -1.6
v 1.8 4.6 -1.6
v 1.9 4.6 -1.6
v 2.1 4.6 -1.6
v 2.2 4.6 -1.6
v 2.3 4.6 -1.6
v 1.7 4.6 -1.9
v 1.8 4.6 -1.9
v 2.2 4.6 -1.9
v 2.3 4.6 -1.9
v 1.7 4.6 -2
v 1.8 4.6 -2
v 2.2 4.6 -2
v 2.3 4.6 -2
v 1.7 4.6 -3
v 1.8 4.6 -3
v 1.9 4.6 -3
v 2.1 4.6 -3
v 2.2 4.6 -3
v 2.3 4.6 -3
v 1.8 4.6 -3.1
v 2.2 4.6 -3.1
v 1.8 4.7 -1.6
v 1.9 4.7 -1.6
v 2.1 4.7 -1.6
v 2.2 4.7 -1.6
v 1.8 4.7 -3
v 1.9 4.7 -3
v 2.1 4.7 -3
v 2.2 4.7 -3

# faces
f 5/3/1 2/3/1 1/3/1
f 6/3/1 2/3/1 5/3/1
f 7/3/1 4/3/1 3/3/1
f 8/3/1 4/3/1 7/3/1
f 9/2/1 6/2/1 5/2/1
f 10/3/1 2/3/1 6/3/1
f 10/2/1 6/2/1 9/2/1
f 11/3/1 2/3/1 10/3/1
f 12/3/1 7/3/1 3/3/1
f 13/2/1 8/2/1 7/2/1
f 13/3/1 7/3/1 12/3/1
f 14/2/1 8/2/1 13/2/1
f 20/3/1 16/3/1 15/3/1
f 21/3/1 16/3/1 20/3/1
f 25/2/1 18/2/1 17/2/1
f 26/3/1 19/3/1 18/3/1
f 26/2/1 18/2/1 25/2/1
f 26/3/1 20/3/1 19/3/1
f 26/3/1 23/3/1 22/3/1
f 26/3/1 22/3/1 21/3/1
f 26/3/1 21/3/1 20/3/1
f 27/2/1 24/2/1 23/2/1
f 27/3/1 23/3/1 26/3/1
f 28/2/1 24/2/1 27/2/1
f 31/3/1 30/3/1 29/3/1
f 32/3/1 30/3/1 31/3/1
f 36/3/1 34/3/1 33/3/1
f 37/3/1 34/3/1 36/3/1
f 39/3/1 36/3/1 35/3/1
f 39/3/1 38/3/1 37/3/1
f 39/3/1 37/3/1 36/3/1
f 41/3/1 39/3/1 35/3/1
f 41/3/1 40/3/1 39/3/1
f 42/3/1 40/3/1 41/3/1
f 43/3/1 40/3/1 42/3/1
f 44/3/1 40/3/1 43/3/1
f 46/3/1 43/3/1 42/3/1
f 47/3/1 43/3/1 46/3/1
f 48/3/1 46/3/1 45/3/1
f 49/3/1 43/3/1 47/3/1
f 50/3/1 43/3/1 49/3/1
f 51/3/1 43/3/1 50/3/1
f 53/3/1 49/3/1 48/3/1
f 54/3/1 52/3/1 51/3/1
f 54/3/1 51/3/1 50/3/1
f 55/3/1 52/3/1 54/3/1
f 56/3/1 48/3/1 45/3/1
f 56/3/1 53/3/1 48/3/1
f 56/3/1 54/3/1 53/3/1
f 57/3/1 54/3/1 56/3/1
f 58/3/1 52/3/1 55/3/1
f 59/3/1 52/3/1 58/3/1
f 64/3/1 63/3/1 62/3/1
f 65/3/1 63/3/1 64/3/1
f 66/4/1 65/4/1 64/4/1
f 67/4/1 65/4/1 66/4/1
f 68/3/1 61/3/1 60/3/1
f 69/3/1 61/3/1 68/3/1
f 70/3/1 67/3/1 66/3/1
f 71/3/1 67/3/1 70/3/1
f 74/3/1 73/3/1 72/3/1
f 75/3/1 73/3/1 74/3/1
f 80/3/1 76/3/1 75/3/1
f 81/3/1 78/3/1 77/3/1
f 82/3/1 78/3/1 81/3/1
f 84/4/1 83/4/1 82/4/1
f 85/4/1 83/4/1 84/4/1
f 87/3/1 80/3/1 79/3/1
f 88/3/1 76/3/1 80/3/1
f 88/3/1 80/3/1 87/3/1
f 89/4/1 86/4/1 85/4/1
f 90/4/1 86/4/1 89/4/1
f 93/4/1 91/4/1 90/4/1
f 94/4/1 91/4/1 93/4/1
f 95/3/1 76/3/1 88/3/1
f 96/3/1 76/3/1 95/3/1
f 97/3/1 94/3/1 93/3/1
f 97/3/1 93/3/1 92/3/1
f 97/3/1 95/3/1 94/3/1
f 98/3/1 95/3/1 97/3/1
f 103/3/1 100/3/1 99/3/1
f 104/3/1 100/3/1 103/3/1
f 105/3/1 102/3/1 101/3/1
f 106/3/1 102/3/1 105/3/1
f 109/3/1 108/3/1 107/3/1
f 110/3/1 108/3/1 109/3/1
f 111/3/2 112/3/2 115/3/2
f 115/3/2 112/3/2 116/3/2
f 113/3/2 114/3/2 117/3/2
f 117/3/2 114/3/2 118/3/2
f 119/3/2 120/3/2 121/3/2
f 121/3/2 120/3/2 122/3/2
f 125/3/2 126/3/2 127/3/2
f 127/3/2 126/3/2 128/3/2
f 127/4/2 128/4/2 129/4/2
f 129/4/2 128/4/2 130/4/2
f 123/3/2 124/3/2 131/3/2
f 131/3/2 124/3/2 132/3/2
f 129/3/2 130/3/2 133/3/2
f 133/3/2 130/3/2 134/3/2
f 135/3/2 136/3/2 140/3/2
f 137/3/2 138/3/2 141/3/2
f 141/3/2 138/3/2 142/3/2
f 142/4/2 143/4/2 144/4/2
f 144/4/2 143/4/2 145/4/2
f 139/3/2 140/3/2 147/3/2
f 140/3/2 136/3/2 148/3/2
f 147/3/2 140/3/2 148/3/2
f 145/4/2 146/4/2 149/4/2
f 149/4/2 146/4/2 150/4/2
f 150/4/2 151/4/2 153/4/2
f 153/4/2 151/4/2 154/4/2
f 148/3/2 136/3/2 155/3/2
f 155/3/2 136/3/2 156/3/2
f 153/3/2 154/3/2 157/3/2
f 152/3/2 153/3/2 157/3/2
f 154/3/2 155/3/2 157/3/2
f 157/3/2 155/3/2 158/3/2
f 159/3/2 160/3/2 162/3/2
f 162/3/2 160/3/2 163/3/2
f 161/3/2 162/3/2 165/3/2
f 163/3/2 164/3/2 165/3/2
f 162/3/2 163/3/2 165/3/2
f 165/3/2 164/3/2 166/3/2
f 166/3/2 164/3/2 167/3/2
f 167/3/2 164/3/2 168/3/2
f 166/3/2 167/3/2 170/3/2
f 170/3/2 167/3/2 171/3/2
f 169/3/2 170/3/2 172/3/2
f 171/3/2 167/3/2 173/3/2
f 173/3/2 167/3/2 174/3/2
f 174/3/2 167/3/2 175/3/2
f 172/3/2 173/3/2 177/3/2
f 175/3/2 176/3/2 178/3/2
f 174/3/2 175/3/2 178/3/2
f 178/3/2 176/3/2 179/3/2
f 169/3/2 172/3/2 180/3/2
f 172/3/2 177/3/2 180/3/2
f 177/3/2 178/3/2 180/3/2
f 180/3/2 178/3/2 181/3/2
f 179/3/2 176/3/2 182/3/2
f 182/3/2 176/3/2 183/3/2
f 184/3/2 185/3/2 186/3/2
f 186/3/2 185/3/2 187/3/2
f 188/3/2 189/3/2 193/3/2
f 193/3/2 189/3/2 194/3/2
f 190/2/2 191/2/2 198/2/2
f 191/3/2 192/3/2 199/3/2
f 198/2/2 191/2/2 199/2/2
f 192/3/2 193/3/2 199/3/2
f 195/3/2 196/3/2 199/3/2
f 194/3/2 195/3/2 199/3/2
f 193/3/2 194/3/2 199/3/2
f 196/2/2 197/2/2 200/2/2
f 199/3/2 196/3/2 200/3/2
f 200/2/2 197/2/2 201/2/2
f 202/3/2 203/3/2 206/3/2
f 206/3/2 203/3/2 207/3/2
f 204/3/2 205/3/2 208/3/2
f 208/3/2 205/3/2 209/3/2
f 206/2/2 207/2/2 210/2/2
f 207/3/2 203/3/2 211/3/2
f 210/2/2 207/2/2 211/2/2
f 211/3/2 203/3/2 212/3/2
f 204/3/2 208/3/2 213/3/2
f 208/2/2 209/2/2 214/2/2
f 213/3/2 208/3/2 214/3/2
f 214/2/2 209/2/2 215/2/2
f 219/3/3 217/3/3 216/3/3
f 219/2/3 218/2/3 217/2/3
f 220/2/3 218/2/3 219/2/3
f 221/3/3 219/3/3 216/3/3
f 221/3/3 220/3/3 219/3/3
f 222/3/3 220/3/3 221/3/3
f 225/3/3 224/3/3 223/3/3
f 226/3/3 224/3/3 225/3/3
f 227/3/3 225/3/3 223/3/3
f 228/2/3 226/2/3 225/2/3
f 228/3/3 225/3/3 227/3/3
f 229/2/3 226/2/3 228/2/3
f 232/2/3 231/2/3 230/2/3
f 233/2/3 231/2/3 232/2/3
f 234/3/3 233/3/3 232/3/3
f 236/3/3 233/3/3 234/3/3
f 237/3/3 236/3/3 235/3/3
f 238/3/3 233/3/3 236/3/3
f 238/3/3 236/3/3 237/3/3
f 239/3/3 233/3/3 238/3/3
f 240/3/3 233/3/3 239/3/3
f 241/3/3 233/3/3 240/3/3
f 242/2/3 241/2/3 240/2/3
f 243/2/3 241/2/3 242/2/3
f 250/3/3 247/3/3 246/3/3
f 251/3/3 249/3/3 248/3/3
f 252/3/3 249/3/3 251/3/3
f 254/3/3 251/3/3 250/3/3
f 254/3/3 253/3/3 252/3/3
f 254/3/3 252/3/3 251/3/3
f 255/3/3 253/3/3 254/3/3
f 256/3/3 254/3/3 250/3/3
f 258/3/3 250/3/3 246/3/3
f 258/3/3 257/3/3 256/3/3
f 258/3/3 256/3/3 250/3/3
f 259/3/3 257/3/3 258/3/3
f 260/3/3 257/3/3 259/3/3
f 261/3/3 257/3/3 260/3/3
f 262/3/3 258/3/3 246/3/3
f 263/3/3 258/3/3 262/3/3
f 264/3/3 260/3/3 259/3/3
f 265/3/3 260/3/3 264/3/3
f 266/3/3 245/3/3 244/3/3
f 267/3/3 245/3/3 266/3/3
f 272/3/3 269/3/3 268/3/3
f 273/3/3 269/3/3 272/3/3
f 274/3/3 271/3/3 270/3/3
f 275/3/3 271/3/3 274/3/3
f 278/3/3 277/3/3 276/3/3
f 279/3/3 277/3/3 278/3/3
f 284/3/3 281/3/3 280/3/3
f 285/3/3 281/3/3 284/3/3
f 286/3/3 283/3/3 282/3/3
f 287/3/3 283/3/3 286/3/3
f 292/3/3 289/3/3 288/3/3
f 293/3/3 289/3/3 292/3/3
f 294/3/3 291/3/3 290/3/3
f 295/3/3 291/3/3 294/3/3
f 298/3/3 297/3/3 296/3/3
f 299/3/3 297/3/3 298/3/3
f 302/3/3 301/3/3 300/3/3
f 303/3/3 301/3/3 302/3/3
f 306/3/3 305/3/3 304/3/3
f 307/3/3 305/3/3 306/3/3
f 310/3/3 309/3/3 308/3/3
f 311/3/3 309/3/3 310/3/3
f 314/3/3 313/3/3 312/3/3
f 315/3/3 313/3/3 314/3/3
f 318/3/3 317/3/3 316/3/3
f 319/3/3 317/3/3 318/3/3
f 320/3/4 321/3/4 322/3/4
f 322/3/4 321/3/4 323/3/4
f 324/3/4 325/3/4 326/3/4
f 326/3/4 325/3/4 327/3/4
f 328/3/4 329/3/4 330/3/4
f 330/3/4 329/3/4 331/3/4
f 332/3/4 333/3/4 334/3/4
f 334/3/4 333/3/4 335/3/4
f 336/3/4 337/3/4 338/3/4
f 338/3/4 337/3/4 339/3/4
f 340/3/4 341/3/4 342/3/4
f 342/3/4 341/3/4 343/3/4
f 344/3/4 345/3/4 346/3/4
f 346/3/4 345/3/4 347/3/4
f 348/3/4 349/3/4 350/3/4
f 350/3/4 349/3/4 351/3/4
f 352/3/4 353/3/4 354/3/4
f 354/3/4 353/3/4 355/3/4
f 355/3/4 353/3/4 356/3/4
f 356/3/4 353/3/4 357/3/4
f 358/3/4 359/3/4 362/3/4
f 360/3/4 361/3/4 362/3/4
f 359/3/4 360/3/4 362/3/4
f 362/3/4 361/3/4 363/3/4
f 364/3/4 365/3/4 368/3/4
f 365/4/4 366/4/4 368/4/4
f 368/4/4 366/4/4 369/4/4
f 369/4/4 366/4/4 370/4/4
f 364/3/4 368/3/4 371/3/4
f 368/3/4 369/3/4 371/3/4
f 369/2/4 370/2/4 372/2/4
f 371/3/4 369/3/4 372/3/4
f 370/4/4 366/4/4 373/4/4
f 372/2/4 370/2/4 373/2/4
f 364/3/4 371/3/4 374/3/4
f 371/4/4 372/4/4 375/4/4
f 374/3/4 371/3/4 375/3/4
f 372/4/4 373/4/4 375/4/4
f 366/3/4 367/3/4 376/3/4
f 375/4/4 373/4/4 376/4/4
f 373/4/4 366/4/4 376/4/4
f 376/3/4 367/3/4 377/3/4
f 378/3/4 379/3/4 380/3/4
f 380/3/4 379/3/4 381/3/4
f 382/2/4 383/2/4 384/2/4
f 384/2/4 383/2/4 385/2/4
f 384/3/4 385/3/4 388/3/4
f 386/3/4 387/3/4 389/3/4
f 389/3/4 387/3/4 390/3/4
f 388/3/4 385/3/4 392/3/4
f 391/3/4 392/3/4 393/3/4
f 392/3/4 385/3/4 394/3/4
f 393/3/4 392/3/4 394/3/4
f 394/3/4 385/3/4 395/3/4
f 396/3/4 397/3/4 398/3/4
f 398/3/4 397/3/4 399/3/4
f 395/3/4 385/3/4 400/3/4
f 400/3/4 385/3/4 401/3/4
f 400/2/4 401/2/4 402/2/4
f 402/2/4 401/2/4 403/2/4
f 404/3/4 405/3/4 407/3/4
f 405/2/4 406/2/4 407/2/4
f 407/2/4 406/2/4 408/2/4
f 404/3/4 407/3/4 409/3/4
f 407/3/4 408/3/4 409/3/4
f 409/3/4 408/3/4 410/3/4
f 411/3/4 412/3/4 413/3/4
f 413/3/4 412/3/4 414/3/4
f 411/3/4 413/3/4 415/3/4
f 413/2/4 414/2/4 416/2/4
f 415/3/4 413/3/4 416/3/4
f 416/2/4 414/2/4 417/2/4
f 418/3/4 419/3/4 420/3/4
f 420/3/4 419/3/4 421/3/4
f 422/3/4 423/3/4 427/3/4
f 427/3/4 423/3/4 428/3/4
f 424/3/4 425/3/4 429/3/4
f 429/3/4 425/3/4 430/3/4
f 430/3/4 431/3/4 432/3/4
f 432/3/4 431/3/4 433/3/4
f 426/3/4 427/3/4 436/3/4
f 434/3/4 435/3/4 439/3/4
f 439/3/4 435/3/4 440/3/4
f 436/3/4 437/3/4 441/3/4
f 426/3/4 436/3/4 441/3/4
f 441/3/4 437/3/4 442/3/4
f 438/3/4 439/3/4 443/3/4
f 443/3/4 439/3/4 444/3/4
f 445/3/4 446/3/4 447/3/4
f 447/3/4 446/3/4 448/3/4
f 453/3/5 450/3/5 449/3/5
f 454/3/5 452/3/5 451/3/5
f 455/3/5 453/3/5 449/3/5
f 455/3/5 454/3/5 453/3/5
f 456/3/5 454/3/5 455/3/5
f 457/3/5 452/3/5 454/3/5
f 457/3/5 454/3/5 456/3/5
f 458/3/5 452/3/5 457/3/5
f 460/3/5 457/3/5 456/3/5
f 461/3/5 457/3/5 460/3/5
f 463/3/5 460/3/5 459/3/5
f 463/3/5 462/3/5 461/3/5
f 463/3/5 461/3/5 460/3/5
f 464/3/5 462/3/5 463/3/5
f 465/3/5 463/3/5 459/3/5
f 466/3/5 463/3/5 465/3/5
f 467/3/5 462/3/5 464/3/5
f 468/3/5 462/3/5 467/3/5
f 471/3/5 470/3/5 469/3/5
f 472/3/5 470/3/5 471/3/5
f 473/3/5 471/3/5 469/3/5
f 474/3/5 471/3/5 473/3/5
f 475/3/5 470/3/5 472/3/5
f 476/3/5 470/3/5 475/3/5
f 481/3/5 478/3/5 477/3/5
f 482/3/5 480/3/5 479/3/5
f 483/3/5 481/3/5 477/3/5
f 483/3/5 482/3/5 481/3/5
f 484/3/5 482/3/5 483/3/5
f 485/3/5 482/3/5 484/3/5
f 486/3/5 480/3/5 482/3/5
f 486/3/5 482/3/5 485/3/5
f 489/3/5 488/3/5 487/3/5
f 490/3/5 488/3/5 489/3/5
f 492/3/5 491/3/5 490/3/5
f 493/3/5 491/3/5 492/3/5
f 498/3/5 495/3/5 494/3/5
f 499/3/5 495/3/5 498/3/5
f 500/3/5 497/3/5 496/3/5
f 501/3/5 497/3/5 500/3/5
f 506/3/5 503/3/5 502/3/5
f 507/3/5 503/3/5 506/3/5
f 508/3/5 505/3/5 504/3/5
f 509/3/5 505/3/5 508/3/5
f 514/3/5 511/3/5 510/3/5
f 515/3/5 511/3/5 514/3/5
f 516/3/5 513/3/5 512/3/5
f 517/3/5 513/3/5 516/3/5
f 522/3/5 519/3/5 518/3/5
f 523/3/5 519/3/5 522/3/5
f 524/3/5 521/3/5 520/3/5
f 525/3/5 521/3/5 524/3/5
f 526/2/6 527/2/6 532/2/6
f 532/2/6 527/2/6 533/2/6
f 527/3/6 528/3/6 534/3/6
f 533/2/6 527/2/6 534/2/6
f 534/3/6 528/3/6 535/3/6
f 529/3/6 530/3/6 536/3/6
f 530/2/6 531/2/6 537/2/6
f 536/3/6 530/3/6 537/3/6
f 537/2/6 531/2/6 538/2/6
f 538/2/6 531/2/6 539/2/6
f 526/2/6 532/2/6 540/2/6
f 539/2/6 531/2/6 541/2/6
f 526/2/6 540/2/6 542/2/6
f 542/2/6 540/2/6 543/2/6
f 541/2/6 531/2/6 544/2/6
f 544/2/6 531/2/6 545/2/6
f 542/3/6 543/3/6 546/3/6
f 546/3/6 543/3/6 547/3/6
f 544/3/6 545/3/6 548/3/6
f 548/3/6 545/3/6 549/3/6
f 550/3/6 551/3/6 554/3/6
f 554/3/6 551/3/6 555/3/6
f 552/3/6 553/3/6 556/3/6
f 556/3/6 553/3/6 557/3/6
f 554/2/6 555/2/6 558/2/6
f 556/2/6 557/2/6 559/2/6
f 554/2/6 558/2/6 560/2/6
f 559/2/6 557/2/6 567/2/6
f 554/2/6 560/2/6 568/2/6
f 560/2/6 561/2/6 568/2/6
f 561/2/6 562/2/6 568/2/6
f 562/3/6 563/3/6 569/3/6
f 568/2/6 562/2/6 569/2/6
f 569/3/6 563/3/6 570/3/6
f 564/3/6 565/3/6 571/3/6
f 565/2/6 566/2/6 572/2/6
f 571/3/6 565/3/6 572/3/6
f 566/2/6 567/2/6 572/2/6
f 567/2/6 557/2/6 573/2/6
f 572/2/6 567/2/6 573/2/6
f 574/2/6 575/2/6 578/2/6
f 575/3/6 576/3/6 579/3/6
f 578/2/6 575/2/6 579/2/6
f 576/2/6 577/2/6 580/2/6
f 579/3/6 576/3/6 580/3/6
f 580/2/6 577/2/6 581/2/6
f 578/3/6 579/3/6 582/3/6
f 582/3/6 579/3/6 583/3/6
f 580/3/6 581/3/6 584/3/6
f 584/3/6 581/3/6 585/3/6
f 582/2/6 583/2/6 586/2/6
f 583/3/6 584/3/6 587/3/6
f 586/2/6 583/2/6 587/2/6
f 584/2/6 585/2/6 588/2/6
f 587/3/6 584/3/6 588/3/6
f 588/2/6 585/2/6 589/2/6
f 590/3/6 591/3/6 592/3/6
f 592/3/6 591/3/6 593/3/6
f 590/3/6 592/3/6 594/3/6
f 594/3/6 592/3/6 595/3/6
f 593/3/6 591/3/6 596/3/6
f 596/3/6 591/3/6 597/3/6
f 590/3/6 594/3/6 598/3/6
f 597/3/6 591/3/6 601/3/6
f 598/3/6 599/3/6 602/3/6
f 600/3/6 601/3/6 603/3/6
f 598/3/6 602/3/6 604/3/6
f 602/3/6 603/3/6 604/3/6
f 590/3/6 598/3/6 604/3/6
f 603/3/6 601/3/6 605/3/6
f 604/3/6 603/3/6 605/3/6
f 601/3/6 591/3/6 605/3/6
f 606/3/6 607/3/6 610/3/6
f 610/3/6 607/3/6 611/3/6
f 608/3/6 609/3/6 612/3/6
f 612/3/6 609/3/6 613/3/6
f 614/3/6 615/3/6 618/3/6
f 618/3/6 615/3/6 619/3/6
f 616/3/6 617/3/6 620/3/6
f 620/3/6 617/3/6 621/3/6
f 622/3/6 623/3/6 626/3/6
f 626/3/6 623/3/6 627/3/6
f 624/3/6 625/3/6 628/3/6
f 628/3/6 625/3/6 629/3/6
f 630/3/6 631/3/6 634/3/6
f 634/3/6 631/3/6 635/3/6
f 632/3/6 633/3/6 636/3/6
f 636/3/6 633/3/6 637/3/6
f 638/3/6 639/3/6 642/3/6
f 642/3/6 639/3/6 643/3/6
f 640/3/6 641/3/6 644/3/6
f 644/3/6 641/3/6 645/3/6
f 646/3/6 647/3/6 652/3/6
f 652/3/6 647/3/6 653/3/6
f 650/3/6 651/3/6 654/3/6
f 654/3/6 651/3/6 655/3/6
f 656/3/6 657/3/6 660/3/6
f 660/3/6 657/3/6 661/3/6
f 648/3/6 649/3/6 662/3/6
f 662/3/6 649/3/6 663/3/6
f 658/3/6 659/3/6 664/3/6
f 664/3/6 659/3/6 665/3/6
f 662/3/6 663/3/6 666/3/6
f 663/3/6 664/3/6 666/3/6
f 661/3/6 662/3/6 666/3/6
f 666/3/6 664/3/6 667/3/6
f 668/3/6 669/3/6 672/3/6
f 672/3/6 669/3/6 673/3/6
f 670/3/6 671/3/6 674/3/6
f 674/3/6 671/3/6 675/3/6
