# MagicaVoxel @ Ephtracy

# group
o 

# material
mtllib heavyhorse.blue.mtl
usemtl palette

# normals
vn -1 0 0
vn 1 0 0
vn 0 0 1
vn 0 0 -1
vn 0 -1 0
vn 0 1 0

# texcoords
vt 0.306641 0.5
vt 0.810547 0.5
vt 0.986328 0.5
vt 0.990234 0.5

# verts
v 1.4 2 -1.5
v 1.4 2 -2.5
v 1.4 2.1 -1.8
v 1.4 2.1 -2.2
v 1.4 2.4 -1.5
v 1.4 2.4 -1.8
v 1.4 2.4 -2.2
v 1.4 2.4 -2.5
v 1.5 2 -1.4
v 1.5 2 -1.5
v 1.5 2 -2.5
v 1.5 2 -2.6
v 1.5 2.4 -1.4
v 1.5 2.4 -1.5
v 1.5 2.4 -2.5
v 1.5 2.4 -2.6
v 1.6 2.4 -1.7
v 1.6 2.4 -1.8
v 1.6 2.4 -2.2
v 1.6 2.4 -2.4
v 1.6 4 -2.4
v 1.6 4 -3.1
v 1.6 4.2 -1.7
v 1.6 4.2 -1.8
v 1.6 4.3 -1.7
v 1.6 4.3 -1.8
v 1.6 4.3 -1.9
v 1.6 4.4 -1.8
v 1.6 4.4 -1.9
v 1.6 4.4 -2
v 1.6 4.5 -1.9
v 1.6 4.5 -2
v 1.6 4.5 -2.1
v 1.6 4.6 -2
v 1.6 4.6 -2.1
v 1.6 4.6 -2.2
v 1.6 4.7 -1.7
v 1.6 4.7 -2.1
v 1.6 4.7 -2.2
v 1.6 4.7 -3.1
v 1.7 2.4 -1.6
v 1.7 2.4 -1.7
v 1.7 4.1 -3.1
v 1.7 4.1 -3.2
v 1.7 4.2 -1.7
v 1.7 4.2 -1.8
v 1.7 4.3 -1.7
v 1.7 4.3 -1.8
v 1.7 4.3 -1.9
v 1.7 4.4 -1.8
v 1.7 4.4 -1.9
v 1.7 4.4 -2
v 1.7 4.5 -1.9
v 1.7 4.5 -2
v 1.7 4.5 -2.1
v 1.7 4.6 -2
v 1.7 4.6 -2.1
v 1.7 4.6 -2.2
v 1.7 4.7 -1.7
v 1.7 4.7 -2.1
v 1.7 4.7 -2.2
v 1.7 4.7 -2.3
v 1.7 4.7 -3.1
v 1.7 4.7 -3.2
v 1.7 4.8 -1.6
v 1.7 4.8 -2.2
v 1.7 4.8 -2.3
v 1.7 4.8 -3.1
v 1.8 4.7 -2.2
v 1.8 4.7 -2.3
v 1.8 4.8 -2.2
v 1.8 4.8 -2.3
v 2.1 3.2 -2.3
v 2.1 3.2 -2.4
v 2.1 3.3 -2.3
v 2.1 3.3 -2.4
v 1.9 3.2 -2.3
v 1.9 3.2 -2.4
v 1.9 3.3 -2.3
v 1.9 3.3 -2.4
v 2.2 4.7 -2.2
v 2.2 4.7 -2.3
v 2.2 4.8 -2.2
v 2.2 4.8 -2.3
v 2.3 2.4 -1.6
v 2.3 2.4 -1.7
v 2.3 4.1 -3.1
v 2.3 4.1 -3.2
v 2.3 4.2 -1.7
v 2.3 4.2 -1.8
v 2.3 4.3 -1.7
v 2.3 4.3 -1.8
v 2.3 4.3 -1.9
v 2.3 4.4 -1.8
v 2.3 4.4 -1.9
v 2.3 4.4 -2
v 2.3 4.5 -1.9
v 2.3 4.5 -2
v 2.3 4.5 -2.1
v 2.3 4.6 -2
v 2.3 4.6 -2.1
v 2.3 4.6 -2.2
v 2.3 4.7 -1.7
v 2.3 4.7 -2.1
v 2.3 4.7 -2.2
v 2.3 4.7 -2.3
v 2.3 4.7 -3.1
v 2.3 4.7 -3.2
v 2.3 4.8 -1.6
v 2.3 4.8 -2.2
v 2.3 4.8 -2.3
v 2.3 4.8 -3.1
v 2.4 2.4 -1.7
v 2.4 2.4 -1.8
v 2.4 2.4 -2.2
v 2.4 2.4 -2.4
v 2.4 4 -2.4
v 2.4 4 -3.1
v 2.4 4.2 -1.7
v 2.4 4.2 -1.8
v 2.4 4.3 -1.7
v 2.4 4.3 -1.8
v 2.4 4.3 -1.9
v 2.4 4.4 -1.8
v 2.4 4.4 -1.9
v 2.4 4.4 -2
v 2.4 4.5 -1.9
v 2.4 4.5 -2
v 2.4 4.5 -2.1
v 2.4 4.6 -2
v 2.4 4.6 -2.1
v 2.4 4.6 -2.2
v 2.4 4.7 -1.7
v 2.4 4.7 -2.1
v 2.4 4.7 -2.2
v 2.4 4.7 -3.1
v 2.5 2 -1.4
v 2.5 2 -1.5
v 2.5 2 -2.5
v 2.5 2 -2.6
v 2.5 2.4 -1.4
v 2.5 2.4 -1.5
v 2.5 2.4 -2.5
v 2.5 2.4 -2.6
v 2.6 2 -1.5
v 2.6 2 -2.5
v 2.6 2.1 -1.8
v 2.6 2.1 -2.2
v 2.6 2.4 -1.5
v 2.6 2.4 -1.8
v 2.6 2.4 -2.2
v 2.6 2.4 -2.5
v 1.5 2 -1.4
v 1.5 2.4 -1.4
v 1.8 2.1 -1.4
v 1.8 2.4 -1.4
v 2.2 2.1 -1.4
v 2.2 2.4 -1.4
v 2.5 2 -1.4
v 2.5 2.4 -1.4
v 1.4 2 -1.5
v 1.4 2.4 -1.5
v 1.5 2 -1.5
v 1.5 2.4 -1.5
v 2.5 2 -1.5
v 2.5 2.4 -1.5
v 2.6 2 -1.5
v 2.6 2.4 -1.5
v 1.7 2.4 -1.6
v 1.7 4.8 -1.6
v 1.8 2.4 -1.6
v 2.2 2.4 -1.6
v 2.3 2.4 -1.6
v 2.3 4.8 -1.6
v 1.6 2.4 -1.7
v 1.6 4.2 -1.7
v 1.6 4.3 -1.7
v 1.6 4.7 -1.7
v 1.7 2.4 -1.7
v 1.7 4.2 -1.7
v 1.7 4.3 -1.7
v 1.7 4.7 -1.7
v 2.3 2.4 -1.7
v 2.3 4.2 -1.7
v 2.3 4.3 -1.7
v 2.3 4.7 -1.7
v 2.4 2.4 -1.7
v 2.4 4.2 -1.7
v 2.4 4.3 -1.7
v 2.4 4.7 -1.7
v 1.6 4.2 -1.8
v 1.6 4.3 -1.8
v 1.7 4.2 -1.8
v 1.7 4.3 -1.8
v 2.3 4.2 -1.8
v 2.3 4.3 -1.8
v 2.4 4.2 -1.8
v 2.4 4.3 -1.8
v 1.6 4.3 -1.9
v 1.6 4.4 -1.9
v 1.7 4.3 -1.9
v 1.7 4.4 -1.9
v 2.3 4.3 -1.9
v 2.3 4.4 -1.9
v 2.4 4.3 -1.9
v 2.4 4.4 -1.9
v 1.6 4.4 -2
v 1.6 4.5 -2
v 1.7 4.4 -2
v 1.7 4.5 -2
v 2.3 4.4 -2
v 2.3 4.5 -2
v 2.4 4.4 -2
v 2.4 4.5 -2
v 1.6 4.5 -2.1
v 1.6 4.6 -2.1
v 1.7 4.5 -2.1
v 1.7 4.6 -2.1
v 2.3 4.5 -2.1
v 2.3 4.6 -2.1
v 2.4 4.5 -2.1
v 2.4 4.6 -2.1
v 1.6 4.6 -2.2
v 1.6 4.7 -2.2
v 1.7 4.6 -2.2
v 1.7 4.7 -2.2
v 2.3 4.6 -2.2
v 2.3 4.7 -2.2
v 2.4 4.6 -2.2
v 2.4 4.7 -2.2
v 1.7 4.7 -2.3
v 1.7 4.8 -2.3
v 1.8 4.7 -2.3
v 1.8 4.8 -2.3
v 2.2 4.7 -2.3
v 2.2 4.8 -2.3
v 2.3 4.7 -2.3
v 2.3 4.8 -2.3
v 1.6 4.3 -1.8
v 1.6 4.4 -1.8
v 1.7 4.3 -1.8
v 1.7 4.4 -1.8
v 2.3 4.3 -1.8
v 2.3 4.4 -1.8
v 2.4 4.3 -1.8
v 2.4 4.4 -1.8
v 1.6 4.4 -1.9
v 1.6 4.5 -1.9
v 1.7 4.4 -1.9
v 1.7 4.5 -1.9
v 2.3 4.4 -1.9
v 2.3 4.5 -1.9
v 2.4 4.4 -1.9
v 2.4 4.5 -1.9
v 1.6 4.5 -2
v 1.6 4.6 -2
v 1.7 4.5 -2
v 1.7 4.6 -2
v 2.3 4.5 -2
v 2.3 4.6 -2
v 2.4 4.5 -2
v 2.4 4.6 -2
v 1.6 4.6 -2.1
v 1.6 4.7 -2.1
v 1.7 4.6 -2.1
v 1.7 4.7 -2.1
v 2.3 4.6 -2.1
v 2.3 4.7 -2.1
v 2.4 4.6 -2.1
v 2.4 4.7 -2.1
v 1.7 4.7 -2.2
v 1.7 4.8 -2.2
v 1.8 4.7 -2.2
v 1.8 4.8 -2.2
v 2.2 4.7 -2.2
v 2.2 4.8 -2.2
v 2.3 4.7 -2.2
v 2.3 4.8 -2.2
v 1.9 3.2 -2.3
v 1.9 3.3 -2.3
v 2.1 3.2 -2.3
v 2.1 3.3 -2.3
v 1.6 2.4 -2.4
v 1.6 4 -2.4
v 1.7 3 -2.4
v 1.7 3.9 -2.4
v 1.8 2.4 -2.4
v 1.8 3 -2.4
v 1.8 3.1 -2.4
v 1.8 3.8 -2.4
v 1.9 3.1 -2.4
v 1.9 3.2 -2.4
v 1.9 3.3 -2.4
v 2.1 3.1 -2.4
v 2.1 3.2 -2.4
v 2.1 3.3 -2.4
v 2.2 2.4 -2.4
v 2.2 3 -2.4
v 2.2 3.1 -2.4
v 2.2 3.8 -2.4
v 2.3 3 -2.4
v 2.3 3.9 -2.4
v 2.4 2.4 -2.4
v 2.4 4 -2.4
v 1.4 2 -2.5
v 1.4 2.4 -2.5
v 1.5 2 -2.5
v 1.5 2.4 -2.5
v 2.5 2 -2.5
v 2.5 2.4 -2.5
v 2.6 2 -2.5
v 2.6 2.4 -2.5
v 1.5 2 -2.6
v 1.5 2.4 -2.6
v 1.8 2.1 -2.6
v 1.8 2.4 -2.6
v 2.2 2.1 -2.6
v 2.2 2.4 -2.6
v 2.5 2 -2.6
v 2.5 2.4 -2.6
v 1.6 4 -3.1
v 1.6 4.7 -3.1
v 1.7 4.1 -3.1
v 1.7 4.7 -3.1
v 1.7 4.8 -3.1
v 2.3 4.1 -3.1
v 2.3 4.7 -3.1
v 2.3 4.8 -3.1
v 2.4 4 -3.1
v 2.4 4.7 -3.1
v 1.7 4.1 -3.2
v 1.7 4.7 -3.2
v 2.3 4.1 -3.2
v 2.3 4.7 -3.2
v 1.5 2 -1.4
v 2.5 2 -1.4
v 1.4 2 -1.5
v 1.5 2 -1.5
v 2.5 2 -1.5
v 2.6 2 -1.5
v 1.4 2 -2.5
v 1.5 2 -2.5
v 2.5 2 -2.5
v 2.6 2 -2.5
v 1.5 2 -2.6
v 2.5 2 -2.6
v 1.9 3.3 -2.3
v 2.1 3.3 -2.3
v 1.9 3.3 -2.4
v 2.1 3.3 -2.4
v 1.6 4 -2.4
v 2.4 4 -2.4
v 1.6 4 -3.1
v 2.4 4 -3.1
v 1.7 4.1 -3.1
v 2.3 4.1 -3.1
v 1.7 4.1 -3.2
v 2.3 4.1 -3.2
v 1.6 4.3 -1.7
v 1.7 4.3 -1.7
v 2.3 4.3 -1.7
v 2.4 4.3 -1.7
v 1.6 4.3 -1.8
v 1.7 4.3 -1.8
v 2.3 4.3 -1.8
v 2.4 4.3 -1.8
v 1.6 4.4 -1.8
v 1.7 4.4 -1.8
v 2.3 4.4 -1.8
v 2.4 4.4 -1.8
v 1.6 4.4 -1.9
v 1.7 4.4 -1.9
v 2.3 4.4 -1.9
v 2.4 4.4 -1.9
v 1.6 4.5 -1.9
v 1.7 4.5 -1.9
v 2.3 4.5 -1.9
v 2.4 4.5 -1.9
v 1.6 4.5 -2
v 1.7 4.5 -2
v 2.3 4.5 -2
v 2.4 4.5 -2
v 1.6 4.6 -2
v 1.7 4.6 -2
v 2.3 4.6 -2
v 2.4 4.6 -2
v 1.6 4.6 -2.1
v 1.7 4.6 -2.1
v 2.3 4.6 -2.1
v 2.4 4.6 -2.1
v 1.5 2.4 -1.4
v 1.8 2.4 -1.4
v 2.2 2.4 -1.4
v 2.5 2.4 -1.4
v 1.4 2.4 -1.5
v 1.5 2.4 -1.5
v 2.5 2.4 -1.5
v 2.6 2.4 -1.5
v 1.6 2.4 -1.6
v 1.7 2.4 -1.6
v 1.8 2.4 -1.6
v 2.2 2.4 -1.6
v 2.3 2.4 -1.6
v 2.4 2.4 -1.6
v 1.6 2.4 -1.7
v 1.7 2.4 -1.7
v 2.3 2.4 -1.7
v 2.4 2.4 -1.7
v 1.4 2.4 -1.8
v 1.6 2.4 -1.8
v 2.4 2.4 -1.8
v 2.6 2.4 -1.8
v 1.4 2.4 -2.2
v 1.6 2.4 -2.2
v 2.4 2.4 -2.2
v 2.6 2.4 -2.2
v 1.6 2.4 -2.4
v 1.8 2.4 -2.4
v 2.2 2.4 -2.4
v 2.4 2.4 -2.4
v 1.4 2.4 -2.5
v 1.5 2.4 -2.5
v 2.5 2.4 -2.5
v 2.6 2.4 -2.5
v 1.5 2.4 -2.6
v 1.8 2.4 -2.6
v 2.2 2.4 -2.6
v 2.5 2.4 -2.6
v 1.9 3.2 -2.3
v 2.1 3.2 -2.3
v 1.9 3.2 -2.4
v 2.1 3.2 -2.4
v 1.6 4.2 -1.7
v 1.7 4.2 -1.7
v 2.3 4.2 -1.7
v 2.4 4.2 -1.7
v 1.6 4.2 -1.8
v 1.7 4.2 -1.8
v 2.3 4.2 -1.8
v 2.4 4.2 -1.8
v 1.6 4.3 -1.8
v 1.7 4.3 -1.8
v 2.3 4.3 -1.8
v 2.4 4.3 -1.8
v 1.6 4.3 -1.9
v 1.7 4.3 -1.9
v 2.3 4.3 -1.9
v 2.4 4.3 -1.9
v 1.6 4.4 -1.9
v 1.7 4.4 -1.9
v 2.3 4.4 -1.9
v 2.4 4.4 -1.9
v 1.6 4.4 -2
v 1.7 4.4 -2
v 2.3 4.4 -2
v 2.4 4.4 -2
v 1.6 4.5 -2
v 1.7 4.5 -2
v 2.3 4.5 -2
v 2.4 4.5 -2
v 1.6 4.5 -2.1
v 1.7 4.5 -2.1
v 2.3 4.5 -2.1
v 2.4 4.5 -2.1
v 1.6 4.6 -2.1
v 1.7 4.6 -2.1
v 2.3 4.6 -2.1
v 2.4 4.6 -2.1
v 1.6 4.6 -2.2
v 1.7 4.6 -2.2
v 2.3 4.6 -2.2
v 2.4 4.6 -2.2
v 1.6 4.7 -1.7
v 1.7 4.7 -1.7
v 2.3 4.7 -1.7
v 2.4 4.7 -1.7
v 1.6 4.7 -2.1
v 1.7 4.7 -2.1
v 2.3 4.7 -2.1
v 2.4 4.7 -2.1
v 1.6 4.7 -2.2
v 1.7 4.7 -2.2
v 1.8 4.7 -2.2
v 2.2 4.7 -2.2
v 2.3 4.7 -2.2
v 2.4 4.7 -2.2
v 1.7 4.7 -2.3
v 1.8 4.7 -2.3
v 2.2 4.7 -2.3
v 2.3 4.7 -2.3
v 1.6 4.7 -3.1
v 1.7 4.7 -3.1
v 2.3 4.7 -3.1
v 2.4 4.7 -3.1
v 1.7 4.7 -3.2
v 2.3 4.7 -3.2
v 1.7 4.8 -1.6
v 2.3 4.8 -1.6
v 1.7 4.8 -2.2
v 1.8 4.8 -2.2
v 2.2 4.8 -2.2
v 2.3 4.8 -2.2
v 1.7 4.8 -2.3
v 1.8 4.8 -2.3
v 2.2 4.8 -2.3
v 2.3 4.8 -2.3
v 1.7 4.8 -3.1
v 2.3 4.8 -3.1

# faces
f 3/3/1 2/3/1 1/3/1
f 4/3/1 2/3/1 3/3/1
f 5/3/1 3/3/1 1/3/1
f 6/2/1 4/2/1 3/2/1
f 6/3/1 3/3/1 5/3/1
f 7/3/1 2/3/1 4/3/1
f 7/2/1 4/2/1 6/2/1
f 8/3/1 2/3/1 7/3/1
f 13/3/1 10/3/1 9/3/1
f 14/3/1 10/3/1 13/3/1
f 15/3/1 12/3/1 11/3/1
f 16/3/1 12/3/1 15/3/1
f 21/3/1 18/3/1 17/3/1
f 21/3/1 20/3/1 19/3/1
f 21/3/1 19/3/1 18/3/1
f 23/3/1 21/3/1 17/3/1
f 23/3/1 22/3/1 21/3/1
f 24/3/1 22/3/1 23/3/1
f 26/3/1 22/3/1 24/3/1
f 27/3/1 22/3/1 26/3/1
f 28/3/1 26/3/1 25/3/1
f 29/3/1 22/3/1 27/3/1
f 30/3/1 22/3/1 29/3/1
f 31/3/1 29/3/1 28/3/1
f 32/3/1 22/3/1 30/3/1
f 33/3/1 22/3/1 32/3/1
f 34/3/1 32/3/1 31/3/1
f 35/3/1 22/3/1 33/3/1
f 36/3/1 22/3/1 35/3/1
f 37/3/1 28/3/1 25/3/1
f 37/3/1 31/3/1 28/3/1
f 37/3/1 35/3/1 34/3/1
f 37/3/1 34/3/1 31/3/1
f 38/3/1 35/3/1 37/3/1
f 39/3/1 22/3/1 36/3/1
f 40/3/1 22/3/1 39/3/1
f 45/3/1 42/3/1 41/3/1
f 47/3/1 45/3/1 41/3/1
f 47/4/1 46/4/1 45/4/1
f 48/4/1 46/4/1 47/4/1
f 50/4/1 49/4/1 48/4/1
f 51/4/1 49/4/1 50/4/1
f 53/4/1 52/4/1 51/4/1
f 54/4/1 52/4/1 53/4/1
f 56/4/1 55/4/1 54/4/1
f 57/4/1 55/4/1 56/4/1
f 59/3/1 47/3/1 41/3/1
f 60/4/1 58/4/1 57/4/1
f 61/4/1 58/4/1 60/4/1
f 63/3/1 44/3/1 43/3/1
f 64/3/1 44/3/1 63/3/1
f 65/3/1 61/3/1 60/3/1
f 65/3/1 59/3/1 41/3/1
f 65/3/1 60/3/1 59/3/1
f 66/3/1 61/3/1 65/3/1
f 67/3/1 63/3/1 62/3/1
f 68/3/1 63/3/1 67/3/1
f 71/3/1 70/3/1 69/3/1
f 72/3/1 70/3/1 71/3/1
f 75/2/1 74/2/1 73/2/1
f 76/2/1 74/2/1 75/2/1
f 77/2/2 78/2/2 79/2/2
f 79/2/2 78/2/2 80/2/2
f 81/3/2 82/3/2 83/3/2
f 83/3/2 82/3/2 84/3/2
f 85/3/2 86/3/2 89/3/2
f 85/3/2 89/3/2 91/3/2
f 89/4/2 90/4/2 91/4/2
f 91/4/2 90/4/2 92/4/2
f 92/4/2 93/4/2 94/4/2
f 94/4/2 93/4/2 95/4/2
f 95/4/2 96/4/2 97/4/2
f 97/4/2 96/4/2 98/4/2
f 98/4/2 99/4/2 100/4/2
f 100/4/2 99/4/2 101/4/2
f 85/3/2 91/3/2 103/3/2
f 101/4/2 102/4/2 104/4/2
f 104/4/2 102/4/2 105/4/2
f 87/3/2 88/3/2 107/3/2
f 107/3/2 88/3/2 108/3/2
f 104/3/2 105/3/2 109/3/2
f 85/3/2 103/3/2 109/3/2
f 103/3/2 104/3/2 109/3/2
f 109/3/2 105/3/2 110/3/2
f 106/3/2 107/3/2 111/3/2
f 111/3/2 107/3/2 112/3/2
f 113/3/2 114/3/2 117/3/2
f 115/3/2 116/3/2 117/3/2
f 114/3/2 115/3/2 117/3/2
f 113/3/2 117/3/2 119/3/2
f 117/3/2 118/3/2 119/3/2
f 119/3/2 118/3/2 120/3/2
f 120/3/2 118/3/2 122/3/2
f 122/3/2 118/3/2 123/3/2
f 121/3/2 122/3/2 124/3/2
f 123/3/2 118/3/2 125/3/2
f 125/3/2 118/3/2 126/3/2
f 124/3/2 125/3/2 127/3/2
f 126/3/2 118/3/2 128/3/2
f 128/3/2 118/3/2 129/3/2
f 127/3/2 128/3/2 130/3/2
f 129/3/2 118/3/2 131/3/2
f 131/3/2 118/3/2 132/3/2
f 121/3/2 124/3/2 133/3/2
f 124/3/2 127/3/2 133/3/2
f 130/3/2 131/3/2 133/3/2
f 127/3/2 130/3/2 133/3/2
f 133/3/2 131/3/2 134/3/2
f 132/3/2 118/3/2 135/3/2
f 135/3/2 118/3/2 136/3/2
f 137/3/2 138/3/2 141/3/2
f 141/3/2 138/3/2 142/3/2
f 139/3/2 140/3/2 143/3/2
f 143/3/2 140/3/2 144/3/2
f 145/3/2 146/3/2 147/3/2
f 147/3/2 146/3/2 148/3/2
f 145/3/2 147/3/2 149/3/2
f 147/2/2 148/2/2 150/2/2
f 149/3/2 147/3/2 150/3/2
f 148/3/2 146/3/2 151/3/2
f 150/2/2 148/2/2 151/2/2
f 151/3/2 146/3/2 152/3/2
f 155/3/3 154/3/3 153/3/3
f 156/3/3 154/3/3 155/3/3
f 157/3/3 155/3/3 153/3/3
f 157/2/3 156/2/3 155/2/3
f 158/2/3 156/2/3 157/2/3
f 159/3/3 157/3/3 153/3/3
f 159/3/3 158/3/3 157/3/3
f 160/3/3 158/3/3 159/3/3
f 163/3/3 162/3/3 161/3/3
f 164/3/3 162/3/3 163/3/3
f 167/3/3 166/3/3 165/3/3
f 168/3/3 166/3/3 167/3/3
f 171/3/3 170/3/3 169/3/3
f 172/3/3 170/3/3 171/3/3
f 173/3/3 170/3/3 172/3/3
f 174/3/3 170/3/3 173/3/3
f 179/3/3 176/3/3 175/3/3
f 180/3/3 176/3/3 179/3/3
f 181/3/3 178/3/3 177/3/3
f 182/3/3 178/3/3 181/3/3
f 187/3/3 184/3/3 183/3/3
f 188/3/3 184/3/3 187/3/3
f 189/3/3 186/3/3 185/3/3
f 190/3/3 186/3/3 189/3/3
f 193/3/3 192/3/3 191/3/3
f 194/3/3 192/3/3 193/3/3
f 197/3/3 196/3/3 195/3/3
f 198/3/3 196/3/3 197/3/3
f 201/3/3 200/3/3 199/3/3
f 202/3/3 200/3/3 201/3/3
f 205/3/3 204/3/3 203/3/3
f 206/3/3 204/3/3 205/3/3
f 209/3/3 208/3/3 207/3/3
f 210/3/3 208/3/3 209/3/3
f 213/3/3 212/3/3 211/3/3
f 214/3/3 212/3/3 213/3/3
f 217/3/3 216/3/3 215/3/3
f 218/3/3 216/3/3 217/3/3
f 221/3/3 220/3/3 219/3/3
f 222/3/3 220/3/3 221/3/3
f 225/3/3 224/3/3 223/3/3
f 226/3/3 224/3/3 225/3/3
f 229/3/3 228/3/3 227/3/3
f 230/3/3 228/3/3 229/3/3
f 233/3/3 232/3/3 231/3/3
f 234/3/3 232/3/3 233/3/3
f 237/3/3 236/3/3 235/3/3
f 238/3/3 236/3/3 237/3/3
f 239/3/4 240/3/4 241/3/4
f 241/3/4 240/3/4 242/3/4
f 243/3/4 244/3/4 245/3/4
f 245/3/4 244/3/4 246/3/4
f 247/3/4 248/3/4 249/3/4
f 249/3/4 248/3/4 250/3/4
f 251/3/4 252/3/4 253/3/4
f 253/3/4 252/3/4 254/3/4
f 255/3/4 256/3/4 257/3/4
f 257/3/4 256/3/4 258/3/4
f 259/3/4 260/3/4 261/3/4
f 261/3/4 260/3/4 262/3/4
f 263/3/4 264/3/4 265/3/4
f 265/3/4 264/3/4 266/3/4
f 267/3/4 268/3/4 269/3/4
f 269/3/4 268/3/4 270/3/4
f 271/3/4 272/3/4 273/3/4
f 273/3/4 272/3/4 274/3/4
f 275/3/4 276/3/4 277/3/4
f 277/3/4 276/3/4 278/3/4
f 279/3/4 280/3/4 281/3/4
f 281/3/4 280/3/4 282/3/4
f 283/3/4 284/3/4 285/3/4
f 285/3/4 284/3/4 286/3/4
f 283/3/4 285/3/4 287/3/4
f 285/4/4 286/4/4 288/4/4
f 287/3/4 285/3/4 288/3/4
f 288/4/4 286/4/4 289/4/4
f 289/4/4 286/4/4 290/4/4
f 287/3/4 288/3/4 291/3/4
f 288/3/4 289/3/4 291/3/4
f 289/2/4 290/2/4 291/2/4
f 291/2/4 290/2/4 292/2/4
f 292/2/4 290/2/4 293/2/4
f 287/3/4 291/3/4 294/3/4
f 291/3/4 292/3/4 294/3/4
f 294/3/4 292/3/4 295/3/4
f 293/2/4 290/2/4 296/2/4
f 287/3/4 294/3/4 297/3/4
f 297/3/4 294/3/4 298/3/4
f 294/2/4 295/2/4 299/2/4
f 298/3/4 294/3/4 299/3/4
f 295/2/4 296/2/4 299/2/4
f 290/4/4 286/4/4 300/4/4
f 299/2/4 296/2/4 300/2/4
f 296/2/4 290/2/4 300/2/4
f 298/4/4 299/4/4 301/4/4
f 297/3/4 298/3/4 301/3/4
f 299/4/4 300/4/4 301/4/4
f 286/3/4 284/3/4 302/3/4
f 301/4/4 300/4/4 302/4/4
f 300/4/4 286/4/4 302/4/4
f 297/3/4 301/3/4 303/3/4
f 301/3/4 302/3/4 303/3/4
f 302/3/4 284/3/4 304/3/4
f 303/3/4 302/3/4 304/3/4
f 305/3/4 306/3/4 307/3/4
f 307/3/4 306/3/4 308/3/4
f 309/3/4 310/3/4 311/3/4
f 311/3/4 310/3/4 312/3/4
f 313/3/4 314/3/4 315/3/4
f 315/3/4 314/3/4 316/3/4
f 313/3/4 315/3/4 317/3/4
f 315/2/4 316/2/4 317/2/4
f 317/2/4 316/2/4 318/2/4
f 313/3/4 317/3/4 319/3/4
f 317/3/4 318/3/4 319/3/4
f 319/3/4 318/3/4 320/3/4
f 321/3/4 322/3/4 323/3/4
f 323/3/4 322/3/4 324/3/4
f 321/3/4 323/3/4 326/3/4
f 324/3/4 325/3/4 327/3/4
f 327/3/4 325/3/4 328/3/4
f 321/3/4 326/3/4 329/3/4
f 326/3/4 327/3/4 329/3/4
f 329/3/4 327/3/4 330/3/4
f 331/3/4 332/3/4 333/3/4
f 333/3/4 332/3/4 334/3/4
f 338/3/5 336/3/5 335/3/5
f 339/3/5 336/3/5 338/3/5
f 341/3/5 338/3/5 337/3/5
f 341/3/5 340/3/5 339/3/5
f 341/3/5 339/3/5 338/3/5
f 342/3/5 340/3/5 341/3/5
f 343/3/5 340/3/5 342/3/5
f 344/3/5 340/3/5 343/3/5
f 345/3/5 343/3/5 342/3/5
f 346/3/5 343/3/5 345/3/5
f 349/2/5 348/2/5 347/2/5
f 350/2/5 348/2/5 349/2/5
f 353/3/5 352/3/5 351/3/5
f 354/3/5 352/3/5 353/3/5
f 357/3/5 356/3/5 355/3/5
f 358/3/5 356/3/5 357/3/5
f 363/3/5 360/3/5 359/3/5
f 364/3/5 360/3/5 363/3/5
f 365/3/5 362/3/5 361/3/5
f 366/3/5 362/3/5 365/3/5
f 371/3/5 368/3/5 367/3/5
f 372/3/5 368/3/5 371/3/5
f 373/3/5 370/3/5 369/3/5
f 374/3/5 370/3/5 373/3/5
f 379/3/5 376/3/5 375/3/5
f 380/3/5 376/3/5 379/3/5
f 381/3/5 378/3/5 377/3/5
f 382/3/5 378/3/5 381/3/5
f 387/3/5 384/3/5 383/3/5
f 388/3/5 384/3/5 387/3/5
f 389/3/5 386/3/5 385/3/5
f 390/3/5 386/3/5 389/3/5
f 391/3/6 392/3/6 396/3/6
f 393/3/6 394/3/6 397/3/6
f 395/3/6 396/3/6 399/3/6
f 396/3/6 392/3/6 399/3/6
f 399/3/6 392/3/6 400/3/6
f 392/2/6 393/2/6 401/2/6
f 400/3/6 392/3/6 401/3/6
f 397/3/6 398/3/6 402/3/6
f 401/2/6 393/2/6 402/2/6
f 393/3/6 397/3/6 402/3/6
f 402/3/6 398/3/6 403/3/6
f 403/3/6 398/3/6 404/3/6
f 399/4/6 400/4/6 405/4/6
f 395/3/6 399/3/6 405/3/6
f 405/4/6 400/4/6 406/4/6
f 403/4/6 404/4/6 407/4/6
f 404/3/6 398/3/6 408/3/6
f 407/4/6 404/4/6 408/4/6
f 395/3/6 405/3/6 409/3/6
f 409/3/6 405/3/6 410/3/6
f 408/3/6 398/3/6 411/3/6
f 411/3/6 398/3/6 412/3/6
f 409/2/6 410/2/6 413/2/6
f 413/2/6 410/2/6 414/2/6
f 411/2/6 412/2/6 415/2/6
f 415/2/6 412/2/6 416/2/6
f 413/3/6 414/3/6 417/3/6
f 415/3/6 416/3/6 420/3/6
f 413/3/6 417/3/6 421/3/6
f 417/3/6 418/3/6 421/3/6
f 421/3/6 418/3/6 422/3/6
f 419/3/6 420/3/6 423/3/6
f 420/3/6 416/3/6 423/3/6
f 423/3/6 416/3/6 424/3/6
f 422/3/6 418/3/6 425/3/6
f 418/2/6 419/2/6 426/2/6
f 425/3/6 418/3/6 426/3/6
f 419/3/6 423/3/6 427/3/6
f 426/2/6 419/2/6 427/2/6
f 427/3/6 423/3/6 428/3/6
f 429/3/6 430/3/6 431/3/6
f 431/3/6 430/3/6 432/3/6
f 433/3/6 434/3/6 437/3/6
f 437/3/6 434/3/6 438/3/6
f 435/3/6 436/3/6 439/3/6
f 439/3/6 436/3/6 440/3/6
f 441/3/6 442/3/6 445/3/6
f 445/3/6 442/3/6 446/3/6
f 443/3/6 444/3/6 447/3/6
f 447/3/6 444/3/6 448/3/6
f 449/3/6 450/3/6 453/3/6
f 453/3/6 450/3/6 454/3/6
f 451/3/6 452/3/6 455/3/6
f 455/3/6 452/3/6 456/3/6
f 457/3/6 458/3/6 461/3/6
f 461/3/6 458/3/6 462/3/6
f 459/3/6 460/3/6 463/3/6
f 463/3/6 460/3/6 464/3/6
f 465/3/6 466/3/6 469/3/6
f 469/3/6 466/3/6 470/3/6
f 467/3/6 468/3/6 471/3/6
f 471/3/6 468/3/6 472/3/6
f 473/3/6 474/3/6 477/3/6
f 477/3/6 474/3/6 478/3/6
f 475/3/6 476/3/6 479/3/6
f 479/3/6 476/3/6 480/3/6
f 481/3/6 482/3/6 487/3/6
f 482/4/6 483/4/6 487/4/6
f 487/4/6 483/4/6 488/4/6
f 484/4/6 485/4/6 489/4/6
f 485/3/6 486/3/6 490/3/6
f 489/4/6 485/4/6 490/4/6
f 481/3/6 487/3/6 491/3/6
f 491/3/6 487/3/6 492/3/6
f 490/3/6 486/3/6 493/3/6
f 493/3/6 486/3/6 494/3/6
f 492/3/6 493/3/6 495/3/6
f 495/3/6 493/3/6 496/3/6
f 497/3/6 498/3/6 499/3/6
f 499/3/6 498/3/6 500/3/6
f 500/3/6 498/3/6 501/3/6
f 501/3/6 498/3/6 502/3/6
f 500/3/6 501/3/6 504/3/6
f 504/3/6 501/3/6 505/3/6
f 503/3/6 504/3/6 507/3/6
f 505/3/6 506/3/6 507/3/6
f 504/3/6 505/3/6 507/3/6
f 507/3/6 506/3/6 508/3/6
